<?xml version="1.0" encoding="utf-8"?>
<!-- Generator: Adobe Illustrator 16.0.0, SVG Export Plug-In . SVG Version: 6.00 Build 0)  -->
<!DOCTYPE svg PUBLIC "-//W3C//DTD SVG 1.1//EN" "http://www.w3.org/Graphics/SVG/1.1/DTD/svg11.dtd">
<svg version="1.1" id="Capa_1" xmlns="http://www.w3.org/2000/svg" xmlns:xlink="http://www.w3.org/1999/xlink" x="0px" y="0px"
	 width="24px" height="24px" viewBox="0 0 24 24" enable-background="new 0 0 24 24" xml:space="preserve">
<g id="Capa_1_1_">
	<path fill="#CA6148" d="M12.141,0.051C7.813-0.029,4.24,3.418,4.164,7.748c-0.043,2.41,1.004,4.581,2.689,6.049l-0.015,0.004
		c2.028,1.824,3.904,3.497,4.161,7.057c-1.264,0.166-2.203,0.746-2.216,1.466c-0.013,0.866,1.318,1.598,2.976,1.628
		c1.658,0.027,3.015-0.653,3.031-1.52c0.015-0.742-0.961-1.379-2.278-1.564c0.381-3.462,2.237-5.069,4.28-6.774
		c1.815-1.405,3.002-3.589,3.045-6.062C19.915,3.701,16.468,0.128,12.141,0.051"/>
</g>
<g id="Capa_2">
	<path fill="none" stroke="#FFFFFF" stroke-miterlimit="10" d="M11.966,2.626c1.048,0.207,0.869,3.539,0.869,3.539l4.194,4.103
		l-0.053,0.67l-4.082-1.965l-0.004,2.197l1.17,1.654l-0.024,1.121l-2.017-1.348l-0.013-0.003l-2,1.367L9.967,12.84l1.152-1.666
		l-0.03-2.197l-4.06,2.01L6.97,10.319l4.149-4.149c0,0-0.217-3.329,0.827-3.545L11.966,2.626z"/>
</g>
</svg>
