<?xml version="1.0" encoding="utf-8"?>
<!-- Generator: Adobe Illustrator 16.0.0, SVG Export Plug-In . SVG Version: 6.00 Build 0)  -->
<!DOCTYPE svg PUBLIC "-//W3C//DTD SVG 1.1//EN" "http://www.w3.org/Graphics/SVG/1.1/DTD/svg11.dtd">
<svg version="1.1" id="Capa_1" xmlns="http://www.w3.org/2000/svg" xmlns:xlink="http://www.w3.org/1999/xlink" x="0px" y="0px"
	 width="24px" height="24px" viewBox="0 0 24 24" enable-background="new 0 0 24 24" xml:space="preserve">
<path fill="#B5343A" d="M12.141,0.051C7.813-0.029,4.24,3.418,4.164,7.748c-0.043,2.41,1.004,4.581,2.689,6.049l-0.015,0.004
	c2.028,1.824,3.904,3.497,4.161,7.057c-1.264,0.166-2.203,0.746-2.216,1.465c-0.013,0.867,1.318,1.598,2.976,1.628
	c1.658,0.028,3.015-0.653,3.031-1.519c0.015-0.742-0.961-1.379-2.278-1.565c0.381-3.462,2.237-5.069,4.28-6.774
	c1.815-1.406,3.002-3.589,3.045-6.062C19.915,3.701,16.468,0.128,12.141,0.051"/>
<line fill="none" stroke="#FFFFFF" stroke-width="0.25" stroke-linecap="round" stroke-linejoin="round" stroke-miterlimit="10" x1="12.017" y1="1.811" x2="12.017" y2="5.065"/>
<path fill="#FFFFFF" d="M12.3,1.794c0,0,0.911,0.536,1.946-0.321c0,0,0.786,0.022,0.856,0.243c0.071,0.221,0,1.72,0,1.72
	s-0.63-0.5-1.386,0c0,0-0.652,0.463-1.417,0"/>
<rect x="7.437" y="6.015" fill="#FFFFFF" stroke="#FFFFFF" stroke-width="0.25" stroke-linecap="round" stroke-linejoin="round" stroke-miterlimit="10" width="9.07" height="5.896"/>
<line fill="none" stroke="#FFFFFF" stroke-width="0.5" stroke-linecap="round" stroke-linejoin="round" stroke-miterlimit="10" x1="6.303" y1="12.485" x2="17.641" y2="12.485"/>
<line fill="none" stroke="#FFFFFF" stroke-width="0.5" stroke-linecap="round" stroke-linejoin="round" stroke-miterlimit="10" x1="7.72" y1="5.193" x2="16.224" y2="5.193"/>
<path fill="#AA3639" d="M9.263,6.905c-0.408,0-0.739,0.228-0.739,0.508v4.468h1.479V7.413C10.003,7.133,9.672,6.905,9.263,6.905z"/>
<path fill="#AA3639" d="M11.972,6.905c-0.409,0-0.74,0.228-0.74,0.508v4.468h1.48V7.413C12.712,7.133,12.38,6.905,11.972,6.905z"/>
<path fill="#AA3639" d="M14.835,6.905c-0.408,0-0.739,0.228-0.739,0.508v4.468h1.479V7.413C15.575,7.133,15.244,6.905,14.835,6.905z
	"/>
</svg>
