<?xml version="1.0" encoding="utf-8"?>
<!-- Generator: Adobe Illustrator 16.0.0, SVG Export Plug-In . SVG Version: 6.00 Build 0)  -->
<!DOCTYPE svg PUBLIC "-//W3C//DTD SVG 1.1//EN" "http://www.w3.org/Graphics/SVG/1.1/DTD/svg11.dtd">
<svg version="1.1" id="Capa_1" xmlns="http://www.w3.org/2000/svg" xmlns:xlink="http://www.w3.org/1999/xlink" x="0px" y="0px"
	 width="24px" height="24px" viewBox="0 0 24 24" enable-background="new 0 0 24 24" xml:space="preserve">
<path fill="#B5343A" d="M17.506,7.987c-0.054,3.013-2.54,5.415-5.557,5.36c-3.016-0.056-5.415-2.543-5.36-5.557
	c0.053-3.017,2.54-5.414,5.556-5.362C15.159,2.484,17.561,4.973,17.506,7.987"/>
<path fill="#B5343A" d="M12.141,0.051C7.813-0.029,4.24,3.418,4.164,7.748c-0.043,2.41,1.004,4.581,2.689,6.049l-0.015,0.004
	c2.028,1.824,3.904,3.497,4.161,7.057c-1.264,0.165-2.203,0.745-2.216,1.464c-0.013,0.868,1.318,1.598,2.976,1.628
	c1.658,0.028,3.014-0.653,3.031-1.519c0.014-0.741-0.961-1.378-2.279-1.565c0.381-3.462,2.238-5.069,4.281-6.774
	c1.816-1.406,3.002-3.589,3.045-6.062C19.915,3.701,16.468,0.128,12.141,0.051 M11.929,14.42c-3.606-0.066-6.479-3.044-6.413-6.648
	c0.065-3.606,3.043-6.477,6.646-6.413c3.606,0.066,6.478,3.042,6.414,6.647C18.51,11.61,15.536,14.484,11.929,14.42"/>
<polygon fill="#FFFFFF" stroke="#B5343A" stroke-width="0.25" stroke-miterlimit="10" points="10.452,10.366 10.452,11.639 
	13.645,11.639 13.645,9.486 15.797,9.486 15.797,6.285 13.645,6.285 13.645,4.139 10.452,4.139 10.452,6.285 8.298,6.285 
	8.298,9.486 10.452,9.486 "/>
</svg>
