<?xml version="1.0" encoding="utf-8"?>
<!-- Generator: Adobe Illustrator 16.0.0, SVG Export Plug-In . SVG Version: 6.00 Build 0)  -->
<!DOCTYPE svg PUBLIC "-//W3C//DTD SVG 1.1//EN" "http://www.w3.org/Graphics/SVG/1.1/DTD/svg11.dtd">
<svg version="1.1" id="Capa_1" xmlns="http://www.w3.org/2000/svg" xmlns:xlink="http://www.w3.org/1999/xlink" x="0px" y="0px"
	 width="24px" height="24px" viewBox="0 0 24 24" enable-background="new 0 0 24 24" xml:space="preserve">
<g id="Capa_1_1_">
	<path fill="#CA6148" d="M12.141,0.051C7.813-0.029,4.24,3.418,4.164,7.748c-0.043,2.41,1.004,4.581,2.689,6.049l-0.015,0.004
		c2.028,1.824,3.904,3.497,4.161,7.057c-1.264,0.166-2.203,0.746-2.216,1.466c-0.013,0.866,1.318,1.598,2.976,1.628
		c1.658,0.027,3.015-0.653,3.031-1.52c0.015-0.742-0.961-1.379-2.278-1.564c0.381-3.462,2.237-5.069,4.28-6.774
		c1.815-1.405,3.002-3.589,3.045-6.062C19.915,3.701,16.468,0.128,12.141,0.051"/>
</g>
<g>
	<g>
		
			<path fill="#FFFFFF" stroke="#FFFFFF" stroke-width="0.25" stroke-linecap="round" stroke-linejoin="round" stroke-miterlimit="10" d="
			M7.35,8.898c0,1.096,0.888,1.984,1.984,1.984h5.332c1.096,0,1.984-0.888,1.984-1.984V3.934c0-1.096-0.889-1.984-1.984-1.984H9.334
			c-1.096,0-1.984,0.888-1.984,1.984V8.898z"/>
	</g>
</g>
<g>
	<path fill="#CA6148" d="M8.47,5.279c0,0.823,0.666,1.49,1.489,1.49h4.082c0.821,0,1.489-0.667,1.489-1.49
		c0-0.823-0.667-1.489-1.489-1.489H9.959C9.136,3.791,8.47,4.458,8.47,5.279C8.47,5.279,8.47,4.458,8.47,5.279z"/>
</g>
<g>
	<path fill="#CA6148" d="M10.057,2.871c0,0.228,0.184,0.412,0.412,0.412h3.064c0.228,0,0.411-0.184,0.411-0.412
		c0-0.228-0.184-0.412-0.411-0.412h-3.064C10.24,2.459,10.057,2.643,10.057,2.871C10.057,2.871,10.057,2.643,10.057,2.871z"/>
</g>
<circle fill="#CA6148" cx="14.965" cy="9.386" r="0.497"/>
<circle fill="#CA6148" cx="9.239" cy="9.418" r="0.498"/>
<g>
	
		<polyline fill="none" stroke="#FFFFFF" stroke-width="0.35" stroke-linecap="round" stroke-linejoin="round" stroke-miterlimit="10" points="
		14.468,10.931 15.216,11.907 16.678,13.813 	"/>
	<g>
		
			<polyline fill="none" stroke="#FFFFFF" stroke-width="0.35" stroke-linecap="round" stroke-linejoin="round" stroke-miterlimit="10" points="
			9.531,10.931 8.783,11.907 7.323,13.813 		"/>
		
			<line fill="none" stroke="#FFFFFF" stroke-width="0.35" stroke-linecap="round" stroke-linejoin="round" stroke-miterlimit="10" x1="8.783" y1="11.907" x2="15.216" y2="11.907"/>
		
			<line fill="none" stroke="#FFFFFF" stroke-width="0.35" stroke-linecap="round" stroke-linejoin="round" stroke-miterlimit="10" x1="7.649" y1="13.399" x2="16.353" y2="13.399"/>
	</g>
</g>
</svg>
