<?xml version="1.0" encoding="utf-8"?>
<!-- Generator: Adobe Illustrator 16.0.0, SVG Export Plug-In . SVG Version: 6.00 Build 0)  -->
<!DOCTYPE svg PUBLIC "-//W3C//DTD SVG 1.1//EN" "http://www.w3.org/Graphics/SVG/1.1/DTD/svg11.dtd">
<svg version="1.1" xmlns="http://www.w3.org/2000/svg" xmlns:xlink="http://www.w3.org/1999/xlink" x="0px" y="0px" width="24px"
	 height="24px" viewBox="0 0 24 24" enable-background="new 0 0 24 24" xml:space="preserve">
<g id="Capa_1">
	<g id="Capa_1_1_">
		<path fill="#20547E" d="M12.141,0.051C7.813-0.029,4.24,3.418,4.164,7.748c-0.043,2.41,1.004,4.581,2.689,6.049l-0.015,0.004
			c2.028,1.824,3.904,3.497,4.161,7.057c-1.264,0.166-2.203,0.746-2.216,1.465c-0.013,0.867,1.318,1.599,2.976,1.629
			c1.658,0.027,3.015-0.653,3.031-1.52c0.015-0.742-0.961-1.379-2.278-1.564c0.381-3.463,2.237-5.069,4.28-6.774
			c1.815-1.405,3.002-3.589,3.045-6.062C19.915,3.701,16.468,0.128,12.141,0.051"/>
	</g>
</g>
<g id="Puerto" display="none">
	
		<image display="inline" overflow="visible" width="900" height="900" xlink:href="8BDF42E8.jpg"  transform="matrix(0.0333 0 0 0.0333 -2 -2)">
	</image>
</g>
<g id="Mina" display="none">
	
		<image display="inline" overflow="visible" width="900" height="600" xlink:href="8BDF42E9.jpg"  transform="matrix(0.0133 0 0 0.0133 6 3.4268)">
	</image>
</g>
<g id="Institucion_penitenciaria" display="none">
	
		<image display="inline" overflow="visible" width="900" height="520" xlink:href="8BDF42EF.jpg"  transform="matrix(0.0333 0 0 0.0333 -2 1.3335)">
	</image>
</g>
<g id="Instalacion_militar" display="none">
	
		<image display="inline" overflow="visible" width="320" height="157" xlink:href="8BDF42EA.jpg"  transform="matrix(0.0938 0 0 0.0938 -2 3.1406)">
	</image>
</g>
<g id="Capa_7">
	<circle fill="none" stroke="#FFFFFF" stroke-width="0.7" stroke-miterlimit="10" cx="12" cy="3.379" r="1.419"/>
	<line fill="none" stroke="#FFFFFF" stroke-width="0.7" stroke-miterlimit="10" x1="12" y1="4.798" x2="12" y2="13.393"/>
	<line fill="none" stroke="#FFFFFF" stroke-width="0.7" stroke-miterlimit="10" x1="10.268" y1="5.673" x2="13.731" y2="5.673"/>
	<g>
		<g>
			<path fill="none" stroke="#FFFFFF" stroke-width="0.7" stroke-miterlimit="10" d="M7,10.889c0.844,1.4,2.764,2.378,5,2.378
				s4.155-0.979,5-2.378"/>
			<g>
				<polygon fill="#FFFFFF" points="6.682,12.66 7.085,11.03 8.714,11.434 8.194,10.571 6.565,10.168 6.162,11.797 				"/>
			</g>
			<g>
				<polygon fill="#FFFFFF" points="17.317,12.66 16.915,11.03 15.285,11.434 15.806,10.571 17.436,10.168 17.838,11.797 				"/>
			</g>
		</g>
	</g>
</g>
<g id="Central_electrica" display="none">
	
		<image display="inline" overflow="visible" width="800" height="800" xlink:href="../../../Macarena/SIMBOLOS/iconos-de-la-energía-geotérmica-fijados-94607156.jpg"  transform="matrix(0.0625 0 0 0.0625 -11.9995 -12)">
	</image>
</g>
</svg>
