<?xml version="1.0" encoding="utf-8"?>
<!-- Generator: Adobe Illustrator 16.0.0, SVG Export Plug-In . SVG Version: 6.00 Build 0)  -->
<!DOCTYPE svg PUBLIC "-//W3C//DTD SVG 1.1//EN" "http://www.w3.org/Graphics/SVG/1.1/DTD/svg11.dtd">
<svg version="1.1" id="Capa_1" xmlns="http://www.w3.org/2000/svg" xmlns:xlink="http://www.w3.org/1999/xlink" x="0px" y="0px"
	 width="24px" height="24px" viewBox="0 0 24 24" enable-background="new 0 0 24 24" xml:space="preserve">
<g id="Capa_1_1_">
	<path fill="#B5343A" d="M12.141,0.051C7.813-0.029,4.24,3.418,4.164,7.748c-0.043,2.41,1.004,4.581,2.689,6.049l-0.015,0.004
		c2.028,1.824,3.904,3.497,4.161,7.057c-1.264,0.166-2.203,0.746-2.216,1.467c-0.013,0.865,1.318,1.598,2.976,1.628
		c1.658,0.026,3.015-0.653,3.031-1.521c0.015-0.742-0.961-1.379-2.278-1.563c0.381-3.462,2.237-5.069,4.28-6.774
		c1.815-1.404,3.002-3.589,3.045-6.062C19.915,3.701,16.468,0.128,12.141,0.051"/>
</g>
<circle fill="#FFFFFF" cx="12" cy="7.904" r="4.961"/>
<circle fill="#B5343A" cx="12" cy="7.904" r="3.543"/>
</svg>
