<?xml version="1.0" encoding="utf-8"?>
<!-- Generator: Adobe Illustrator 16.0.0, SVG Export Plug-In . SVG Version: 6.00 Build 0)  -->
<!DOCTYPE svg PUBLIC "-//W3C//DTD SVG 1.1//EN" "http://www.w3.org/Graphics/SVG/1.1/DTD/svg11.dtd">
<svg version="1.1" xmlns="http://www.w3.org/2000/svg" xmlns:xlink="http://www.w3.org/1999/xlink" x="0px" y="0px" width="24px"
	 height="24px" viewBox="0 0 24 24" enable-background="new 0 0 24 24" xml:space="preserve">
<g id="Capa_1">
	<g id="Capa_1_1_">
		<path fill="#F3DB82" d="M12.141,0.051C7.813-0.029,4.24,3.418,4.164,7.748c-0.043,2.41,1.004,4.581,2.689,6.049l-0.015,0.004
			c2.028,1.824,3.904,3.497,4.161,7.057c-1.264,0.166-2.203,0.746-2.216,1.465c-0.013,0.867,1.318,1.599,2.976,1.629
			c1.658,0.027,3.015-0.653,3.031-1.52c0.015-0.742-0.961-1.379-2.278-1.564c0.381-3.463,2.237-5.069,4.28-6.774
			c1.815-1.405,3.002-3.589,3.045-6.062C19.915,3.701,16.468,0.128,12.141,0.051"/>
	</g>
</g>
<g id="Puerto" display="none">
	
		<image display="inline" overflow="visible" width="900" height="900" xlink:href="E5B27B2D.jpg"  transform="matrix(0.0333 0 0 0.0333 -2 -2)">
	</image>
</g>
<g id="Mina" display="none">
	
		<image display="inline" overflow="visible" width="900" height="600" xlink:href="E5B27B2F.jpg"  transform="matrix(0.0133 0 0 0.0133 6 3.4268)">
	</image>
</g>
<g id="Capa_6">
	<g>
		<polygon fill="#FFFFFF" points="7.308,5.048 10.009,2.391 11.176,3.558 7.308,7.427 6.717,6.837 		"/>
		<path fill="#FFFFFF" d="M9.633,5.102l-0.769,0.77l7.083,7.084c0.257-0.256,0.513-0.513,0.77-0.769L9.633,5.102z"/>
		<polygon fill="#FFFFFF" points="16.692,5.048 13.991,2.391 12.824,3.558 16.692,7.427 17.283,6.837 		"/>
		<path fill="#FFFFFF" d="M14.367,5.102l0.77,0.77l-7.083,7.084c-0.257-0.256-0.513-0.513-0.77-0.769L14.367,5.102z"/>
	</g>
</g>
<g id="Puesto_de_control" display="none">
	<path display="inline" fill="#009CDF" d="M21.588,7.989c-0.086,4.781-4.031,8.592-8.817,8.507c-4.785-0.089-8.592-4.037-8.506-8.82
		c0.084-4.787,4.03-8.591,8.816-8.508C17.864-0.745,21.674,3.205,21.588,7.989"/>
	<path display="inline" fill="#009CDF" d="M13.813,32.666c0.729-6.623,4.284-9.701,8.194-12.965c3.473-2.688,5.743-6.868,5.826-11.6
		c0.151-8.284-6.445-15.122-14.728-15.27"/>
	<path display="inline" fill="#009CDF" d="M13.105-7.168C4.823-7.32-2.016-0.723-2.162,7.561c-0.083,4.612,1.922,8.769,5.146,11.58
		l-0.028,0.007c3.881,3.491,7.472,6.693,7.963,13.505"/>
	<path display="inline" fill="#009CDF" d="M12.738,18.193C7.016,18.09,2.459,13.366,2.563,7.647
		C2.667,1.924,7.393-2.63,13.109-2.528c5.724,0.105,10.28,4.827,10.178,10.547C23.182,13.738,18.461,18.299,12.738,18.193"/>
	<path display="inline" fill="#F5F5F5" d="M13.94,7.9c-0.271-0.077-0.553,0.079-0.631,0.349L12.856,9.82l-0.016-0.09
		C12.763,9.3,12.538,8.935,12.23,8.678l-0.75-4.17c-0.047-0.262-0.297-0.435-0.558-0.388l-0.057,0.01
		c-0.261,0.047-0.435,0.297-0.388,0.558l0.647,3.597c-0.075,0.001-0.15,0.009-0.226,0.021l-0.697-3.873
		c-0.047-0.262-0.297-0.436-0.558-0.388l-0.057,0.01C9.325,4.103,9.151,4.353,9.198,4.614l0.696,3.87l-0.223,0.04L9.054,5.088
		C9.007,4.827,8.757,4.653,8.496,4.7L8.439,4.71C8.178,4.758,8.004,5.007,8.051,5.269l0.624,3.466
		C8.589,8.768,8.508,8.808,8.43,8.854L7.925,6.046c-0.046-0.257-0.292-0.428-0.55-0.382s-0.428,0.292-0.382,0.55l0.659,3.662
		c-0.07,0.25-0.088,0.521-0.038,0.795l0.345,1.914c0.171,0.95,1.058,1.586,1.982,1.42l1.882-0.339
		c0.465-0.083,0.851-0.354,1.098-0.725c0.078-0.063,0.14-0.15,0.17-0.255l1.199-4.159C14.367,8.258,14.211,7.977,13.94,7.9"/>
	<path display="inline" fill="#F5F5F5" d="M17.527,3.919V3.433h0.103l0.16-0.878c0,0-0.614-0.068-1.173-0.189
		c-0.135-0.029-0.268-0.062-0.386-0.096c-0.153-0.045-0.305-0.103-0.445-0.164c-0.424-0.184-0.753-0.398-0.753-0.398
		s-0.303,0.192-0.861,0.422c-0.11,0.045-0.23,0.092-0.36,0.14c-0.138,0.05-0.275,0.092-0.408,0.129
		c-0.633,0.173-1.176,0.208-1.176,0.208l0.236,0.827h0.182v0.487h0.002c-0.166,0.349-0.261,0.738-0.261,1.15
		c0,1.489,1.207,2.695,2.695,2.695s2.695-1.207,2.695-2.695c0-0.412-0.095-0.801-0.261-1.15H17.527z M15.057,5.056
		c-1.299,0-2.353-0.444-2.353-0.992c0-0.028,0.005-0.055,0.01-0.082h0.01c0.663,0.11,1.467,0.175,2.333,0.175
		s1.669-0.064,2.333-0.175h0.009c0.005,0.027,0.01,0.054,0.01,0.082C17.408,4.612,16.355,5.056,15.057,5.056"/>
</g>
<g id="Central_electrica" display="none">
	
		<image display="inline" overflow="visible" width="800" height="800" xlink:href="../../../Macarena/SIMBOLOS/iconos-de-la-energía-geotérmica-fijados-94607156.jpg"  transform="matrix(0.0625 0 0 0.0625 -11.9995 -12)">
	</image>
</g>
</svg>
