<?xml version="1.0" encoding="utf-8"?>
<!-- Generator: Adobe Illustrator 16.0.0, SVG Export Plug-In . SVG Version: 6.00 Build 0)  -->
<!DOCTYPE svg PUBLIC "-//W3C//DTD SVG 1.1//EN" "http://www.w3.org/Graphics/SVG/1.1/DTD/svg11.dtd">
<svg version="1.1" xmlns="http://www.w3.org/2000/svg" xmlns:xlink="http://www.w3.org/1999/xlink" x="0px" y="0px" width="24px"
	 height="24px" viewBox="0 0 24 24" enable-background="new 0 0 24 24" xml:space="preserve">
<g id="Capa_1">
	<g id="Capa_1_1_">
		<path fill="#20547E" d="M12.141,0.051C7.813-0.029,4.24,3.418,4.164,7.748c-0.043,2.41,1.004,4.581,2.689,6.049l-0.015,0.004
			c2.028,1.824,3.904,3.497,4.161,7.057c-1.264,0.166-2.203,0.746-2.216,1.465c-0.013,0.867,1.318,1.599,2.976,1.629
			c1.658,0.027,3.015-0.653,3.031-1.52c0.015-0.742-0.961-1.379-2.278-1.564c0.381-3.463,2.237-5.069,4.28-6.774
			c1.815-1.405,3.002-3.589,3.045-6.062C19.915,3.701,16.468,0.128,12.141,0.051"/>
	</g>
</g>
<g id="Puerto" display="none">
	
		<image display="inline" overflow="visible" width="900" height="900" xlink:href="D58D6F75.jpg"  transform="matrix(0.0333 0 0 0.0333 -2 -2)">
	</image>
</g>
<g id="Mina" display="none">
	
		<image display="inline" overflow="visible" width="900" height="600" xlink:href="D58D6F77.jpg"  transform="matrix(0.0133 0 0 0.0133 6 3.4268)">
	</image>
</g>
<g id="Institucion_penitenciaria" display="none">
	
		<image display="inline" overflow="visible" width="900" height="520" xlink:href="D58D6F72.jpg"  transform="matrix(0.0333 0 0 0.0333 -2 1.3335)">
	</image>
</g>
<g id="Instalacion_militar" display="none">
	
		<image display="inline" overflow="visible" width="320" height="157" xlink:href="D58D6F73.jpg"  transform="matrix(0.0938 0 0 0.0938 -2 3.1406)">
	</image>
</g>
<g id="Puesto_de_control">
	<g>
		<path fill="#FFFFFF" d="M13.344,7.9c-0.271-0.077-0.553,0.079-0.631,0.349L12.26,9.82l-0.016-0.09
			c-0.078-0.431-0.303-0.796-0.611-1.052l-0.75-4.17c-0.047-0.262-0.297-0.435-0.558-0.388l-0.057,0.01
			C10.006,4.177,9.833,4.427,9.88,4.688l0.647,3.597c-0.075,0.001-0.15,0.009-0.226,0.021L9.604,4.434
			C9.558,4.172,9.308,3.998,9.046,4.045L8.99,4.056C8.728,4.103,8.555,4.353,8.602,4.614l0.696,3.87l-0.223,0.04L8.458,5.088
			C8.411,4.827,8.16,4.653,7.899,4.7L7.842,4.71C7.581,4.758,7.407,5.007,7.454,5.269l0.624,3.466
			C7.992,8.768,7.911,8.808,7.833,8.854L7.328,6.046c-0.046-0.257-0.292-0.428-0.55-0.382S6.35,5.957,6.396,6.214l0.659,3.662
			c-0.07,0.25-0.088,0.521-0.038,0.795l0.345,1.914c0.171,0.95,1.058,1.586,1.982,1.42l1.882-0.339
			c0.465-0.083,0.851-0.354,1.098-0.725c0.078-0.063,0.14-0.15,0.17-0.255l1.199-4.159C13.771,8.258,13.614,7.977,13.344,7.9"/>
		<path fill="#FFFFFF" d="M11.468,5.5l0.013,0.005c0.838,0.479,1.891,0.968,3.059,1.4c1.147,0.425,2.328,0.767,3.181,0.918
			c0.089-0.007,0.14,0.006,0.274-0.017l0.239-0.645l0.138,0.051l0.655-1.104c0,0-0.795-0.398-1.488-0.84
			c-0.167-0.107-0.331-0.217-0.472-0.322c-0.185-0.138-0.359-0.292-0.519-0.444c-0.48-0.459-0.817-0.913-0.817-0.913
			s-0.504,0.108-1.372,0.14c-0.171,0.006-0.356,0.009-0.556,0.008c-0.21-0.001-0.417-0.013-0.614-0.029
			c-0.941-0.083-1.691-0.308-1.691-0.308l-0.095,1.232l0.245,0.09L11.406,5.38l0.003,0.001C11.397,5.394,11.466,5.504,11.468,5.5z"
			/>
	</g>
</g>
<g id="Central_electrica" display="none">
	
		<image display="inline" overflow="visible" width="800" height="800" xlink:href="../../../Macarena/SIMBOLOS/iconos-de-la-energía-geotérmica-fijados-94607156.jpg"  transform="matrix(0.0625 0 0 0.0625 -11.9995 -12)">
	</image>
</g>
</svg>
