<?xml version="1.0" encoding="utf-8"?>
<!-- Generator: Adobe Illustrator 17.0.0, SVG Export Plug-In . SVG Version: 6.00 Build 0)  -->
<!DOCTYPE svg PUBLIC "-//W3C//DTD SVG 1.1//EN" "http://www.w3.org/Graphics/SVG/1.1/DTD/svg11.dtd">
<svg version="1.1" id="Layer_1" xmlns="http://www.w3.org/2000/svg" xmlns:xlink="http://www.w3.org/1999/xlink" x="0px" y="0px"
	 width="16px" height="16px" viewBox="0 0 16 16" enable-background="new 0 0 16 16" xml:space="preserve" fill="#105C97">
<g>
	<path d="M13.18,13.53c-1.24,0-2.33-0.51-3.08-1.32l-1.58,0.72c-0.23,0.1-0.48,0.15-0.73,0.15s-0.49-0.05-0.72-0.15L2.15,10.7
		l-1.77,0.8c-0.51,0.23-0.51,0.99,0,1.22l7.09,3.21c0.2,0.09,0.44,0.09,0.65,0l5.33-2.41C13.36,13.53,13.27,13.53,13.18,13.53z
		 M9,9.43V4.78l-0.88-0.4c-0.21-0.1-0.45-0.1-0.65,0L0.38,7.59c-0.51,0.23-0.51,0.99,0,1.22l7.09,3.22c0.2,0.09,0.44,0.09,0.65,0
		l1.39-0.63C9.18,10.81,9,10.14,9,9.43z"/>
</g>
<path d="M8.719,3.281"/>
<g>
	<path d="M12.877,4.096C14.614,4.097,15.995,5.502,16,7.209c0,0.003,0,0.007,0,0.011v1.953c0,1.722-1.401,3.123-3.123,3.123
		c-1.722,0-3.124-1.401-3.123-3.123V8.094c0-0.286,0.341-0.437,0.551-0.242c0.267,0.248,0.572,0.461,0.907,0.625
		c0.113,0.056,0.186,0.17,0.186,0.296v0.38c0,0.814,0.65,1.49,1.465,1.498c0.822,0.008,1.494-0.659,1.494-1.479l0-1.953
		c0-0.819-0.664-1.48-1.48-1.48c-0.107,0-0.203,0.013-0.275,0.026c-0.102,0.019-0.208-0.011-0.284-0.082
		c-0.159-0.148-0.263-0.36-0.263-0.603l0-0.612c0-0.16,0.116-0.296,0.274-0.324C12.509,4.112,12.693,4.096,12.877,4.096z M12.876,0
		c-1.722,0-3.123,1.401-3.123,3.123v1.953c0,0.003,0,0.007,0,0.011c0.005,1.707,1.386,3.112,3.123,3.113
		c0.184,0,0.367-0.016,0.548-0.048c0.158-0.028,0.274-0.164,0.274-0.324l0-0.612c0-0.243-0.104-0.455-0.263-0.603
		c-0.076-0.071-0.182-0.101-0.284-0.082c-0.071,0.013-0.167,0.026-0.275,0.026c-0.816,0-1.48-0.66-1.48-1.48l0-1.953
		c0-0.821,0.672-1.487,1.494-1.479c0.814,0.008,1.465,0.684,1.465,1.498v0.38c0,0.126,0.073,0.241,0.186,0.296
		c0.335,0.165,0.64,0.377,0.907,0.625C15.659,4.639,16,4.488,16,4.202V3.123C16,1.401,14.599,0,12.876,0z"/>
</g>
</svg>
