<svg xmlns="http://www.w3.org/2000/svg" xml:space="preserve" width="16" height="16" fill="#105C97" viewBox="0 0 16 16"><path d="M13.18 13.53c-1.24 0-2.33-.51-3.08-1.32l-1.58.72a1.84 1.84 0 0 1-1.45 0L2.15 10.7l-1.77.8c-.51.23-.51.99 0 1.22l7.09 3.21c.2.09.44.09.65 0l5.33-2.41c-.09.01-.18.01-.27.01M9 9.43V4.78l-.88-.4c-.21-.1-.45-.1-.65 0L.38 7.59c-.51.23-.51.99 0 1.22l7.09 3.22c.2.09.44.09.65 0l1.39-.63C9.18 10.81 9 10.14 9 9.43m3.877-5.334A3.12 3.12 0 0 1 16 7.209v1.964a3.127 3.127 0 0 1-3.123 3.123 3.126 3.126 0 0 1-3.123-3.123V8.094c0-.286.341-.437.551-.242.267.248.572.461.907.625.113.056.186.17.186.296v.38c0 .814.65 1.49 1.465 1.498a1.48 1.48 0 0 0 1.494-1.479V7.219a1.48 1.48 0 0 0-1.755-1.454.33.33 0 0 1-.284-.082.82.82 0 0 1-.263-.603v-.612a.33.33 0 0 1 .274-.324q.271-.048.548-.048M12.876 0a3.127 3.127 0 0 0-3.123 3.123v1.964a3.122 3.122 0 0 0 3.671 3.065.33.33 0 0 0 .274-.324v-.612a.82.82 0 0 0-.263-.603.33.33 0 0 0-.284-.082 1.48 1.48 0 0 1-1.755-1.454V3.124a1.48 1.48 0 0 1 1.494-1.479 1.49 1.49 0 0 1 1.465 1.498v.38a.33.33 0 0 0 .186.296c.335.165.64.377.907.625A.329.329 0 0 0 16 4.202V3.123A3.127 3.127 0 0 0 12.876 0"/></svg>