<?xml version="1.0" encoding="utf-8"?>
<!-- Generator: Adobe Illustrator 16.0.0, SVG Export Plug-In . SVG Version: 6.00 Build 0)  -->
<!DOCTYPE svg PUBLIC "-//W3C//DTD SVG 1.1//EN" "http://www.w3.org/Graphics/SVG/1.1/DTD/svg11.dtd">
<svg version="1.1" id="Capa_1" xmlns="http://www.w3.org/2000/svg" xmlns:xlink="http://www.w3.org/1999/xlink" x="0px" y="0px"
	 width="24px" height="24px" viewBox="0 0 24 24" enable-background="new 0 0 24 24" xml:space="preserve">
<g id="Capa_1_2_">
	<g id="Capa_1_1_">
		<path fill="#F3DB82" d="M12.141,0.051C7.813-0.029,4.24,3.418,4.164,7.748c-0.043,2.41,1.004,4.581,2.689,6.049l-0.015,0.004
			c2.028,1.824,3.904,3.497,4.161,7.057c-1.264,0.166-2.203,0.746-2.216,1.465c-0.013,0.867,1.318,1.6,2.976,1.63
			c1.658,0.026,3.015-0.653,3.031-1.521c0.015-0.742-0.961-1.379-2.278-1.563c0.381-3.464,2.237-5.069,4.28-6.774
			c1.815-1.404,3.002-3.589,3.045-6.062C19.915,3.701,16.468,0.128,12.141,0.051"/>
	</g>
</g>
<g id="Institucion_penitenciaria" display="none">
	
		<image display="inline" overflow="visible" enable-background="new    " width="930" height="570" xlink:href="319B4F3A.jpg"  transform="matrix(0.0317 0 0 0.0317 -1.77 0.9478)">
	</image>
</g>
<g id="Instalacion_militar" display="none">
	
		<image display="inline" overflow="visible" enable-background="new    " width="331" height="171" xlink:href="319B4F3E.jpg"  transform="matrix(0.0897 0 0 0.0897 -1.8442 2.8315)">
	</image>
</g>
<g id="Central_electrica" display="none">
	
		<image display="inline" overflow="visible" enable-background="new    " width="800" height="800" xlink:href="../../../Macarena/SIMBOLOS/iconos-de-la-energía-geotérmica-fijados-94607156.jpg"  transform="matrix(0.0625 0 0 0.0625 -11.9995 -11.9995)">
	</image>
</g>
<g>
	<polygon fill="#FFFFFF" points="11.392,3.549 14.25,3.549 12.551,6.698 14.115,6.698 9.75,12.512 11.256,7.683 9.75,7.683 	"/>
	
		<rect x="7.776" y="2.342" fill="none" stroke="#FFFFFF" stroke-width="0.6" stroke-miterlimit="10" width="8.447" height="11.092"/>
</g>
</svg>
