<?xml version="1.0" encoding="utf-8"?>
<!-- Generator: Adobe Illustrator 16.0.0, SVG Export Plug-In . SVG Version: 6.00 Build 0)  -->
<!DOCTYPE svg PUBLIC "-//W3C//DTD SVG 1.1//EN" "http://www.w3.org/Graphics/SVG/1.1/DTD/svg11.dtd">
<svg version="1.1" xmlns="http://www.w3.org/2000/svg" xmlns:xlink="http://www.w3.org/1999/xlink" x="0px" y="0px" width="24px"
	 height="24px" viewBox="0 0 24 24" enable-background="new 0 0 24 24" xml:space="preserve">
<g id="Capa_1">
	<path fill="#20547E" d="M12.141,0.051C7.813-0.029,4.24,3.418,4.164,7.748c-0.043,2.41,1.004,4.581,2.689,6.049l-0.015,0.004
		c2.028,1.824,3.904,3.497,4.161,7.057c-1.264,0.166-2.203,0.746-2.216,1.465c-0.013,0.867,1.318,1.598,2.976,1.628
		c1.658,0.028,3.015-0.653,3.031-1.519c0.015-0.742-0.961-1.379-2.278-1.565c0.381-3.462,2.237-5.069,4.28-6.774
		c1.815-1.406,3.002-3.589,3.045-6.062C19.915,3.701,16.468,0.128,12.141,0.051"/>
</g>
<g id="Capa_2">
	
		<path fill="none" stroke="#FFFFFF" stroke-width="0.75" stroke-linecap="round" stroke-linejoin="round" stroke-miterlimit="10" d="
		M12,14.301c0.243-0.556,1.688-0.957,1.688-0.957c1.594-0.541,2.363-1.445,2.363-1.445c1.621-1.608,0.581-3.512,0.581-3.512
		c-0.919-1.85,0.283-3.782,0.283-3.782l-1.58-1.539c0,0-1.256,1.229-3.335,0.297h0C9.92,4.295,8.664,3.066,8.664,3.066l-1.58,1.539
		c0,0,1.202,1.932,0.284,3.782c0,0-1.04,1.904,0.581,3.512c0,0,0.771,0.904,2.364,1.445C10.312,13.344,11.757,13.745,12,14.301
		L12,14.301z"/>
	<path fill="#FFFFFF" d="M10.219,7.75c0.046,0.168,0.079,0.345,0.067,0.52c-0.012,0.173-0.092,0.257-0.167,0.407
		C9.982,8.95,9.991,9.47,10.021,9.77c0.029,0.289,0.131,0.559,0.302,0.794c0.249,0.344,0.615,0.614,1.001,0.786
		c0.068,0.03,0.186,0.045,0.245,0.088c0,0-0.13-0.094-0.252-0.59c-0.123-0.497-0.367-1.765,0.021-2.269
		C11.727,8.075,12,7.989,12,7.989s-0.136,0.806,0.088,1.202c0.223,0.396,0.288,0.353,0.288,0.353s-0.014-0.288,0.065-0.497
		l0.107-0.188c0,0,0.108,0.288,0.297,0.626c0.187,0.338,0.425,0.973,0.158,1.397c-0.267,0.426-0.209,0.555-0.209,0.555
		c0.454-0.238,0.879-0.885,0.879-0.885c0.764-0.879-0.021-2.55-0.158-2.939c-0.137-0.388-0.115-0.59-0.115-0.59l-0.268,0.195
		c-0.296,0.259-0.287,0.072-0.287,0.072c-0.268-0.295-0.298-1.915-0.298-1.915c-0.478,0.255-0.865,0.576-1.18,0.917
		c0,0-0.32,0.802-0.336,1.115c-0.02,0.39-0.849-0.448-0.94-0.54C10.035,7.104,10.153,7.513,10.219,7.75z"/>
</g>
</svg>
