<?xml version="1.0" encoding="UTF-8" standalone="no"?>
<!-- Generator: Adobe Illustrator 16.0.0, SVG Export Plug-In . SVG Version: 6.00 Build 0)  -->

<svg
   xmlns:dc="http://purl.org/dc/elements/1.1/"
   xmlns:cc="http://creativecommons.org/ns#"
   xmlns:rdf="http://www.w3.org/1999/02/22-rdf-syntax-ns#"
   xmlns:svg="http://www.w3.org/2000/svg"
   xmlns="http://www.w3.org/2000/svg"
   xmlns:sodipodi="http://sodipodi.sourceforge.net/DTD/sodipodi-0.dtd"
   xmlns:inkscape="http://www.inkscape.org/namespaces/inkscape"
   version="1.1"
   id="Capa_1"
   x="0px"
   y="0px"
   width="24"
   height="24"
   viewBox="0 0 24.000001 24.000001"
   xml:space="preserve"
   sodipodi:docname="satelite.svg"
   inkscape:version="0.92.3 (2405546, 2018-03-11)"><metadata
   id="metadata41"><rdf:RDF><cc:Work
       rdf:about=""><dc:format>image/svg+xml</dc:format><dc:type
         rdf:resource="http://purl.org/dc/dcmitype/StillImage" /><dc:title></dc:title></cc:Work></rdf:RDF></metadata><defs
   id="defs39" /><sodipodi:namedview
   pagecolor="#ffffff"
   bordercolor="#666666"
   borderopacity="1"
   objecttolerance="10"
   gridtolerance="10"
   guidetolerance="10"
   inkscape:pageopacity="0"
   inkscape:pageshadow="2"
   inkscape:window-width="1366"
   inkscape:window-height="717"
   id="namedview37"
   showgrid="false"
   fit-margin-top="0"
   fit-margin-left="0"
   fit-margin-right="0"
   fit-margin-bottom="0"
   inkscape:zoom="3.6530813"
   inkscape:cx="-17.838755"
   inkscape:cy="12.000502"
   inkscape:window-x="0"
   inkscape:window-y="0"
   inkscape:window-maximized="1"
   inkscape:current-layer="Capa_1" />
<g
   id="g4"
   transform="matrix(0.37149403,0,0,0.37149403,-7.4298806e-4,0)">
	<path
   d="m 14.448,30.485 c -5.421,5.421 -5.421,14.242 0.002,19.666 5.419,5.418 14.242,5.415 19.663,-0.005 0.071,-0.068 0.129,-0.147 0.196,-0.226 l 0.925,0.929 c -0.065,0.073 -0.123,0.15 -0.196,0.229 -5.933,5.933 -15.586,5.933 -21.519,0 -5.936,-5.936 -5.936,-15.589 0,-21.522 0.072,-0.073 0.152,-0.129 0.225,-0.196 l 0.927,0.928 c -0.072,0.071 -0.148,0.124 -0.223,0.197 z m 23.695,23.693 c -7.641,7.64 -20.082,7.64 -27.722,0 -7.641,-7.642 -7.643,-20.08 0,-27.72 0.071,-0.071 0.147,-0.131 0.22,-0.201 L 9.713,25.33 c -0.071,0.069 -0.147,0.133 -0.22,0.201 -8.154,8.154 -8.151,21.422 0,29.576 8.155,8.154 21.421,8.154 29.575,0 0.066,-0.069 0.137,-0.145 0.205,-0.217 l -0.926,-0.929 c -0.073,0.068 -0.136,0.146 -0.204,0.217 z M 19.246,34.859 18.314,33.93 c -0.073,0.066 -0.15,0.123 -0.225,0.196 -3.417,3.417 -3.41,8.974 0.002,12.389 3.415,3.412 8.972,3.417 12.39,0 0.07,-0.068 0.125,-0.146 0.194,-0.224 L 29.746,45.36 c -0.067,0.075 -0.125,0.152 -0.196,0.229 -2.9,2.901 -7.625,2.901 -10.529,0 -2.904,-2.906 -2.904,-7.631 0,-10.53 0.065,-0.077 0.143,-0.136 0.225,-0.2 z m 22.925,-1.355 -3.34,3.335 -1.414,-1.414 7.947,-7.953 c 0.629,-0.626 0.511,-1.761 -0.265,-2.537 L 39.665,19.504 C 38.89,18.728 37.76,18.612 37.128,19.238 l -7.947,7.951 -1.42,-1.42 3.335,-3.336 L 8.664,0 0.002,8.661 l 22.434,22.436 3.336,-3.337 1.42,1.422 -2.411,2.414 c -0.631,0.627 -0.513,1.763 0.265,2.537 l 1.866,1.863 -3.265,3.262 -1.46,-1.46 c -0.076,0.064 -0.159,0.114 -0.236,0.192 -1.287,1.286 -1.287,3.376 0,4.667 1.292,1.286 3.38,1.286 4.667,0 0.075,-0.073 0.124,-0.155 0.189,-0.237 l -1.459,-1.458 3.265,-3.264 1.861,1.865 c 0.778,0.775 1.914,0.893 2.542,0.265 l 2.412,-2.413 1.414,1.417 -3.336,3.337 22.436,22.435 8.659,-8.661 z"
   id="path2"
   inkscape:connector-curvature="0" />
</g>
<g
   id="g6"
   transform="matrix(0.37149403,0,0,0.37149403,-7.4298806e-4,0)">
</g>
<g
   id="g8"
   transform="matrix(0.37149403,0,0,0.37149403,-7.4298806e-4,0)">
</g>
<g
   id="g10"
   transform="matrix(0.37149403,0,0,0.37149403,-7.4298806e-4,0)">
</g>
<g
   id="g12"
   transform="matrix(0.37149403,0,0,0.37149403,-7.4298806e-4,0)">
</g>
<g
   id="g14"
   transform="matrix(0.37149403,0,0,0.37149403,-7.4298806e-4,0)">
</g>
<g
   id="g16"
   transform="matrix(0.37149403,0,0,0.37149403,-7.4298806e-4,0)">
</g>
<g
   id="g18"
   transform="matrix(0.37149403,0,0,0.37149403,-7.4298806e-4,0)">
</g>
<g
   id="g20"
   transform="matrix(0.37149403,0,0,0.37149403,-7.4298806e-4,0)">
</g>
<g
   id="g22"
   transform="matrix(0.37149403,0,0,0.37149403,-7.4298806e-4,0)">
</g>
<g
   id="g24"
   transform="matrix(0.37149403,0,0,0.37149403,-7.4298806e-4,0)">
</g>
<g
   id="g26"
   transform="matrix(0.37149403,0,0,0.37149403,-7.4298806e-4,0)">
</g>
<g
   id="g28"
   transform="matrix(0.37149403,0,0,0.37149403,-7.4298806e-4,0)">
</g>
<g
   id="g30"
   transform="matrix(0.37149403,0,0,0.37149403,-7.4298806e-4,0)">
</g>
<g
   id="g32"
   transform="matrix(0.37149403,0,0,0.37149403,-7.4298806e-4,0)">
</g>
<g
   id="g34"
   transform="matrix(0.37149403,0,0,0.37149403,-7.4298806e-4,0)">
</g>
</svg>