<?xml version="1.0" encoding="UTF-8" standalone="no"?>
<!-- Created with Inkscape (http://www.inkscape.org/) -->

<svg
   xmlns:dc="http://purl.org/dc/elements/1.1/"
   xmlns:cc="http://creativecommons.org/ns#"
   xmlns:rdf="http://www.w3.org/1999/02/22-rdf-syntax-ns#"
   xmlns:svg="http://www.w3.org/2000/svg"
   xmlns="http://www.w3.org/2000/svg"
   xmlns:sodipodi="http://sodipodi.sourceforge.net/DTD/sodipodi-0.dtd"
   xmlns:inkscape="http://www.inkscape.org/namespaces/inkscape"
   version="1.1"
   id="svg2"
   width="192"
   height="192"
   viewBox="0 0 192 192"
   sodipodi:docname="argenmap-192.svg"
   inkscape:version="0.92.3 (2405546, 2018-03-11)"
   inkscape:export-filename="/home/gperez/ign/argenmap/logo/argenmap-512.png"
   inkscape:export-xdpi="256"
   inkscape:export-ydpi="256">
  <metadata
     id="metadata8">
    <rdf:RDF>
      <cc:Work
         rdf:about="">
        <dc:format>image/svg+xml</dc:format>
        <dc:type
           rdf:resource="http://purl.org/dc/dcmitype/StillImage" />
        <dc:title></dc:title>
      </cc:Work>
    </rdf:RDF>
  </metadata>
  <defs
     id="defs6" />
  <sodipodi:namedview
     pagecolor="#ffffff"
     bordercolor="#666666"
     borderopacity="1"
     objecttolerance="10"
     gridtolerance="10"
     guidetolerance="10"
     inkscape:pageopacity="0"
     inkscape:pageshadow="2"
     inkscape:window-width="1366"
     inkscape:window-height="717"
     id="namedview4"
     showgrid="false"
     inkscape:zoom="2.7552082"
     inkscape:cx="112.69566"
     inkscape:cy="96.000004"
     inkscape:window-x="0"
     inkscape:window-y="0"
     inkscape:window-maximized="1"
     inkscape:current-layer="g833"
     fit-margin-top="0"
     fit-margin-left="0"
     fit-margin-right="0"
     fit-margin-bottom="0" />
  <g
     id="g833"
     transform="translate(-327.46682,-279.93443)">
    <path
       style="fill:#f49705;stroke-width:0.29168308"
       d="m 419.2249,371.55582 c -5.00495,-1.10036 -9.87763,-3.47762 -13.2482,-7.42769 -3.56082,-3.53745 -5.56194,-8.40364 -6.21131,-13.32572 -0.085,-4.07828 -0.0582,-8.37771 1.87706,-12.0845 1.13021,-2.60892 2.50375,-5.13477 4.57064,-7.12541 3.57309,-3.48716 8.18757,-6.05236 13.11369,-6.96448 4.2323,-0.19734 8.65871,-0.43423 12.63714,1.30997 3.5541,1.38453 6.7514,3.65165 9.39431,6.38364 3.39489,4.65163 6.10509,10.22897 5.81336,16.13373 -0.0838,10.32856 -7.62215,20.17422 -17.71881,22.59902 -3.34278,0.67695 -6.83726,0.93978 -10.22788,0.50144 z"
       id="path837"
       inkscape:connector-curvature="0"
       inkscape:export-xdpi="180"
       inkscape:export-ydpi="180" />
    <path
       style="fill:#3074ba;stroke-width:0.29168308"
       d="m 423.74527,279.95482 c -33.65451,-0.88338 -65.12476,27.05947 -67.98239,60.66177 -2.25639,20.22745 5.14206,40.99999 19.11386,55.69462 9.98472,13.83319 21.74188,26.42877 30.89861,40.8211 6.06802,11.60071 12.13604,23.20142 18.20406,34.80213 7.39428,-13.12705 13.41082,-27.09543 21.71611,-39.66771 12.22731,-16.58548 24.86328,-32.89594 36.69946,-49.75343 16.18127,-26.87088 10.49854,-64.66762 -13.38762,-85.19175 -12.30393,-11.0296 -28.72435,-17.39359 -45.26209,-17.36673 z m -0.48082,24.53617 c 25.1513,-0.96474 47.59081,23.88241 43.56573,48.86422 -2.35958,16.05441 -13.27357,31.61669 -28.77154,37.27265 -16.09572,4.91736 -35.66129,0.88687 -46.84926,-12.13184 -9.02001,-12.01359 -14.67751,-28.06126 -9.53516,-42.85946 5.00099,-18.01259 23.01247,-31.15629 41.59023,-31.14557 z"
       id="path835"
       inkscape:connector-curvature="0"
       inkscape:export-xdpi="180"
       inkscape:export-ydpi="180" />
    <path
       style="opacity:0.98999999;fill:#ffffff;fill-opacity:1;fill-rule:nonzero;stroke:#ffffff;stroke-width:0;stroke-linecap:square;stroke-linejoin:miter;stroke-miterlimit:4;stroke-dasharray:none;stroke-opacity:0.99215686;paint-order:markers stroke fill"
       d="m 417.62736,392.0173 c -3.95922,-0.59214 -5.72143,-1.0081 -8.93851,-2.10986 -5.59713,-1.91687 -11.18393,-5.28638 -15.07129,-9.0898 -5.86489,-5.73825 -11.55662,-17.12721 -13.1581,-26.32892 -2.29044,-13.16026 2.319,-27.12616 12.17764,-36.89644 7.91246,-7.84155 18.04984,-12.31439 29.25674,-12.90875 13.93209,-0.73889 27.58818,5.95804 36.58534,17.94141 2.45597,3.27112 5.94382,10.28894 7.02728,14.13943 1.16077,4.1252 1.76908,9.51787 1.47025,13.03375 -1.72134,20.25253 -15.93977,38.15837 -33.08124,41.66055 -4.74342,0.96913 -11.88391,1.21433 -16.26811,0.55863 z m 11.39515,-20.76324 c 4.14909,-0.87905 7.49,-2.78244 10.97235,-6.25118 3.37367,-3.36047 5.10845,-6.24053 6.35878,-10.55671 1.91288,-6.60329 1.06865,-12.41859 -2.74838,-18.93189 -4.62831,-7.89764 -14.20829,-12.3118 -23.78334,-10.95863 -7.22665,1.02129 -14.04882,5.76589 -17.27391,12.01342 -1.95725,3.79153 -2.60349,6.09823 -2.8619,10.21539 -0.68788,10.96 6.06213,20.65974 16.7965,24.1365 3.10047,1.00422 8.67351,1.15225 12.5399,0.3331 z"
       id="path814"
       inkscape:connector-curvature="0"
       inkscape:export-xdpi="180"
       inkscape:export-ydpi="180" />
  </g>
</svg>
