<svg xmlns="http://www.w3.org/2000/svg" width="512" height="512" viewBox="0 0 512 512"><path d="M458.648 364.258c-13.347-2.934-26.34-9.274-35.329-19.807-9.496-9.433-14.832-22.41-16.563-35.535-.227-10.876-.156-22.34 5.005-32.226 3.014-6.957 6.677-13.692 12.188-19 9.529-9.3 21.834-16.14 34.97-18.573 11.286-.526 23.09-1.158 33.7 3.494 9.477 3.692 18.003 9.737 25.05 17.023 9.054 12.404 16.281 27.277 15.503 43.023-.223 27.543-20.326 53.798-47.25 60.264-8.914 1.805-18.233 2.506-27.274 1.337" style="fill:#f49705;stroke-width:.77782154" transform="translate(-213.96 -119.934)"/><path d="M470.702 119.989c-89.746-2.356-173.666 72.158-181.287 161.765-6.017 53.94 13.713 109.333 50.97 148.519 26.627 36.888 57.98 70.476 82.397 108.856l48.544 92.805c19.718-35.005 35.762-72.254 57.91-105.78 32.606-44.228 66.302-87.723 97.865-132.676 43.15-71.656 27.996-172.447-35.7-227.178-32.81-29.412-76.599-46.383-120.7-46.311m-1.282 65.43c67.07-2.573 126.908 63.686 116.175 130.304-6.292 42.812-35.396 84.311-76.724 99.394-42.922 13.113-95.097 2.365-124.932-32.352-24.053-32.036-39.14-74.83-25.427-114.292 13.336-48.033 61.367-83.083 110.908-83.054" style="fill:#3074ba;stroke-width:.77782154" transform="translate(-213.96 -119.934)"/><path d="M454.387 418.822c-10.557-1.579-15.257-2.688-23.836-5.626-14.925-5.112-29.823-14.097-40.19-24.24-15.64-15.302-30.817-45.672-35.088-70.21-6.108-35.094 6.184-72.337 32.474-98.39 21.1-20.911 48.133-32.839 78.018-34.424 37.152-1.97 73.568 15.888 97.56 47.844 6.55 8.723 15.85 27.437 18.74 37.705 3.095 11 4.718 25.38 3.92 34.757-4.59 54.006-42.505 101.755-88.216 111.094-12.65 2.585-31.69 3.239-43.382 1.49zm30.387-55.369c11.065-2.344 19.974-7.42 29.26-16.67 8.997-8.96 13.623-16.64 16.957-28.15 5.1-17.61 2.85-33.117-7.33-50.486-12.341-21.06-37.888-32.831-63.421-29.223-19.271 2.724-37.464 15.376-46.064 32.036-5.22 10.11-6.943 16.262-7.632 27.241-1.834 29.227 16.166 55.093 44.79 64.364 8.269 2.678 23.13 3.073 33.44.888z" style="opacity:.98999999;fill:#fff;fill-opacity:1;fill-rule:nonzero;stroke:#fff;stroke-width:0;stroke-linecap:square;stroke-linejoin:miter;stroke-miterlimit:4;stroke-dasharray:none;stroke-opacity:.99215686;paint-order:markers stroke fill" transform="translate(-213.96 -119.934)"/></svg>