<svg id="Layer_1" data-name="Layer 1" xmlns="http://www.w3.org/2000/svg" viewBox="0 0 122.88 78.87"><defs><style>.cls-1{fill-rule:evenodd;}</style></defs><title>mountains</title><path class="cls-1" d="M90.4,28.29l.08.24.22.62.08.24L91,30l.08.24.19.56.08.23.18.53.08.23.17.5.08.23L92,33l.07.23.15.44.08.23.14.4.08.23.13.38.08.22.12.35.07.22L93,36l.07.21.11.31.07.21.1.29.07.2.09.26.07.2.09.25.07.19.08.23.06.18.07.21.06.18.07.2.06.17.07.18,0,.17.06.16.06.16,0,.15,0,.16,0,.14.05.15,0,.12,0,.15,0,.11,0,.14,0,.1,0,.13,0,.1,0,.12,0,.09,0,.12,0,.08,0,.11,0,.07,0,.1,0,.07,0,.1,0,.06,0,.09v.06l0,.09,0,0,0,.08v0l0,.09,0,.11v.25h0l0,.18v.5h0V44h0v.08h0v.29h0v.35h0v.13h0v.13h0v.15h0v.16h0v.17h0v.18h0V46h0v.22h0v.24c.07,5,6.36,11,5.2,14.44s4.68,9.9,6.56,14.71H98.63a3.31,3.31,0,0,0-.6-1.91L79.93,44.76l3-4.85,3.65-3.66,3.69-8.1h0l.08.14ZM92.19,27l30.28,48.39a2.17,2.17,0,0,1,.41,1.28,2.21,2.21,0,0,1-2.21,2.21H3.28A3.28,3.28,0,0,1,.53,73.79L47.26,1.66A3.16,3.16,0,0,1,48.37.5,3.29,3.29,0,0,1,52.9,1.55L78.46,42.41l10-15.35a2.07,2.07,0,0,1,.75-.78,2.2,2.2,0,0,1,3,.71ZM52.44,75.58H3.9L14.33,61.79l16-28L39.47,23.2l4.65-10.28,6-9.64h0l.12.2c.88,2.66,1.26,4.11,2,6.25.44,1.23,2.3,3.91,2.67,4.93,5.31,14.76,2.62,9.34,2.69,15.88.08,7.51,9.47,16.45,7.74,21.53-1.93,5.62,8.38,16.22,10.31,23.51Z"/></svg>