<svg xmlns="http://www.w3.org/2000/svg" width="20" height="20" viewBox="-1 -64 20 20" fill="gray"><path d="M7.438-63.883Q8.217-64 9-64q.781 0 1.563.117.507.117.82.508.273.39.234.938-.117.507-.508.82-.39.273-.937.195Q9.586-61.5 9-61.5t-1.172.078q-.547.078-.937-.195-.391-.313-.508-.82-.078-.547.234-.938.313-.39.82-.508zm-2.579 2.07q.313.43.235.938-.078.469-.508.82-.938.703-1.64 1.64-.352.43-.821.509-.508.078-.938-.235-.43-.312-.507-.82-.078-.469.234-.937.938-1.25 2.227-2.188.43-.312.898-.234.508.078.82.508zm8.282 0q.312-.43.82-.507.469-.078.937.234 1.25.938 2.188 2.227.312.43.234.898-.078.508-.508.82-.43.313-.937.235-.469-.078-.82-.508-.703-.938-1.64-1.64-.43-.352-.509-.821-.078-.508.235-.938zm4.296 5.196q.547-.04.938.234.39.313.508.82Q19-54.78 19-54q0 .781-.117 1.563-.117.507-.508.82-.39.273-.938.234-.507-.117-.82-.508-.273-.43-.195-.937.078-.586.078-1.172 0-.625-.078-1.172-.078-.547.195-.937.313-.391.82-.508zm-16.875 0q.508.117.82.508.274.39.196.937Q1.5-54.586 1.5-54t.078 1.172q.078.547-.195.937-.313.391-.82.508-.547.078-.938-.234-.39-.313-.508-.82Q-1-53.22-1-54q0-.781.117-1.563.117-.507.508-.82.39-.273.938-.234zm.625 6.758q.43-.313.938-.235.469.078.82.508.703.938 1.64 1.64.43.352.509.821.078.508-.235.938-.312.43-.82.507-.469.078-.937-.234-1.25-.938-2.188-2.227-.312-.43-.234-.898.078-.508.508-.82zm15.626 0q.43.312.507.82.078.469-.234.937-.938 1.25-2.227 2.188-.43.312-.898.234-.508-.078-.82-.508-.313-.43-.235-.937.078-.469.508-.82.938-.703 1.64-1.64.313-.43.821-.509.508-.078.937.235zM6.421-45.562h-.04q.118-.508.509-.82.39-.274.937-.196.586.078 1.172.078t1.172-.078q.547-.078.937.195.391.313.508.82.078.547-.234.938-.313.39-.82.508Q9.78-44 9-44q-.781 0-1.563-.117-.507-.117-.82-.508-.273-.39-.195-.938zm-.547-11.563q.547 0 .898.352.352.351.352.898t-.352.898q-.351.352-.898.352-.508 0-.86-.352-.35-.351-.39-.898.04-.547.39-.898.352-.352.86-.352zm6.25 0q.547 0 .898.352.352.351.352.898t-.352.898q-.351.352-.898.352-.508 0-.86-.352-.35-.351-.39-.898.04-.547.39-.898.352-.352.86-.352zm-5.938 5.938h5.625q.86.078.938.937-.078.86-.938.938H6.189q-.86-.079-.938-.938.078-.86.938-.938z"/></svg>