<svg fill="#FFF" version="1.1" id="Capa_1" xmlns="http://www.w3.org/2000/svg" xmlns:xlink="http://www.w3.org/1999/xlink" 
	width="24px" height="24px" viewBox="0 0 41.124 41.123"
	xml:space="preserve">
<g>
	<g>
		<path d="M3.822,24.852c0.304,1.192,0.747,2.373,1.32,3.521c0.185,0.366,0.367,0.705,0.55,1.021l-0.7,0.701
			c-0.54,0.539-0.824,1.291-0.781,1.982c-0.018,0.746,0.26,1.443,0.781,1.965l2.155,2.156c1.019,1.02,2.796,1.02,3.816,0
			l0.744-0.743c1.44,0.86,2.992,1.502,4.632,1.913v1.057c0,1.488,1.21,2.699,2.698,2.699h3.049c1.488,0,2.697-1.211,2.697-2.699
			v-1.047c1.631-0.408,3.186-1.054,4.635-1.923l0.742,0.741c1.019,1.021,2.797,1.021,3.814,0.001l2.156-2.155
			c0.521-0.521,0.798-1.218,0.779-1.884c0.045-0.771-0.238-1.522-0.778-2.065l-0.7-0.699c0.184-0.314,0.366-0.652,0.552-1.021
			c0.578-1.147,1.022-2.329,1.326-3.521h1.048c0.721,0,1.399-0.281,1.909-0.791c0.511-0.512,0.79-1.188,0.789-1.908v-3.181
			c0.001-0.721-0.278-1.397-0.789-1.908c-0.51-0.51-1.188-0.791-1.91-0.791h-1.048c-0.305-1.192-0.749-2.374-1.327-3.521
			c-0.185-0.365-0.366-0.704-0.551-1.021l0.701-0.7c0.538-0.54,0.821-1.293,0.778-1.984c0.019-0.745-0.26-1.442-0.779-1.964
			l-2.156-2.155c-1.02-1.02-2.799-1.019-3.814-0.001l-0.744,0.743c-1.45-0.87-3.004-1.515-4.633-1.923V2.697
			C24.784,1.21,23.573,0,22.084,0h-3.048c-1.487,0-2.698,1.21-2.698,2.697v1.057c-1.64,0.411-3.192,1.053-4.633,1.914l-0.743-0.743
			c-1.02-1.02-2.798-1.02-3.815,0L4.99,7.081c-0.52,0.522-0.796,1.22-0.778,1.883c-0.044,0.774,0.24,1.527,0.78,2.065l0.7,0.7
			c-0.185,0.318-0.367,0.657-0.551,1.023c-0.573,1.144-1.015,2.324-1.319,3.52H2.765c-0.721,0-1.398,0.28-1.908,0.79
			c-0.51,0.511-0.791,1.188-0.79,1.908v3.18c0,0.722,0.28,1.398,0.79,1.91c0.51,0.51,1.188,0.791,1.908,0.791H3.822z M20.619,30.331
			c-3.936,0-7.446-2.237-9.12-5.759l1.106-1.021c0.153-0.142,0.258-0.326,0.3-0.529c0.353-1.691,0.466-2.537,0.483-2.994
			c0.232-0.195,0.677-0.505,1.082-0.747c0.206-0.123,0.361-0.315,0.436-0.543c0.146-0.438,0.312-0.911,0.473-1.351
			c0.27-0.733,0.527-1.371,0.658-1.592c0.211-0.214,0.326-0.502,0.319-0.81c-0.006-0.305-0.019-0.869-1.752-2.11l-0.434-0.431
			c1.81-1.513,4.057-2.333,6.448-2.333c1.285,0,2.537,0.242,3.73,0.722l-0.02,0.069l-3.016,0.638
			c-0.539,0.114-0.884,0.643-0.772,1.182c0.206,0.994,0.319,2.134,0.27,2.606c-0.806,0.478-2.037,1.535-2.433,1.882
			c-0.074,0.064-0.138,0.14-0.19,0.224l-1.128,1.808c-0.142,0.228-0.187,0.502-0.124,0.763c0.063,0.261,0.228,0.485,0.458,0.624
			c0.73,0.438,1.494,0.978,1.787,1.25c0.047,0.92,0.216,3.668,0.542,4.32c0.188,0.378,0.568,0.612,0.991,0.612l0,0
			c1.192,0,2.915-2.606,2.917-2.609c0.113-0.189,1.123-1.669,2.096-3.08l1.859-0.37c0.184-0.036,0.353-0.123,0.49-0.251
			c0.424-0.398,0.998-0.936,1.111-1.504c0.174-0.231,0.531-0.652,0.905-1.063l0.341-0.107c0.195,0.791,0.295,1.593,0.295,2.396
			C30.729,25.796,26.193,30.331,20.619,30.331z M10.775,22.518c-0.178-0.752-0.268-1.521-0.268-2.296
			c0-2.322,0.797-4.552,2.259-6.353l0.486,0.483c0.039,0.038,0.082,0.074,0.127,0.106c0.274,0.194,0.568,0.429,0.781,0.618
			c-0.236,0.48-0.563,1.287-1.035,2.681c-1.399,0.876-1.891,1.501-1.733,2.198c-0.01,0.329-0.19,1.392-0.381,2.346L10.775,22.518z
			 M26.163,11.78c1.554,1.026,2.811,2.477,3.604,4.158l-0.529,0.166c-0.166,0.053-0.313,0.146-0.433,0.273
			c-0.91,0.98-1.483,1.623-1.615,2.168c-0.073,0.084-0.175,0.192-0.282,0.301l-1.968,0.392c-0.255,0.051-0.479,0.198-0.628,0.413
			c-1.52,2.203-2.337,3.408-2.404,3.539c-0.086,0.133-0.313,0.42-0.57,0.723c-0.094-0.941-0.17-2.027-0.17-2.336
			c0-0.357,0-0.875-1.881-2.123l0.521-0.835c0.803-0.694,1.813-1.486,2.12-1.623c0.387-0.171,1.247-0.552,0.754-3.7l2.661-0.563
			c0.366-0.078,0.659-0.354,0.758-0.716L26.163,11.78z"/>
	</g>
</g>
</svg>