<?xml version="1.0" encoding="utf-8"?>
<!-- Generator: Adobe Illustrator 16.0.0, SVG Export Plug-In . SVG Version: 6.00 Build 0)  -->
<!DOCTYPE svg PUBLIC "-//W3C//DTD SVG 1.1//EN" "http://www.w3.org/Graphics/SVG/1.1/DTD/svg11.dtd">
<svg version="1.1" id="Capa_1" xmlns="http://www.w3.org/2000/svg" xmlns:xlink="http://www.w3.org/1999/xlink" x="0px" y="0px"
	 width="300px" height="59px" viewBox="0 0 300 59" enable-background="new 0 0 300 59" xml:space="preserve">
<g>
	<g>
		<g>
			<path fill="#FFFFFF" d="M59.044,34.775l-1.224-3.751c-0.042-0.131-0.163-0.215-0.299-0.215h-5.223
				c-0.135,0-0.256,0.084-0.298,0.215l-1.224,3.751c-0.041,0.129-0.161,0.219-0.297,0.219h-1.91c-0.215,0-0.366-0.211-0.298-0.415
				l4.682-13.912c0.044-0.127,0.163-0.214,0.296-0.214h3.343c0.133,0,0.253,0.087,0.297,0.214l4.679,13.912
				c0.069,0.204-0.081,0.415-0.294,0.415h-1.931C59.207,34.994,59.088,34.904,59.044,34.775 M53.182,28.707h3.448
				c0.213,0,0.363-0.21,0.298-0.412l-1.728-5.281c-0.095-0.286-0.505-0.286-0.597,0.001l-1.721,5.281
				C52.818,28.497,52.969,28.707,53.182,28.707"/>
			<path fill="#FFFFFF" d="M63.486,24.276h1.537c0.156,0,0.289,0.114,0.309,0.269l0.16,1.124h0.138
				c0.314-0.503,0.728-0.883,1.244-1.138c0.511-0.255,1.078-0.384,1.692-0.384c0.192,0,0.384,0.012,0.579,0.031
				c0.158,0.018,0.276,0.157,0.276,0.315v1.705c0,0.185-0.154,0.327-0.338,0.312c-0.193-0.017-0.413-0.026-0.664-0.026
				c-0.512,0-1.015,0.105-1.508,0.315c-0.456,0.192-0.822,0.461-1.096,0.804c-0.047,0.059-0.068,0.13-0.068,0.203v6.873
				c0,0.171-0.141,0.314-0.313,0.314h-1.948c-0.174,0-0.313-0.144-0.313-0.314V24.588C63.173,24.414,63.312,24.276,63.486,24.276"/>
			<path fill="#FFFFFF" d="M72.539,39.397c-0.512-0.065-0.996-0.154-1.453-0.275c-0.14-0.036-0.233-0.163-0.233-0.308v-1.392
				c0-0.206,0.197-0.351,0.394-0.302c1.003,0.259,1.955,0.386,2.858,0.386c0.733,0,1.33-0.094,1.789-0.278
				c0.458-0.188,0.796-0.486,1.017-0.901c0.218-0.41,0.328-0.954,0.328-1.629v-0.844h-0.128c-0.332,0.385-0.741,0.685-1.221,0.903
				c-0.482,0.214-1.024,0.323-1.627,0.323c-0.767,0-1.46-0.185-2.083-0.554c-0.623-0.373-1.12-0.948-1.492-1.729
				c-0.375-0.786-0.561-1.765-0.561-2.943c0-1.888,0.491-3.314,1.474-4.284c0.981-0.97,2.443-1.457,4.381-1.463
				c0.641,0,1.306,0.049,1.995,0.147c0.596,0.085,1.134,0.2,1.617,0.345c0.133,0.038,0.22,0.162,0.22,0.301v9.334
				c0,1.238-0.202,2.245-0.604,3.023c-0.403,0.773-1.011,1.343-1.823,1.706c-0.811,0.365-1.844,0.546-3.094,0.546
				C73.722,39.511,73.138,39.476,72.539,39.397 M76.322,32.753c0.321-0.127,0.599-0.312,0.831-0.554
				c0.058-0.06,0.086-0.141,0.086-0.223v-5.456c0-0.152-0.107-0.287-0.256-0.314c-0.41-0.075-0.815-0.113-1.217-0.113
				c-1.017,0-1.776,0.282-2.284,0.844c-0.506,0.564-0.761,1.462-0.761,2.691c0,1.224,0.213,2.089,0.638,2.589
				c0.427,0.5,1.036,0.753,1.828,0.753C75.579,32.97,75.957,32.897,76.322,32.753"/>
			<path fill="#FFFFFF" d="M90.758,30.405h-5.98c-0.19,0-0.331,0.166-0.311,0.355c0.055,0.529,0.177,0.962,0.366,1.298
				c0.229,0.41,0.582,0.706,1.061,0.889c0.479,0.183,1.116,0.278,1.915,0.278c0.686,0,1.453-0.096,2.308-0.286
				c0.196-0.042,0.384,0.104,0.384,0.304v1.31c0,0.149-0.101,0.278-0.245,0.31c-0.945,0.217-1.879,0.328-2.799,0.328
				c-1.278,0-2.327-0.196-3.149-0.582c-0.823-0.385-1.436-0.984-1.842-1.8c-0.407-0.815-0.609-1.876-0.609-3.181
				c0-1.197,0.187-2.209,0.561-3.035c0.373-0.825,0.912-1.444,1.62-1.86c0.708-0.415,1.562-0.624,2.565-0.624
				c1.459,0,2.57,0.47,3.331,1.409c0.758,0.942,1.139,2.337,1.139,4.19v0.384C91.071,30.265,90.93,30.405,90.758,30.405 M85,26.495
				c-0.323,0.424-0.51,1.104-0.56,2.041c-0.01,0.177,0.138,0.327,0.315,0.327h3.583c0.177,0,0.322-0.15,0.314-0.327
				c-0.048-0.937-0.226-1.617-0.535-2.041c-0.343-0.471-0.855-0.706-1.537-0.706C85.887,25.789,85.358,26.024,85,26.495"/>
			<path fill="#FFFFFF" d="M93.298,24.276h1.551c0.155,0,0.285,0.111,0.31,0.265l0.136,0.863h0.137
				c0.406-0.418,0.884-0.739,1.439-0.962c0.553-0.223,1.144-0.334,1.773-0.334c1.106,0,1.981,0.326,2.623,0.979
				c0.642,0.651,0.964,1.681,0.964,3.089v6.504c0,0.171-0.142,0.314-0.313,0.314H99.97c-0.174,0-0.314-0.144-0.314-0.314v-6.355
				c0-0.715-0.15-1.225-0.452-1.529c-0.302-0.304-0.74-0.455-1.316-0.455c-0.432,0-0.858,0.09-1.278,0.269
				c-0.382,0.165-0.709,0.405-0.977,0.72c-0.048,0.057-0.075,0.132-0.075,0.207v7.145c0,0.171-0.138,0.314-0.312,0.314h-1.948
				c-0.172,0-0.312-0.144-0.312-0.314V24.588C92.987,24.414,93.126,24.276,93.298,24.276"/>
			<path fill="#FFFFFF" d="M111.081,33.281v1.437c0,0.147-0.105,0.28-0.25,0.308c-0.539,0.109-1.074,0.165-1.607,0.165
				c-2.54,0-3.812-1.284-3.812-3.843v-4.707c0-0.174-0.139-0.312-0.313-0.312h-1.22c-0.173,0-0.314-0.141-0.314-0.313v-1.428
				c0-0.174,0.141-0.312,0.314-0.312h1.255c0.16,0,0.292-0.119,0.313-0.277l0.386-3.271c0.018-0.155,0.152-0.275,0.311-0.275h1.529
				c0.174,0,0.313,0.141,0.313,0.313v3.195c0,0.174,0.141,0.314,0.314,0.314h2.369c0.173,0,0.314,0.138,0.314,0.312v1.428
				c0,0.173-0.141,0.313-0.314,0.313H108.3c-0.173,0-0.314,0.138-0.314,0.312v4.292c0,0.526,0.069,0.941,0.201,1.251
				c0.134,0.308,0.34,0.529,0.615,0.663c0.274,0.133,0.638,0.202,1.091,0.202c0.231,0,0.51-0.028,0.832-0.077
				C110.913,32.943,111.081,33.091,111.081,33.281"/>
			<path fill="#FFFFFF" d="M112.961,22.079c-0.272-0.237-0.406-0.584-0.406-1.036s0.134-0.799,0.406-1.042
				c0.272-0.241,0.68-0.363,1.223-0.363c0.542,0,0.951,0.122,1.223,0.363c0.271,0.243,0.408,0.59,0.408,1.042
				s-0.136,0.799-0.408,1.036c-0.272,0.24-0.68,0.359-1.223,0.359C113.641,22.438,113.233,22.319,112.961,22.079 M112.888,34.68
				V24.588c0-0.174,0.14-0.312,0.313-0.312h1.958c0.171,0,0.312,0.138,0.312,0.312V34.68c0,0.171-0.141,0.314-0.312,0.314h-1.958
				C113.027,34.994,112.888,34.851,112.888,34.68"/>
			<path fill="#FFFFFF" d="M117.894,24.276h1.549c0.154,0,0.286,0.111,0.31,0.265l0.136,0.863h0.137
				c0.405-0.418,0.885-0.739,1.439-0.962c0.553-0.223,1.144-0.334,1.773-0.334c1.107,0,1.981,0.326,2.624,0.979
				c0.643,0.651,0.961,1.681,0.961,3.089v6.504c0,0.171-0.139,0.314-0.313,0.314h-1.947c-0.172,0-0.313-0.144-0.313-0.314v-6.355
				c0-0.715-0.15-1.225-0.452-1.529c-0.3-0.304-0.74-0.455-1.316-0.455c-0.432,0-0.859,0.09-1.276,0.269
				c-0.385,0.165-0.709,0.405-0.977,0.72c-0.05,0.057-0.076,0.132-0.076,0.207v7.145c0,0.171-0.141,0.314-0.313,0.314h-1.947
				c-0.174,0-0.315-0.144-0.315-0.314V24.588C117.579,24.414,117.719,24.276,117.894,24.276"/>
			<path fill="#FFFFFF" d="M135.498,24.516c0.674,0.272,1.177,0.719,1.507,1.341c0.332,0.622,0.496,1.468,0.496,2.534v6.289
				c0,0.171-0.141,0.314-0.313,0.314h-1.553c-0.153,0-0.285-0.113-0.308-0.267l-0.135-0.846h-0.137
				c-0.321,0.425-0.736,0.749-1.244,0.967c-0.507,0.221-1.069,0.332-1.684,0.332c-0.702,0-1.307-0.125-1.817-0.373
				c-0.511-0.253-0.903-0.602-1.174-1.061c-0.272-0.452-0.406-0.99-0.406-1.604c0-0.996,0.339-1.765,1.02-2.309
				c0.683-0.544,1.761-0.873,3.233-0.991l2.004-0.188v-0.42c0-0.544-0.086-0.974-0.259-1.282c-0.175-0.313-0.447-0.533-0.817-0.666
				c-0.37-0.13-0.866-0.194-1.488-0.194c-0.439,0-0.913,0.038-1.424,0.111c-0.369,0.056-0.728,0.129-1.076,0.224
				c-0.2,0.054-0.399-0.091-0.399-0.3v-1.322c0-0.14,0.09-0.265,0.226-0.303c0.426-0.119,0.893-0.211,1.399-0.275
				c0.601-0.08,1.168-0.119,1.706-0.119C133.943,24.108,134.822,24.243,135.498,24.516 M134.029,33.136
				c0.318-0.131,0.608-0.327,0.867-0.591c0.058-0.062,0.09-0.144,0.09-0.225v-1.808c0-0.185-0.16-0.331-0.34-0.314l-1.417,0.13
				c-0.676,0.063-1.167,0.224-1.479,0.483c-0.31,0.261-0.469,0.622-0.469,1.086c0,0.471,0.141,0.832,0.419,1.08
				c0.278,0.25,0.686,0.375,1.223,0.375C133.303,33.353,133.67,33.279,134.029,33.136"/>
			<polygon fill="#FFFFFF" points="161.32,24.259 163.646,24.259 163.646,34.914 161.845,34.914 161.845,26.864 158.922,33.398 
				157.309,33.398 154.385,27.017 154.385,34.914 152.585,34.914 152.585,24.259 154.911,24.259 158.15,31.443 			"/>
			<path fill="#FFFFFF" d="M165.714,25.451c-0.199-0.178-0.299-0.428-0.299-0.761c0-0.33,0.1-0.585,0.299-0.762
				c0.199-0.179,0.498-0.267,0.897-0.267c0.396,0,0.696,0.088,0.897,0.267c0.198,0.177,0.297,0.432,0.297,0.762
				c0,0.333-0.099,0.583-0.297,0.761c-0.201,0.176-0.502,0.262-0.897,0.262C166.212,25.713,165.913,25.627,165.714,25.451
				 M165.659,27.06h1.895v7.854h-1.895V27.06z"/>
			<path fill="#FFFFFF" d="M169.426,27.06h1.562l0.129,0.829h0.102c0.299-0.309,0.65-0.545,1.056-0.706
				c0.405-0.162,0.841-0.246,1.3-0.246c0.812,0,1.452,0.239,1.922,0.718c0.472,0.479,0.706,1.231,0.706,2.266v4.994h-1.886v-4.886
				c0-0.524-0.11-0.898-0.332-1.121c-0.22-0.224-0.543-0.334-0.966-0.334c-0.317,0-0.628,0.065-0.935,0.196
				c-0.308,0.134-0.563,0.331-0.771,0.596v5.549h-1.887V27.06z"/>
			<path fill="#FFFFFF" d="M178.064,25.451c-0.201-0.178-0.3-0.428-0.3-0.761c0-0.33,0.099-0.585,0.3-0.762
				c0.197-0.179,0.496-0.267,0.895-0.267c0.399,0,0.698,0.088,0.896,0.267c0.198,0.177,0.3,0.432,0.3,0.762
				c0,0.333-0.102,0.583-0.3,0.761c-0.198,0.176-0.497,0.262-0.896,0.262C178.561,25.713,178.262,25.627,178.064,25.451
				 M178.009,27.06h1.894v7.854h-1.894V27.06z"/>
			<path fill="#FFFFFF" d="M181.535,34.728v-1.411c0.766,0.23,1.558,0.346,2.378,0.346c0.557,0,0.965-0.083,1.219-0.248
				c0.257-0.167,0.386-0.409,0.386-0.723c0-0.256-0.065-0.448-0.2-0.585c-0.135-0.136-0.367-0.232-0.693-0.3l-1.194-0.223
				c-0.727-0.145-1.253-0.401-1.584-0.76c-0.331-0.365-0.497-0.852-0.497-1.459c0-0.491,0.129-0.917,0.387-1.28
				c0.257-0.361,0.646-0.644,1.169-0.846c0.523-0.2,1.172-0.303,1.944-0.303c0.724,0,1.395,0.084,2.008,0.246v1.403
				c-0.617-0.167-1.271-0.251-1.957-0.251c-1.187,0-1.779,0.325-1.779,0.979c0,0.229,0.066,0.414,0.198,0.551
				s0.357,0.239,0.673,0.306l1.195,0.224c0.721,0.145,1.25,0.391,1.588,0.738c0.339,0.345,0.508,0.841,0.508,1.486
				c0,0.502-0.13,0.94-0.388,1.302c-0.263,0.367-0.642,0.647-1.143,0.846c-0.502,0.194-1.107,0.292-1.818,0.292
				C183.042,35.058,182.242,34.95,181.535,34.728"/>
			<path fill="#FFFFFF" d="M193.222,33.388v1.511c-0.456,0.107-0.909,0.159-1.359,0.159c-1.863,0-2.794-0.938-2.794-2.814v-3.677
				h-1.354V27.06h1.354l0.332-2.8h1.555v2.8h2.197v1.507h-2.197v3.377c0,0.381,0.049,0.688,0.147,0.913
				c0.098,0.224,0.248,0.387,0.449,0.486c0.202,0.097,0.468,0.146,0.8,0.146C192.58,33.489,192.871,33.456,193.222,33.388"/>
			<path fill="#FFFFFF" d="M200.661,31.555h-4.86c0.023,0.506,0.122,0.912,0.289,1.21c0.167,0.302,0.428,0.519,0.774,0.651
				c0.352,0.137,0.822,0.202,1.407,0.202c0.577,0,1.233-0.089,1.97-0.273v1.433c-0.752,0.188-1.494,0.28-2.23,0.28
				c-0.934,0-1.703-0.14-2.309-0.425c-0.6-0.282-1.053-0.723-1.349-1.32c-0.301-0.598-0.447-1.373-0.447-2.328
				c0-0.877,0.137-1.619,0.411-2.227c0.271-0.604,0.671-1.058,1.188-1.363c0.521-0.306,1.146-0.458,1.881-0.458
				c1.068,0,1.883,0.347,2.439,1.034c0.56,0.689,0.836,1.713,0.836,3.071V31.555z M196.214,28.688
				c-0.266,0.344-0.407,0.924-0.418,1.734h3.099c-0.013-0.811-0.147-1.391-0.397-1.734c-0.254-0.347-0.628-0.52-1.124-0.52
				C196.862,28.169,196.475,28.342,196.214,28.688"/>
			<path fill="#FFFFFF" d="M202.063,27.06h1.559l0.143,1.023h0.099c0.23-0.369,0.536-0.646,0.911-0.837
				c0.378-0.187,0.792-0.28,1.245-0.28c0.205,0,0.413,0.017,0.625,0.051v1.715c-0.185-0.034-0.431-0.053-0.733-0.053
				c-0.375,0-0.745,0.079-1.104,0.232c-0.366,0.153-0.649,0.372-0.855,0.654v5.349h-1.888V27.06z"/>
			<path fill="#FFFFFF" d="M207.807,25.451c-0.198-0.178-0.299-0.428-0.299-0.761c0-0.33,0.101-0.585,0.299-0.762
				c0.2-0.179,0.499-0.267,0.896-0.267c0.399,0,0.695,0.088,0.896,0.267c0.197,0.177,0.299,0.432,0.299,0.762
				c0,0.333-0.102,0.583-0.299,0.761c-0.2,0.176-0.496,0.262-0.896,0.262C208.306,25.713,208.007,25.627,207.807,25.451
				 M207.753,27.06h1.894v7.854h-1.894V27.06z"/>
			<path fill="#FFFFFF" d="M212.112,34.043c-0.644-0.675-0.967-1.688-0.967-3.038c0-1.357,0.316-2.374,0.954-3.052
				c0.636-0.677,1.536-1.017,2.703-1.017s2.067,0.34,2.703,1.017c0.636,0.678,0.953,1.692,0.953,3.045
				c0,0.901-0.147,1.655-0.444,2.259c-0.296,0.607-0.711,1.061-1.261,1.354c-0.549,0.3-1.199,0.447-1.951,0.447
				C213.653,35.058,212.76,34.72,212.112,34.043 M216.117,33.013c0.293-0.393,0.442-1.06,0.442-2c0-0.955-0.149-1.632-0.442-2.028
				c-0.297-0.395-0.734-0.591-1.314-0.591c-0.582,0-1.02,0.195-1.315,0.589c-0.295,0.394-0.443,1.062-0.443,2.002
				c0,0.649,0.068,1.163,0.207,1.546c0.137,0.384,0.334,0.661,0.59,0.824c0.256,0.167,0.577,0.248,0.962,0.248
				C215.383,33.603,215.82,33.408,216.117,33.013"/>
			<path fill="#FFFFFF" d="M224.728,34.648c-0.479-0.268-0.855-0.694-1.139-1.278c-0.279-0.579-0.42-1.321-0.42-2.221
				c0-1.382,0.354-2.433,1.063-3.146c0.706-0.715,1.741-1.072,3.099-1.072c0.321,0,0.671,0.026,1.051,0.078v-3.729h1.888v11.635
				h-1.592l-0.116-0.827h-0.1c-0.235,0.298-0.534,0.534-0.894,0.706c-0.359,0.173-0.765,0.261-1.217,0.261
				C225.745,35.054,225.206,34.918,224.728,34.648 M227.71,33.32c0.271-0.119,0.493-0.289,0.671-0.521V28.5
				c-0.319-0.072-0.674-0.106-1.051-0.106c-0.763,0-1.329,0.203-1.703,0.615c-0.372,0.41-0.56,1.073-0.56,1.989
				c0,0.911,0.156,1.557,0.471,1.934c0.311,0.377,0.752,0.565,1.331,0.565C227.16,33.497,227.443,33.436,227.71,33.32"/>
			<path fill="#FFFFFF" d="M238.521,31.555h-4.862c0.024,0.506,0.119,0.912,0.288,1.21c0.17,0.302,0.428,0.519,0.779,0.651
				c0.35,0.137,0.815,0.202,1.402,0.202c0.577,0,1.235-0.089,1.972-0.273v1.433c-0.752,0.188-1.498,0.28-2.231,0.28
				c-0.935,0-1.704-0.14-2.304-0.425c-0.607-0.282-1.056-0.723-1.353-1.32c-0.298-0.598-0.447-1.373-0.447-2.328
				c0-0.877,0.139-1.619,0.41-2.227c0.275-0.604,0.668-1.058,1.189-1.363c0.517-0.306,1.142-0.458,1.878-0.458
				c1.073,0,1.886,0.347,2.44,1.034c0.56,0.689,0.838,1.713,0.838,3.071V31.555z M234.068,28.688
				c-0.264,0.344-0.4,0.924-0.418,1.734h3.105c-0.016-0.811-0.146-1.391-0.402-1.734c-0.25-0.347-0.628-0.52-1.126-0.52
				C234.721,28.169,234.331,28.342,234.068,28.688"/>
			<path fill="#FFFFFF" d="M243.623,34.849V24.476c0.479-0.101,0.997-0.182,1.555-0.242c0.557-0.06,1.096-0.09,1.617-0.09
				c1.884,0,3.298,0.446,4.247,1.339s1.423,2.262,1.423,4.104c0,1.263-0.221,2.293-0.671,3.095
				c-0.445,0.798-1.116,1.388-2.012,1.767c-0.895,0.377-2.025,0.567-3.388,0.567C245.479,35.016,244.555,34.96,243.623,34.849
				 M248.906,33.047c0.528-0.262,0.926-0.677,1.191-1.24c0.264-0.568,0.396-1.311,0.396-2.227c0-0.907-0.132-1.645-0.396-2.213
				c-0.266-0.569-0.658-0.988-1.185-1.253c-0.526-0.268-1.194-0.401-2.005-0.401c-0.409,0-0.865,0.042-1.361,0.122v7.537
				c0.367,0.046,0.809,0.067,1.324,0.067C247.696,33.439,248.372,33.309,248.906,33.047"/>
			<path fill="#FFFFFF" d="M260.436,31.555h-4.86c0.025,0.506,0.122,0.912,0.289,1.21c0.167,0.302,0.428,0.519,0.777,0.651
				c0.349,0.137,0.819,0.202,1.402,0.202c0.579,0,1.232-0.089,1.974-0.273v1.433c-0.754,0.188-1.496,0.28-2.229,0.28
				c-0.938,0-1.706-0.14-2.312-0.425c-0.602-0.282-1.053-0.723-1.349-1.32c-0.299-0.598-0.448-1.373-0.448-2.328
				c0-0.877,0.14-1.619,0.415-2.227c0.271-0.604,0.668-1.058,1.185-1.363c0.521-0.306,1.146-0.458,1.881-0.458
				c1.07,0,1.884,0.347,2.438,1.034c0.56,0.689,0.838,1.713,0.838,3.071V31.555z M255.988,28.688
				c-0.269,0.344-0.405,0.924-0.421,1.734h3.102c-0.013-0.811-0.145-1.391-0.396-1.734c-0.253-0.347-0.628-0.52-1.131-0.52
				C256.636,28.169,256.251,28.342,255.988,28.688"/>
			<path fill="#FFFFFF" d="M264.604,25.016c-0.269,0.244-0.403,0.633-0.403,1.167v0.877h2.205v1.507h-2.205v6.348h-1.872v-6.348
				h-1.352V27.06h1.352v-0.8c0-0.997,0.283-1.767,0.843-2.313c0.564-0.539,1.372-0.811,2.436-0.811c0.384,0,0.756,0.027,1.115,0.086
				v1.497c-0.328-0.046-0.61-0.071-0.851-0.071C265.296,24.648,264.878,24.771,264.604,25.016"/>
			<path fill="#FFFFFF" d="M273.618,31.555h-4.857c0.022,0.506,0.121,0.912,0.288,1.21c0.165,0.302,0.428,0.519,0.777,0.651
				c0.35,0.137,0.817,0.202,1.402,0.202c0.577,0,1.235-0.089,1.975-0.273v1.433c-0.755,0.188-1.499,0.28-2.235,0.28
				c-0.932,0-1.703-0.14-2.306-0.425c-0.604-0.282-1.053-0.723-1.35-1.32c-0.298-0.598-0.448-1.373-0.448-2.328
				c0-0.877,0.138-1.619,0.413-2.227c0.273-0.604,0.668-1.058,1.188-1.363c0.519-0.306,1.144-0.458,1.88-0.458
				c1.068,0,1.881,0.347,2.44,1.034c0.557,0.689,0.833,1.713,0.833,3.071V31.555z M269.171,28.688
				c-0.266,0.344-0.402,0.924-0.418,1.734h3.101c-0.013-0.811-0.145-1.391-0.397-1.734c-0.25-0.347-0.625-0.52-1.126-0.52
				C269.818,28.169,269.434,28.342,269.171,28.688"/>
			<path fill="#FFFFFF" d="M275.022,27.06h1.564l0.129,0.829h0.1c0.298-0.309,0.652-0.545,1.057-0.706
				c0.403-0.162,0.839-0.246,1.299-0.246c0.811,0,1.451,0.239,1.922,0.718c0.473,0.478,0.706,1.231,0.706,2.266v4.994h-1.886v-4.886
				c0-0.524-0.111-0.898-0.334-1.121c-0.218-0.224-0.539-0.334-0.96-0.334c-0.318,0-0.632,0.065-0.94,0.196
				c-0.307,0.134-0.563,0.331-0.768,0.596v5.549h-1.889V27.06z"/>
			<path fill="#FFFFFF" d="M283.368,34.728v-1.411c0.765,0.23,1.557,0.346,2.377,0.346c0.557,0,0.962-0.083,1.22-0.248
				c0.256-0.167,0.385-0.409,0.385-0.723c0-0.256-0.068-0.448-0.202-0.585c-0.135-0.136-0.365-0.232-0.689-0.3l-1.196-0.223
				c-0.724-0.145-1.251-0.401-1.585-0.76c-0.329-0.365-0.496-0.852-0.496-1.459c0-0.491,0.129-0.917,0.385-1.28
				c0.258-0.361,0.648-0.644,1.17-0.846c0.523-0.2,1.174-0.303,1.943-0.303c0.727,0,1.397,0.084,2.013,0.246v1.403
				c-0.623-0.167-1.273-0.251-1.962-0.251c-1.185,0-1.776,0.325-1.776,0.979c0,0.229,0.065,0.414,0.197,0.551
				s0.356,0.239,0.673,0.306l1.197,0.224c0.717,0.145,1.245,0.391,1.587,0.738c0.337,0.345,0.507,0.841,0.507,1.486
				c0,0.502-0.127,0.94-0.388,1.302c-0.263,0.367-0.64,0.647-1.142,0.846c-0.501,0.194-1.108,0.292-1.819,0.292
				C284.874,35.058,284.074,34.95,283.368,34.728"/>
			<path fill="#FFFFFF" d="M295.009,27.235c0.496,0.201,0.866,0.526,1.106,0.984c0.243,0.456,0.364,1.073,0.364,1.856v4.838h-1.563
				l-0.129-0.812h-0.1c-0.237,0.312-0.539,0.548-0.911,0.711c-0.372,0.158-0.784,0.24-1.235,0.24c-0.516,0-0.956-0.094-1.334-0.276
				c-0.372-0.183-0.66-0.44-0.857-0.774c-0.198-0.331-0.299-0.724-0.299-1.177c0-0.729,0.248-1.294,0.749-1.69
				c0.501-0.398,1.286-0.643,2.366-0.729l1.471-0.135v-0.311c0-0.399-0.063-0.712-0.192-0.939c-0.126-0.229-0.325-0.392-0.597-0.486
				c-0.271-0.097-0.633-0.143-1.091-0.143c-0.322,0-0.671,0.026-1.043,0.082c-0.375,0.054-0.736,0.138-1.081,0.248v-1.447
				c0.352-0.11,0.754-0.195,1.192-0.254c0.438-0.057,0.855-0.086,1.248-0.086C293.87,26.937,294.516,27.038,295.009,27.235
				 M293.934,33.555c0.263-0.107,0.498-0.273,0.703-0.504V31.38l-1.288,0.117c-0.496,0.045-0.855,0.164-1.086,0.354
				c-0.226,0.187-0.339,0.455-0.339,0.794c0,0.348,0.099,0.611,0.306,0.794c0.203,0.181,0.502,0.274,0.895,0.274
				C293.404,33.714,293.673,33.658,293.934,33.555"/>
		</g>
	</g>
	<g>
		<path fill="#53B2E3" d="M19.283,28.752h-2.869c-0.627,0-0.97-0.261-1.15-0.48c-0.154-0.187-0.254-0.426-0.299-0.706
			c-0.006-0.021-0.008-0.042-0.009-0.063c-0.035-0.263-0.021-0.555,0.041-0.869c0.375-1.876,1.127-3.144,1.747-3.917
			c-0.068-0.02-0.135-0.05-0.198-0.087c-0.396-0.224-0.588-0.683-0.501-1.19c0.105-0.623,0.695-1.256,0.8-1.363
			c0.988-1.157,2.456-1.219,2.639-1.223c0.217-0.016,2.151-0.1,3.195,1.93c1.245,2.425,1.539,4.426,1.777,6.036l0.01,0.075
			c0.043,0.281,0.023,0.516-0.027,0.709c-0.005,0.023-0.011,0.044-0.019,0.064c-0.071,0.222-0.183,0.39-0.292,0.505
			c-0.258,0.281-0.638,0.462-1.128,0.54c-0.205,0.034-0.39,0.041-0.505,0.041c-0.057,0-0.096-0.001-0.117-0.002h-0.827h-0.015
			h-0.018h-1.374v4.057h12.811c0-2.376-0.353-4.679-1.048-6.847c-0.671-2.092-1.631-3.969-2.853-5.577
			c-1.219-1.606-2.635-2.866-4.213-3.744c-1.623-0.905-3.349-1.365-5.125-1.365c-1.778,0-3.503,0.46-5.128,1.365
			c-1.575,0.878-2.992,2.138-4.209,3.744c-1.223,1.608-2.184,3.485-2.854,5.577c-0.695,2.168-1.048,4.471-1.048,6.847h12.808V28.752
			z"/>
		<path fill="#FFFFFF" d="M6.475,32.809c0,1.802,0.204,3.564,0.605,5.256c5.729-0.651,9.148-1.324,10.164-2.003
			c0.712-0.502,1.288-0.798,2.039-0.774v-2.479H6.475z"/>
		<path fill="#FFFFFF" d="M20.144,35.387c0.516,0.094,0.887,0.236,1.309,0.44c0.041-0.002,0.085-0.002,0.127-0.004
			c0.735-0.033,1.359,0.192,2.223,0.504c0.234,0.086,0.503,0.179,0.796,0.28c0.125,0.04,4.246,1.334,7.731,1.534
			c0.416-1.717,0.624-3.503,0.624-5.333H20.144V35.387z"/>
		<path fill="#1E120D" d="M18.867,13.038L18.867,13.038L18.867,13.038z"/>
		<polyline fill="#1E120D" points="16.195,13.432 16.195,13.432 16.195,13.432 16.195,13.432 		"/>
		<path fill="#FFFFFF" d="M25.362,40.981c-0.052,0.115-0.128,0.23-0.235,0.334c-0.215,0.206-0.505,0.319-0.859,0.333
			c-0.047,0.104-0.115,0.223-0.216,0.338c-0.193,0.222-0.541,0.464-1.12,0.438c-0.053,0.091-0.128,0.2-0.227,0.302
			c-0.288,0.291-0.669,0.404-1.09,0.331c-0.099,0.079-0.247,0.181-0.442,0.256c-0.242,0.096-0.594,0.169-1.028,0.084v3.396
			c0,0.238-0.192,0.431-0.431,0.431c-0.237,0-0.43-0.192-0.43-0.431v-3.251c-0.169,0.06-0.361,0.107-0.555,0.107
			c-0.073,0-0.15-0.008-0.225-0.024c-0.238-0.047-0.446-0.172-0.607-0.373c-0.288,0.05-0.789,0.082-1.146-0.162
			c-0.147-0.1-0.256-0.234-0.321-0.401c-0.115-0.014-0.256-0.035-0.404-0.087c-0.376-0.119-0.636-0.338-0.753-0.63
			c-0.085-0.004-0.189-0.012-0.294-0.027c-0.311-0.048-0.714-0.181-0.873-0.544c-0.033-0.077-0.055-0.154-0.065-0.238
			c-1.825,0.941-3.91,1.88-4.845,2.295c0.362,0.623,0.755,1.216,1.181,1.776c1.218,1.605,2.634,2.863,4.209,3.741
			c0.736,0.408,1.493,0.73,2.264,0.952c0.08-0.141,0.191-0.268,0.336-0.363c0.736-0.479,2.133-0.129,2.526-0.016
			c0.396-0.113,1.793-0.463,2.528,0.016c0.145,0.098,0.257,0.223,0.336,0.363c0.773-0.222,1.528-0.54,2.264-0.952
			c1.576-0.878,2.993-2.136,4.211-3.741c0.399-0.528,0.771-1.084,1.115-1.666C29.131,43.137,26.838,42.127,25.362,40.981"/>
		<path fill="#53B2E3" d="M20.89,52.61c0.022-0.096,0.036-0.19,0.036-0.294c0-0.093-0.012-0.183-0.03-0.27
			c0.43-0.086,1.13-0.294,1.518-0.771c0.227-0.273,0.322-0.6,0.28-0.965c-0.036-0.317-0.193-0.577-0.453-0.748
			c-0.735-0.479-2.133-0.129-2.528-0.016c-0.395-0.113-1.792-0.463-2.526,0.016c-0.261,0.171-0.418,0.431-0.454,0.748
			c-0.041,0.365,0.053,0.691,0.28,0.965c0.391,0.48,1.097,0.687,1.528,0.772c-0.02,0.085-0.03,0.177-0.03,0.268
			c0,0.1,0.012,0.196,0.035,0.286c-0.312,0.31-1.325,1.196-2.79,1.359l0,0c0.042,0.077,0.171,0.284,0.427,0.512
			c1.299-0.246,2.221-0.958,2.64-1.346c0.042,0.048,0.087,0.088,0.136,0.125c-0.093,0.357-0.48,1.278-2.066,1.678
			c0.263,0.123,0.579,0.22,0.953,0.271c1.102-0.498,1.496-1.258,1.634-1.703c0.077,0.017,0.157,0.024,0.237,0.024
			c0.079,0,0.154-0.008,0.229-0.022c0.139,0.445,0.531,1.205,1.632,1.701c0.376-0.052,0.691-0.148,0.954-0.271
			c-1.577-0.396-1.969-1.307-2.063-1.667c0.048-0.044,0.096-0.086,0.138-0.134c0.422,0.392,1.341,1.102,2.635,1.344
			c0.255-0.228,0.386-0.435,0.427-0.512C22.219,53.801,21.21,52.924,20.89,52.61"/>
		<path fill="#FFFFFF" d="M21.931,50.042c0.118,0.075,0.18,0.185,0.197,0.333c0.023,0.213-0.026,0.388-0.152,0.542
			c-0.171,0.207-0.454,0.35-0.735,0.451c0.136-0.288,0.157-0.58,0.055-0.854c-0.103-0.272-0.268-0.465-0.457-0.605
			C21.271,49.867,21.694,49.89,21.931,50.042"/>
		<path fill="#FFFFFF" d="M18.667,50.713c0.214-0.573,1.015-0.582,1.047-0.582l0,0c0.002,0,0.216,0,0.46,0.078
			c0.301,0.097,0.498,0.266,0.587,0.504c0.095,0.26-0.084,0.53-0.243,0.698c-0.213-0.188-0.494-0.302-0.799-0.302
			c-0.309,0-0.592,0.117-0.805,0.308C18.755,51.249,18.57,50.979,18.667,50.713"/>
		<path fill="#FFFFFF" d="M18.189,51.368c-0.282-0.1-0.566-0.24-0.736-0.451c-0.127-0.154-0.176-0.329-0.154-0.542
			c0.018-0.148,0.08-0.258,0.199-0.333c0.168-0.111,0.43-0.15,0.721-0.15c0.12,0,0.244,0.006,0.369,0.018
			c-0.188,0.141-0.354,0.333-0.456,0.605C18.016,50.83,18.074,51.124,18.189,51.368"/>
		<path fill="#FFFFFF" d="M19.082,52.316c0-0.354,0.286-0.637,0.636-0.637c0.353,0,0.638,0.283,0.638,0.637
			c0,0.352-0.286,0.638-0.638,0.638C19.368,52.954,19.082,52.668,19.082,52.316"/>
		<path fill="#FFFFFF" d="M23.245,54.474c-1.295-0.242-2.214-0.952-2.636-1.344c-0.042,0.048-0.09,0.09-0.138,0.134
			c0.094,0.36,0.486,1.271,2.063,1.671C22.838,54.798,23.07,54.631,23.245,54.474"/>
		<path fill="#FFFFFF" d="M18.824,53.128c-0.419,0.388-1.342,1.1-2.641,1.346c0.174,0.157,0.407,0.324,0.711,0.457
			c1.585-0.399,1.973-1.32,2.066-1.678C18.912,53.216,18.866,53.176,18.824,53.128"/>
		<path fill="#1E120D" d="M35.742,36.221c0.011-0.094-0.024-0.183-0.095-0.244c-0.054-0.044-0.123-0.067-0.191-0.065
			c0.055-0.113,0.105-0.234,0.152-0.359c0.199-0.544,0.304-1.169,0.311-1.864c0.002-0.093-0.045-0.181-0.121-0.229
			c-0.057-0.038-0.123-0.052-0.189-0.044c0.041-0.117,0.078-0.234,0.108-0.355c0.146-0.56,0.188-1.192,0.125-1.886
			c-0.007-0.091-0.063-0.17-0.142-0.216c-0.062-0.032-0.133-0.04-0.197-0.024c0.035-0.135,0.064-0.273,0.087-0.415
			c0.088-0.573,0.07-1.208-0.058-1.889c-0.018-0.093-0.079-0.167-0.165-0.202c-0.047-0.021-0.097-0.025-0.146-0.02
			c0.019-0.098,0.032-0.193,0.042-0.291c0.062-0.576,0.013-1.21-0.147-1.886c-0.022-0.09-0.087-0.162-0.174-0.193
			c-0.086-0.033-0.184-0.02-0.256,0.038l0,0c0.011-0.149,0.014-0.304,0.009-0.457c-0.018-0.581-0.154-1.201-0.406-1.847
			c-0.032-0.086-0.108-0.149-0.197-0.167c-0.075-0.017-0.151-0.001-0.212,0.04c-0.005-0.139-0.017-0.28-0.035-0.424
			c-0.078-0.57-0.278-1.177-0.596-1.792c-0.042-0.082-0.122-0.138-0.214-0.146c-0.076-0.009-0.15,0.013-0.206,0.06
			c-0.021-0.127-0.049-0.256-0.082-0.388c-0.144-0.562-0.414-1.139-0.802-1.716c-0.052-0.076-0.139-0.123-0.229-0.123
			c-0.091,0.001-0.175,0.047-0.225,0.12c-0.047-0.151-0.103-0.301-0.167-0.451c-0.234-0.532-0.595-1.058-1.069-1.565
			c-0.065-0.07-0.164-0.102-0.257-0.08c-0.069,0.013-0.127,0.053-0.167,0.106c-0.073-0.149-0.155-0.297-0.248-0.44
			c-0.312-0.486-0.742-0.944-1.28-1.363c-0.073-0.058-0.169-0.073-0.256-0.043c-0.07,0.023-0.128,0.073-0.158,0.141
			c-0.358-0.479-0.863-0.837-1.506-1.067c0.112,0.011,0.226,0.021,0.346,0.028c0.761,0.045,1.296-0.115,1.319-0.122
			c0.162-0.051,0.266-0.207,0.243-0.375c-0.02-0.169-0.159-0.296-0.326-0.305c-0.833-0.04-1.144-0.209-1.539-0.425
			c-0.076-0.042-0.154-0.084-0.235-0.126l1.948-0.292c0.17-0.026,0.297-0.172,0.297-0.346c-0.001-0.172-0.129-0.318-0.299-0.343
			l-1.935-0.275c0.224-0.062,0.486-0.139,0.754-0.23c0.719-0.251,1.154-0.604,1.172-0.618c0.13-0.108,0.164-0.294,0.081-0.44
			c-0.085-0.146-0.261-0.211-0.421-0.154c-0.782,0.281-1.136,0.244-1.583,0.196c-0.086-0.01-0.171-0.019-0.264-0.026l1.686-1.01
			c0.148-0.09,0.209-0.274,0.142-0.433c-0.065-0.16-0.239-0.246-0.404-0.204L25.46,9.456c0.186-0.142,0.398-0.313,0.614-0.505
			c0.568-0.506,0.833-0.998,0.844-1.021c0.08-0.146,0.039-0.331-0.095-0.437c-0.132-0.103-0.319-0.095-0.446,0.02
			c-0.615,0.559-0.957,0.66-1.388,0.789c-0.08,0.021-0.162,0.047-0.248,0.075l1.168-1.576c0.104-0.138,0.089-0.33-0.033-0.453
			c-0.124-0.121-0.315-0.135-0.454-0.031l-1.577,1.176c0.118-0.204,0.25-0.444,0.375-0.706c0.333-0.686,0.388-1.24,0.39-1.265
			c0.017-0.17-0.092-0.325-0.255-0.369c-0.163-0.045-0.334,0.035-0.407,0.188c-0.353,0.755-0.628,0.978-0.979,1.259
			c-0.065,0.055-0.13,0.107-0.197,0.165l0.479-1.899c0.041-0.168-0.046-0.341-0.205-0.405c-0.159-0.067-0.344-0.005-0.433,0.143
			l-1.009,1.694c0.031-0.231,0.06-0.509,0.077-0.801c0.043-0.761-0.118-1.296-0.126-1.317c-0.049-0.161-0.207-0.265-0.375-0.243
			s-0.297,0.161-0.304,0.329c-0.037,0.832-0.207,1.143-0.42,1.54c-0.04,0.071-0.079,0.145-0.119,0.222l-0.283-1.933
			c-0.025-0.17-0.17-0.296-0.342-0.296l0,0c-0.175,0-0.321,0.128-0.344,0.299l-0.271,1.922c-0.06-0.222-0.136-0.479-0.228-0.741
			c-0.247-0.722-0.602-1.155-0.616-1.172c-0.108-0.132-0.293-0.166-0.441-0.081c-0.146,0.082-0.212,0.26-0.154,0.419
			c0.279,0.782,0.243,1.135,0.196,1.583c-0.01,0.088-0.02,0.175-0.026,0.269l-1.02-1.692c-0.09-0.147-0.274-0.207-0.434-0.142
			c-0.159,0.067-0.245,0.24-0.201,0.408l0.486,1.888c-0.142-0.184-0.312-0.393-0.498-0.604c-0.505-0.57-0.999-0.836-1.021-0.845
			c-0.148-0.081-0.333-0.039-0.437,0.093c-0.103,0.133-0.096,0.321,0.018,0.448c0.561,0.614,0.661,0.955,0.788,1.388
			c0.025,0.081,0.05,0.166,0.078,0.254l-1.586-1.173c-0.14-0.104-0.332-0.088-0.454,0.033c-0.12,0.123-0.134,0.315-0.031,0.454
			l1.175,1.567c-0.201-0.116-0.44-0.246-0.695-0.37c-0.687-0.332-1.243-0.39-1.268-0.392c-0.167-0.015-0.322,0.092-0.367,0.254
			c-0.044,0.163,0.035,0.336,0.185,0.407c0.756,0.354,0.978,0.631,1.262,0.981c0.053,0.065,0.107,0.13,0.166,0.2l-1.909-0.478
			c-0.168-0.042-0.339,0.044-0.407,0.204c-0.064,0.158-0.003,0.343,0.145,0.432l1.692,1.005c-0.23-0.032-0.504-0.062-0.791-0.076
			c-0.761-0.044-1.296,0.116-1.319,0.124c-0.162,0.049-0.265,0.208-0.243,0.376c0.021,0.167,0.16,0.296,0.328,0.305
			c0.831,0.037,1.145,0.208,1.54,0.422c0.072,0.039,0.146,0.078,0.225,0.117l-1.94,0.286c-0.171,0.025-0.297,0.172-0.297,0.346
			c0,0.173,0.126,0.319,0.297,0.343l1.955,0.285c-0.227,0.062-0.493,0.139-0.766,0.233c-0.721,0.252-1.153,0.606-1.17,0.621
			c-0.13,0.108-0.166,0.293-0.081,0.441c0.083,0.147,0.262,0.212,0.419,0.153c0.455-0.165,0.763-0.22,1.032-0.23
			c-0.419,0.368-0.721,0.659-0.869,0.848c-0.078,0.098-0.152,0.2-0.22,0.304c-0.034-0.053-0.084-0.095-0.146-0.116
			c-0.086-0.03-0.184-0.015-0.257,0.043c-0.552,0.425-0.99,0.889-1.305,1.378c-0.092,0.142-0.175,0.289-0.246,0.438
			c-0.042-0.063-0.108-0.109-0.185-0.121c-0.09-0.016-0.183,0.015-0.246,0.082c-0.476,0.508-0.837,1.033-1.07,1.565
			c-0.062,0.143-0.115,0.285-0.16,0.428c-0.047-0.045-0.11-0.072-0.177-0.075c-0.092-0.004-0.18,0.037-0.235,0.112
			c-0.411,0.559-0.705,1.123-0.873,1.678c-0.044,0.146-0.081,0.293-0.107,0.44c-0.06-0.066-0.145-0.102-0.233-0.092
			c-0.094,0.009-0.173,0.063-0.217,0.145c-0.323,0.614-0.529,1.217-0.61,1.791c-0.021,0.144-0.035,0.286-0.04,0.427
			c-0.065-0.054-0.152-0.075-0.234-0.054c-0.09,0.02-0.165,0.084-0.197,0.171c-0.242,0.649-0.371,1.271-0.379,1.852
			c-0.001,0.142,0.002,0.281,0.014,0.42c-0.07-0.041-0.156-0.05-0.232-0.022c-0.086,0.033-0.152,0.105-0.174,0.195
			c-0.16,0.676-0.21,1.31-0.146,1.886c0.011,0.106,0.026,0.215,0.046,0.32c-0.042-0.003-0.083,0.004-0.122,0.021
			c-0.085,0.035-0.146,0.109-0.164,0.202c-0.128,0.68-0.147,1.315-0.059,1.889c0.022,0.147,0.052,0.292,0.091,0.43
			c-0.039,0.002-0.076,0.01-0.111,0.029c-0.083,0.04-0.14,0.117-0.15,0.211c-0.086,0.688-0.066,1.321,0.06,1.889
			c0.027,0.123,0.06,0.244,0.097,0.363c-0.062-0.008-0.126,0.004-0.182,0.04c-0.077,0.05-0.126,0.133-0.127,0.23
			c-0.013,0.688,0.074,1.317,0.258,1.867c0.054,0.163,0.116,0.313,0.189,0.467c-0.019-0.006-0.031-0.012-0.036-0.012
			c-0.089-0.024-0.185,0-0.252,0.062c-0.068,0.063-0.102,0.154-0.088,0.248c0.109,0.683,0.304,1.288,0.582,1.8
			c0.054,0.098,0.111,0.192,0.172,0.286c-0.05,0.012-0.093,0.037-0.129,0.073c-0.064,0.067-0.09,0.162-0.067,0.254
			c0.159,0.675,0.401,1.265,0.716,1.753c0.073,0.114,0.154,0.226,0.237,0.333c-0.073,0.008-0.142,0.048-0.189,0.107
			c-0.054,0.075-0.07,0.173-0.038,0.26c0.239,0.651,0.546,1.209,0.915,1.657c0.082,0.102,0.167,0.192,0.254,0.284
			c-0.067,0.018-0.124,0.063-0.159,0.123c-0.047,0.081-0.049,0.181-0.008,0.262c0.312,0.619,0.683,1.139,1.103,1.54
			c0.09,0.087,0.182,0.171,0.276,0.244c-0.062,0.025-0.113,0.075-0.14,0.139c-0.038,0.088-0.032,0.183,0.02,0.263
			c0.375,0.585,0.798,1.062,1.259,1.421c0.14,0.106,0.284,0.204,0.43,0.291c-0.033,0.013-0.053,0.019-0.06,0.021
			c-0.087,0.031-0.154,0.101-0.175,0.194c-0.021,0.091,0.005,0.188,0.07,0.254c0.477,0.498,0.971,0.894,1.468,1.171
			c0.402,0.23,0.809,0.383,1.207,0.459c0.344,0.065,0.69,0.067,0.974,0.012c0.019-0.002,0.038-0.008,0.054-0.012
			c0.856,0.604,1.762,1.107,2.694,1.5c0.784,0.332,1.586,0.586,2.388,0.757c0.168,0.033,0.329,0.065,0.482,0.089
			c-0.335-0.121-0.683-0.312-0.917-0.6c-0.042-0.048-0.077-0.099-0.109-0.152c-0.552-0.151-1.103-0.342-1.643-0.57
			c-0.893-0.373-1.759-0.859-2.58-1.435c0.005-0.012,0.006-0.021,0.008-0.027c0.012-0.278-0.02-0.559-0.093-0.836
			c0.591,0.479,1.116,0.863,1.696,1.188c0.787,0.438,1.6,0.776,2.432,1.015c0.001-0.048,0.003-0.096,0.008-0.147
			c0.018-0.139,0.057-0.268,0.118-0.385c-0.771-0.222-1.529-0.544-2.265-0.952c-1.575-0.878-2.992-2.136-4.209-3.741
			c-0.426-0.561-0.819-1.153-1.181-1.776c0.935-0.415,3.02-1.354,4.845-2.295c0.01,0.084,0.032,0.161,0.065,0.238
			c0.158,0.363,0.563,0.496,0.873,0.544c0.105,0.016,0.209,0.023,0.294,0.027c0.117,0.292,0.377,0.511,0.753,0.63
			c0.148,0.052,0.29,0.073,0.404,0.087c0.065,0.167,0.173,0.302,0.321,0.401c0.356,0.244,0.857,0.212,1.146,0.162
			c0.162,0.201,0.369,0.326,0.607,0.373c0.075,0.017,0.152,0.024,0.226,0.024c0.192,0,0.384-0.048,0.553-0.107v3.251
			c0,0.238,0.193,0.431,0.43,0.431c0.238,0,0.431-0.192,0.431-0.431v-3.394c0.435,0.083,0.786,0.01,1.028-0.088
			c0.195-0.073,0.344-0.175,0.442-0.254c0.421,0.073,0.802-0.04,1.09-0.331c0.099-0.102,0.174-0.211,0.227-0.302
			c0.58,0.023,0.925-0.217,1.12-0.438c0.101-0.115,0.169-0.234,0.216-0.338c0.354-0.014,0.644-0.127,0.859-0.333
			c0.107-0.104,0.184-0.219,0.234-0.334c1.477,1.146,3.769,2.155,4.806,2.582c-0.341,0.586-0.714,1.142-1.114,1.67
			c-1.219,1.605-2.635,2.863-4.211,3.741c-0.736,0.412-1.491,0.73-2.264,0.952c0.061,0.117,0.102,0.246,0.117,0.385
			c0.006,0.052,0.009,0.1,0.009,0.147c0.832-0.238,1.644-0.574,2.432-1.015c0.617-0.343,1.187-0.773,1.713-1.2
			c-0.078,0.279-0.11,0.562-0.097,0.841c0,0.017,0.003,0.03,0.005,0.042c-0.252,0.192-0.92,0.675-1.893,1.149
			c-0.732,0.357-1.491,0.643-2.259,0.848c-0.031,0.01-0.064,0.016-0.095,0.023c-0.03,0.046-0.06,0.087-0.095,0.129
			c-0.241,0.294-0.597,0.484-0.936,0.607c0.424-0.063,0.847-0.152,1.27-0.264c0.799-0.217,1.592-0.515,2.356-0.888
			c1.028-0.504,1.715-1.002,1.978-1.206c0.013,0.006,0.028,0.012,0.041,0.014c0.289,0.058,0.634,0.056,0.981-0.01
			c0.398-0.076,0.803-0.229,1.206-0.459c0.496-0.277,0.99-0.673,1.467-1.171c0.065-0.065,0.092-0.163,0.07-0.254
			c-0.021-0.094-0.087-0.163-0.175-0.194c-0.008-0.002-0.021-0.008-0.043-0.014c0.15-0.088,0.296-0.191,0.437-0.298
			c0.461-0.359,0.884-0.836,1.26-1.421c0.05-0.08,0.059-0.175,0.019-0.263c-0.028-0.063-0.078-0.113-0.14-0.139
			c0.095-0.073,0.189-0.157,0.275-0.244c0.42-0.401,0.792-0.921,1.105-1.54c0.042-0.081,0.039-0.181-0.009-0.262
			c-0.042-0.072-0.115-0.121-0.198-0.134c0.095-0.097,0.189-0.196,0.276-0.306c0.371-0.448,0.679-1.006,0.917-1.657
			c0.03-0.083,0.017-0.174-0.03-0.25c-0.05-0.069-0.13-0.117-0.217-0.121h-0.001c0.08-0.097,0.158-0.202,0.23-0.313
			c0.323-0.48,0.574-1.067,0.744-1.74c0.022-0.09-0.002-0.185-0.064-0.252c-0.059-0.063-0.14-0.098-0.222-0.092
			c0.076-0.115,0.146-0.242,0.211-0.369C35.482,37.519,35.656,36.909,35.742,36.221 M35.416,34.064
			c0.006,0.007,0.008,0.009,0.007,0.017c-0.033,0.47-0.119,0.902-0.259,1.286c-0.139,0.387-0.333,0.727-0.572,1.01
			c-0.281,0.332-0.572,0.504-0.684,0.565c-0.003,0-0.004,0.002-0.008,0.002c-0.003,0-0.008-0.002-0.013-0.006
			c-0.379-0.516-0.565-1.148-0.552-1.883c0.004-0.234,0.029-0.473,0.075-0.705c0.001-0.006,0.005-0.012,0.01-0.014
			c0.005,0,0.012,0.002,0.017,0.006c0.338,0.417,0.526,0.967,0.528,0.971c0.027,0.079,0.098,0.135,0.182,0.141
			c0.083,0.004,0.161-0.044,0.197-0.117c0.315-0.652,0.748-1.054,1.057-1.268C35.405,34.061,35.412,34.061,35.416,34.064
			 M35.365,31.602c0.005-0.004,0.01-0.006,0.014-0.004c0.006,0.004,0.008,0.008,0.008,0.014c0.013,0.477-0.03,0.913-0.13,1.311
			c-0.101,0.398-0.258,0.752-0.468,1.056c-0.249,0.357-0.52,0.56-0.625,0.631c-0.004,0.002-0.007,0.002-0.008,0.002
			c-0.004,0-0.009-0.002-0.011-0.004c-0.671-0.758-0.735-1.883-0.711-2.486c0-0.006,0.003-0.01,0.008-0.014
			c0.005,0,0.011,0,0.017,0.006c0.362,0.395,0.601,0.873,0.603,0.875c0.037,0.073,0.112,0.123,0.197,0.115
			c0.081-0.004,0.152-0.056,0.18-0.135C34.686,32.284,35.079,31.846,35.365,31.602 M35.098,29.101
			c0.003-0.004,0.007-0.005,0.014-0.004c0.006,0.003,0.01,0.007,0.01,0.014c0.06,0.469,0.06,0.909-0.002,1.313
			c-0.061,0.409-0.184,0.778-0.364,1.1c-0.216,0.385-0.47,0.615-0.568,0.696c-0.004,0.002-0.008,0.002-0.009,0.002
			c-0.004,0-0.007,0-0.01-0.002c-0.663-0.55-0.862-1.734-0.922-2.393c-0.001-0.006,0.002-0.013,0.008-0.016
			c0.004-0.002,0.011-0.001,0.016,0.002c0.387,0.351,0.665,0.793,0.667,0.797c0.044,0.069,0.123,0.105,0.207,0.096
			c0.081-0.015,0.146-0.074,0.167-0.153C34.489,29.848,34.838,29.376,35.098,29.101 M34.703,26.723
			c0.004-0.004,0.011-0.006,0.016-0.004c0.005,0.002,0.01,0.006,0.01,0.013c0.082,0.466,0.102,0.908,0.06,1.313
			c-0.042,0.409-0.148,0.783-0.312,1.114c-0.193,0.39-0.432,0.629-0.526,0.716c-0.004,0.002-0.008,0.003-0.011,0.003
			c-0.003,0-0.005-0.001-0.008-0.003c-0.557-0.47-0.822-1.165-0.947-1.663c-0.055-0.226-0.095-0.459-0.12-0.698
			c-0.001-0.005,0.002-0.012,0.007-0.014c0.006-0.003,0.011-0.003,0.016,0.001c0.415,0.337,0.728,0.779,0.729,0.785
			c0.045,0.067,0.128,0.101,0.21,0.083c0.08-0.016,0.143-0.077,0.16-0.159C34.132,27.499,34.457,27.009,34.703,26.723
			 M15.711,26.876c0.005-0.031,0.01-0.063,0.017-0.098c0.326-1.634,0.967-2.752,1.447-3.4c0.361-0.486,0.689-0.789,0.85-0.925
			c0.052-0.037,0.102-0.079,0.154-0.122c0.157-0.136,0.182-0.371,0.055-0.535c-0.126-0.164-0.359-0.2-0.531-0.082
			c-0.017,0.01-0.074,0.053-0.165,0.128c-0.364,0.255-0.571,0.172-0.626,0.142c-0.118-0.067-0.169-0.223-0.135-0.42
			c0.061-0.353,0.46-0.824,0.609-0.977c0.005-0.006,0.012-0.014,0.018-0.021c0.804-0.947,2.083-0.968,2.097-0.968
			c0.012,0,0.023,0,0.035-0.002c0.006,0,0.404-0.032,0.903,0.131c0.686,0.227,1.217,0.696,1.575,1.397
			c0.505,0.98,0.888,1.972,1.171,3.03c-0.714-0.257-1.28-0.719-1.287-0.725c-0.166-0.135-0.411-0.112-0.548,0.055
			c-0.066,0.079-0.098,0.181-0.087,0.285c0.009,0.104,0.06,0.197,0.139,0.262c0.037,0.033,0.92,0.754,1.992,0.993
			c0.076,0.358,0.145,0.733,0.214,1.172c-0.341-0.175-0.746-0.282-1.075-0.369c-0.226-0.059-0.44-0.115-0.604-0.183
			c-0.731-0.292-1.352-0.78-1.359-0.784c-0.168-0.134-0.413-0.105-0.549,0.064c-0.131,0.168-0.103,0.414,0.064,0.548
			c0.03,0.021,0.719,0.563,1.556,0.897c0.208,0.085,0.446,0.146,0.696,0.213c0.927,0.244,1.345,0.432,1.364,0.892
			c-0.026,0.071-0.064,0.136-0.116,0.191c-0.294,0.321-0.945,0.354-1.169,0.339c-0.009,0-0.019-0.001-0.028-0.001h-0.87
			c-0.171-0.001-1.063-0.038-1.833-0.534C17.713,26.199,16.817,26.397,15.711,26.876 M19.072,28.005h-2.658
			c-0.274,0-0.459-0.065-0.573-0.204c-0.024-0.027-0.047-0.062-0.065-0.1C16.89,27.195,17.478,27.016,19.072,28.005 M20.144,32.809
			v-4.057h1.374h0.018h0.015h0.827c0.021,0.001,0.06,0.002,0.117,0.002c0.116,0,0.3-0.007,0.505-0.041
			c0.49-0.078,0.87-0.259,1.128-0.54c0.109-0.115,0.22-0.283,0.292-0.505c0.007-0.021,0.014-0.041,0.019-0.064
			c0.05-0.193,0.07-0.429,0.027-0.709l-0.01-0.075c-0.238-1.608-0.532-3.611-1.777-6.036c-1.044-2.029-2.978-1.945-3.195-1.93
			c-0.183,0.004-1.651,0.065-2.639,1.223c-0.105,0.107-0.695,0.74-0.8,1.363c-0.087,0.51,0.104,0.967,0.5,1.19
			c0.064,0.037,0.13,0.067,0.199,0.087c-0.621,0.773-1.372,2.041-1.747,3.92c-0.063,0.312-0.076,0.604-0.041,0.867
			c0.001,0.02,0.004,0.04,0.009,0.062c0.045,0.278,0.146,0.52,0.299,0.706c0.18,0.22,0.523,0.48,1.15,0.48h2.869v4.057v2.479
			c-0.751-0.023-1.327,0.272-2.039,0.774c-1.016,0.679-4.435,1.352-10.164,2.003c-0.402-1.691-0.605-3.454-0.605-5.256
			c0-2.376,0.354-4.68,1.048-6.847c0.67-2.092,1.631-3.969,2.854-5.577c1.218-1.606,2.634-2.865,4.209-3.744
			c1.625-0.907,3.35-1.366,5.128-1.366c1.777,0,3.502,0.459,5.127,1.366c1.576,0.879,2.993,2.138,4.211,3.744
			c1.222,1.608,2.182,3.485,2.853,5.577c0.696,2.167,1.048,4.471,1.048,6.847c0,1.83-0.208,3.616-0.624,5.333
			c-3.486-0.2-7.606-1.494-7.731-1.534c-0.293-0.098-0.562-0.194-0.796-0.28c-0.864-0.313-1.487-0.537-2.223-0.504
			c-0.042,0.002-0.086,0.002-0.127,0.004c-0.422-0.204-0.792-0.347-1.309-0.44V32.809z M25.559,14.472
			c-0.21,0.083-0.541,0.197-0.91,0.265c-0.236,0.044-0.459,0.067-0.669,0.067c-0.501,0-0.93-0.124-1.28-0.372
			c-0.005-0.003-0.009-0.008-0.006-0.013c0-0.004,0.001-0.009,0.006-0.011c0.161-0.092,0.42-0.219,0.754-0.296
			c0.357-0.086,0.724-0.096,1.088-0.034c0.34,0.059,0.683,0.183,1.018,0.368c0.005,0.002,0.008,0.008,0.007,0.013
			C25.568,14.466,25.564,14.469,25.559,14.472 M26.061,15.884c0.003,0.004,0.003,0.008,0.003,0.012c0,0.005-0.003,0.01-0.008,0.012
			c-0.146,0.051-0.376,0.111-0.658,0.125c-0.034,0-0.067,0.001-0.099,0.001c-0.593,0-1.175-0.218-1.729-0.647
			c-0.003-0.004-0.005-0.009-0.005-0.014c0.001-0.007,0.005-0.011,0.01-0.011c0.248-0.081,0.498-0.128,0.745-0.143
			C25.019,15.176,25.604,15.398,26.061,15.884 M23.32,13.686c-0.234,0.11-0.639,0.257-1.245,0.329
			c-0.085,0.012-0.154,0.072-0.174,0.154c-0.02,0.083,0.013,0.17,0.084,0.218c0.005,0.004,0.474,0.327,0.814,0.757
			c0.003,0.005,0.003,0.012,0.002,0.017c-0.002,0.004-0.007,0.007-0.014,0.007l0,0c-0.57-0.017-1.642-0.184-2.409-1.098
			c-0.004-0.008-0.004-0.015,0-0.021c0.122-0.116,0.333-0.278,0.658-0.402c0.611-0.23,1.4-0.227,2.28,0.013
			c0.005,0.003,0.01,0.008,0.01,0.014C23.328,13.68,23.325,13.685,23.32,13.686 M20.759,13.27c-0.203,0.157-0.57,0.384-1.167,0.565
			c-0.084,0.028-0.142,0.103-0.145,0.191c-0.004,0.086,0.05,0.167,0.133,0.198c0.004,0.003,0.514,0.194,0.924,0.54
			c0.005,0.004,0.006,0.01,0.005,0.015c-0.002,0.007-0.006,0.009-0.012,0.011c-0.144,0.014-0.318,0.024-0.511,0.024
			c-0.616,0-1.424-0.112-2.05-0.586c-0.005-0.004-0.007-0.012-0.003-0.019c0.095-0.137,0.268-0.339,0.56-0.524
			c0.557-0.351,1.338-0.504,2.258-0.442c0.006,0,0.011,0.004,0.013,0.01C20.768,13.258,20.764,13.265,20.759,13.27 M18.127,13.312
			c-0.147,0.205-0.453,0.508-1.054,0.806c-0.08,0.037-0.125,0.123-0.113,0.21c0.012,0.089,0.08,0.158,0.166,0.174
			c0.006,0.003,0.542,0.103,1.021,0.344c0.006,0.002,0.008,0.008,0.008,0.015c0,0.005-0.005,0.01-0.009,0.011
			c-0.226,0.075-0.454,0.132-0.679,0.171c-0.204,0.038-0.446,0.063-0.708,0.063c-0.388,0-0.818-0.061-1.225-0.25
			c-0.008-0.002-0.011-0.01-0.008-0.017c0.063-0.153,0.188-0.388,0.433-0.631c0.473-0.47,1.219-0.788,2.155-0.919
			c0.006,0,0.012,0.002,0.016,0.007C18.132,13.3,18.132,13.306,18.127,13.312 M14.742,14.926c-0.065,0.055-0.089,0.147-0.057,0.227
			c0.029,0.08,0.107,0.134,0.191,0.134l0,0c0.003,0,0.228-0.002,0.526,0.037c0.2,0.025,0.385,0.066,0.551,0.114
			c0.006,0.003,0.009,0.008,0.009,0.014c0,0.005-0.002,0.011-0.007,0.013c-0.214,0.107-0.435,0.201-0.653,0.278
			c-0.481,0.165-0.895,0.221-1.237,0.221c-0.298,0-0.542-0.042-0.728-0.097c-0.007-0.001-0.011-0.007-0.009-0.015
			c0.087-0.432,0.488-1.503,2.322-2.123c0.004-0.003,0.01-0.002,0.014,0.003c0.003,0.004,0.005,0.01,0.001,0.016
			C15.548,14.023,15.291,14.454,14.742,14.926 M33.442,25.884c0.048-0.724,0.302-1.253,0.506-1.568
			c0.005-0.004,0.009-0.006,0.015-0.006c0.005,0.002,0.01,0.004,0.012,0.01c0.146,0.452,0.226,0.885,0.241,1.292
			c0.014,0.411-0.039,0.798-0.156,1.148c-0.138,0.41-0.342,0.682-0.423,0.779c-0.003,0.001-0.007,0.004-0.01,0.004
			c-0.003,0-0.005,0-0.008-0.003c-0.518-0.322-0.916-0.838-1.189-1.531c-0.084-0.214-0.152-0.438-0.206-0.669
			c0-0.004,0.002-0.011,0.008-0.013c0.005-0.004,0.01-0.004,0.015-0.002c0.462,0.275,0.836,0.682,0.841,0.686
			c0.055,0.061,0.141,0.082,0.219,0.054C33.384,26.037,33.438,25.967,33.442,25.884 M32.625,23.614
			c-0.028-0.725,0.171-1.276,0.341-1.612c0.003-0.004,0.006-0.009,0.014-0.006c0.005,0,0.01,0.002,0.011,0.008
			c0.193,0.435,0.317,0.857,0.375,1.264c0.056,0.405,0.044,0.795-0.037,1.154c-0.094,0.424-0.267,0.714-0.339,0.819
			c-0.002,0.004-0.007,0.006-0.012,0.006c-0.002,0-0.004-0.002-0.006-0.002c-0.548-0.271-1.001-0.742-1.342-1.404
			c-0.106-0.201-0.199-0.417-0.273-0.644c-0.002-0.004,0-0.011,0.005-0.015c0.003-0.002,0.01-0.004,0.016-0.001
			c0.485,0.226,0.903,0.591,0.907,0.594c0.06,0.056,0.149,0.069,0.223,0.033C32.583,23.772,32.628,23.698,32.625,23.614
			 M31.483,21.689L31.483,21.689c0.073-0.043,0.112-0.126,0.1-0.211c-0.113-0.714,0.018-1.285,0.148-1.636
			c0.003-0.006,0.006-0.01,0.013-0.01c0.006,0,0.01,0.002,0.013,0.008c0.241,0.41,0.416,0.818,0.52,1.212
			c0.104,0.397,0.14,0.786,0.101,1.152c-0.042,0.432-0.182,0.738-0.241,0.852c-0.001,0.004-0.006,0.006-0.013,0.006
			c-0.001,0-0.002,0-0.004,0c-0.619-0.215-1.137-0.638-1.54-1.254c-0.129-0.196-0.242-0.409-0.336-0.631
			c-0.002-0.005,0-0.011,0.003-0.015c0.003-0.004,0.01-0.007,0.014-0.004c0.53,0.149,0.987,0.51,0.99,0.514
			C31.317,21.724,31.411,21.731,31.483,21.689 M29.946,19.722c0.072,0.051,0.167,0.049,0.239-0.003
			c0.069-0.05,0.1-0.143,0.073-0.226c-0.197-0.64-0.165-1.237-0.102-1.623c0.001-0.008,0.004-0.012,0.009-0.012
			c0.006-0.001,0.011,0,0.015,0.004c0.296,0.36,0.53,0.728,0.693,1.095c0.168,0.376,0.264,0.756,0.287,1.123
			c0.025,0.413-0.051,0.727-0.1,0.874c-0.001,0.007-0.008,0.012-0.014,0.012c0,0-0.001,0-0.003,0
			c-0.603-0.114-1.168-0.445-1.681-0.991c-0.17-0.18-0.328-0.378-0.47-0.589c-0.003-0.003-0.003-0.011-0.001-0.015
			c0.003-0.006,0.008-0.008,0.014-0.008C29.484,19.405,29.942,19.719,29.946,19.722 M28.413,17.968
			c0.081,0.031,0.171,0.01,0.227-0.054c0.056-0.063,0.069-0.156,0.028-0.232c-0.333-0.642-0.39-1.223-0.377-1.598
			c0-0.005,0.003-0.01,0.007-0.013c0.005-0.001,0.012-0.001,0.017,0.003c0.346,0.308,0.632,0.635,0.854,0.973
			c0.224,0.345,0.379,0.703,0.462,1.067c0.102,0.429,0.075,0.771,0.059,0.901c0,0.005-0.007,0.012-0.014,0.012
			c-0.011,0-0.024,0-0.036,0c-0.681,0-1.31-0.374-1.721-0.689c-0.205-0.155-0.402-0.334-0.592-0.53
			c-0.003-0.005-0.005-0.01-0.001-0.016c0-0.006,0.007-0.008,0.012-0.008c0.025-0.002,0.052-0.002,0.077-0.002
			C27.929,17.782,28.407,17.965,28.413,17.968 M27.804,16.371c0.162,0.416,0.181,0.806,0.177,1c0,0.008-0.005,0.014-0.015,0.014
			c-0.035,0.002-0.071,0.003-0.107,0.003c-0.844,0-1.824-0.563-2.346-0.911c-0.005-0.004-0.006-0.008-0.005-0.016
			c0-0.007,0.005-0.011,0.011-0.012c0.533-0.104,1.042,0.015,1.046,0.018c0.087,0.019,0.174-0.018,0.221-0.09
			c0.045-0.075,0.041-0.171-0.015-0.238c-0.331-0.417-0.537-0.897-0.651-1.227c-0.003-0.005-0.001-0.01,0.003-0.014
			c0.003-0.005,0.01-0.005,0.015-0.005C26.969,15.169,27.529,15.666,27.804,16.371 M12.525,13.883
			c0.039-0.015,0.08-0.028,0.121-0.044c0.495-0.172,0.967-0.286,1.204-0.339c0.546-0.123,0.93-0.366,0.948-0.375
			c0.049-0.031,0.073-0.09,0.063-0.146c-0.013-0.057-0.059-0.102-0.117-0.111l-2.43-0.354l2.428-0.355
			c0.068-0.009,0.119-0.069,0.119-0.138c0.002-0.07-0.05-0.129-0.119-0.141c-0.005,0-0.527-0.081-1.072-0.325
			c-0.16-0.073-0.303-0.149-0.427-0.218c-0.214-0.116-0.42-0.228-0.696-0.315c0.044,0.003,0.087,0.003,0.129,0.007
			c0.528,0.029,1.006,0.104,1.243,0.146c0.554,0.098,1.001,0.022,1.018,0.019c0.058-0.009,0.105-0.054,0.115-0.112
			c0.011-0.059-0.016-0.117-0.065-0.146l-2.109-1.251l2.381,0.595c0.067,0.02,0.136-0.018,0.163-0.082
			c0.028-0.063,0.004-0.137-0.056-0.172C15.361,10.02,14.909,9.747,14.5,9.31c-0.118-0.128-0.216-0.247-0.311-0.363
			c-0.154-0.191-0.302-0.375-0.522-0.56c0.039,0.017,0.08,0.036,0.116,0.055c0.475,0.23,0.889,0.483,1.091,0.612
			c0.476,0.303,0.916,0.402,0.936,0.407c0.057,0.015,0.117-0.011,0.149-0.061c0.031-0.048,0.03-0.112-0.006-0.16l-1.47-1.961
			l1.973,1.461c0.055,0.04,0.134,0.034,0.181-0.014c0.049-0.049,0.056-0.127,0.013-0.184c-0.032-0.044-0.321-0.454-0.526-0.989
			c-0.06-0.164-0.104-0.313-0.147-0.455c-0.07-0.234-0.135-0.46-0.266-0.717c0.029,0.032,0.059,0.063,0.085,0.095
			c0.351,0.394,0.635,0.786,0.774,0.983c0.312,0.447,0.666,0.707,0.706,0.735c0.047,0.033,0.112,0.034,0.16,0.002
			c0.049-0.033,0.072-0.094,0.057-0.149l-0.609-2.372l1.265,2.102c0.036,0.059,0.112,0.084,0.176,0.057
			c0.064-0.025,0.099-0.095,0.082-0.162c-0.005-0.021-0.126-0.529-0.107-1.116c0.005-0.174,0.022-0.328,0.038-0.478
			c0.025-0.243,0.051-0.477,0.028-0.765c0.015,0.041,0.03,0.081,0.044,0.122c0.17,0.495,0.285,0.969,0.336,1.205
			c0.117,0.532,0.345,0.908,0.371,0.949c0.031,0.05,0.091,0.075,0.147,0.063c0.057-0.014,0.102-0.06,0.11-0.118l0.339-2.406
			l0.352,2.408c0.01,0.067,0.07,0.119,0.138,0.119c0.07,0,0.128-0.052,0.139-0.119c0.004-0.022,0.083-0.531,0.326-1.073
			c0.072-0.159,0.145-0.294,0.217-0.428c0.116-0.214,0.227-0.42,0.315-0.697C21.201,5.384,21.2,5.427,21.197,5.47
			c-0.03,0.523-0.105,1.005-0.146,1.242c-0.097,0.554-0.023,1-0.02,1.021c0.011,0.059,0.056,0.102,0.114,0.114
			c0.056,0.009,0.116-0.017,0.146-0.068l1.254-2.103l-0.599,2.376c-0.017,0.066,0.02,0.137,0.083,0.163
			c0.065,0.026,0.139,0.004,0.173-0.059c0.03-0.047,0.296-0.472,0.714-0.865c0.125-0.118,0.244-0.214,0.362-0.312
			c0.191-0.154,0.374-0.302,0.56-0.522c-0.02,0.04-0.036,0.078-0.056,0.116c-0.228,0.475-0.482,0.887-0.61,1.095
			c-0.3,0.47-0.404,0.915-0.407,0.935c-0.015,0.057,0.009,0.114,0.06,0.147c0.049,0.03,0.112,0.029,0.16-0.005l1.961-1.466
			l-1.461,1.967c-0.041,0.057-0.036,0.134,0.014,0.184c0.047,0.05,0.127,0.055,0.184,0.013c0.003-0.003,0.43-0.315,0.989-0.525
			c0.163-0.063,0.309-0.106,0.456-0.148c0.234-0.068,0.459-0.136,0.715-0.268c-0.031,0.029-0.063,0.058-0.095,0.087
			c-0.391,0.347-0.785,0.636-0.982,0.773c-0.458,0.321-0.724,0.692-0.734,0.706c-0.034,0.048-0.035,0.114-0.002,0.161
			c0.034,0.049,0.096,0.072,0.15,0.057l2.372-0.604l-2.101,1.261c-0.06,0.035-0.084,0.108-0.058,0.173s0.096,0.102,0.163,0.084
			c0.056-0.015,0.548-0.127,1.118-0.106c0.175,0.004,0.327,0.021,0.475,0.038c0.244,0.025,0.479,0.049,0.766,0.025
			c-0.04,0.014-0.082,0.03-0.122,0.044c-0.498,0.172-0.969,0.285-1.205,0.337c-0.55,0.124-0.934,0.363-0.949,0.373
			c-0.051,0.029-0.076,0.09-0.063,0.146c0.012,0.058,0.059,0.102,0.117,0.11l2.424,0.347l-2.426,0.363
			c-0.069,0.011-0.12,0.07-0.12,0.137c0,0.071,0.051,0.131,0.12,0.141c0.055,0.009,0.549,0.093,1.073,0.33
			c0.156,0.07,0.292,0.144,0.425,0.218c0.215,0.115,0.421,0.229,0.694,0.316c-0.042-0.002-0.085-0.002-0.127-0.008
			c-0.524-0.03-1.004-0.105-1.245-0.147l-0.064-0.011c-0.439-0.193-0.89-0.291-1.339-0.296c0-0.004-0.003-0.006-0.003-0.012
			c-0.021-0.094-0.086-0.168-0.179-0.202c-0.659-0.227-1.277-0.344-1.838-0.35c-0.207,0-0.403,0.013-0.592,0.041
			c-0.005-0.025-0.012-0.051-0.022-0.073c-0.044-0.084-0.122-0.14-0.214-0.152c-0.693-0.091-1.323-0.083-1.873,0.027
			c-0.219,0.041-0.427,0.102-0.62,0.177c-0.006-0.06-0.032-0.116-0.072-0.161c-0.059-0.063-0.14-0.094-0.226-0.088
			c-0.696,0.06-1.31,0.201-1.824,0.424c-0.136,0.06-0.268,0.125-0.391,0.196c-0.008-0.071-0.043-0.14-0.101-0.187
			c-0.068-0.056-0.162-0.074-0.249-0.051c-0.68,0.187-1.263,0.445-1.735,0.772l-0.028,0.021c-0.13,0.009-0.256,0.011-0.378,0.006
			c-0.101-0.001-0.439-0.031-0.474-0.038C13.046,13.883,12.812,13.86,12.525,13.883 M13.178,14.59
			c0.005-0.005,0.011-0.005,0.015-0.002c0.006,0.002,0.007,0.008,0.007,0.013c-0.022,0.371-0.136,0.944-0.534,1.559
			c-0.044,0.068-0.044,0.156,0.003,0.227c0.046,0.066,0.131,0.103,0.209,0.085c0.005-0.002,0.528-0.104,1.058-0.063
			c0.005,0,0.01,0.004,0.013,0.01c0.001,0.004,0,0.012-0.004,0.016c-0.456,0.364-1.352,0.959-2.311,0.959
			c-0.035,0-0.069,0-0.103-0.003c-0.007,0-0.012-0.006-0.013-0.011C11.491,16.916,11.602,15.722,13.178,14.59 M9.842,18.126
			c0.082-0.362,0.235-0.721,0.46-1.063c0.224-0.343,0.521-0.677,0.882-0.992c0.003-0.003,0.009-0.005,0.014-0.003
			c0.006,0.003,0.009,0.008,0.009,0.013c0.013,0.372-0.043,0.952-0.38,1.602c-0.04,0.076-0.029,0.164,0.026,0.229
			c0.056,0.063,0.142,0.086,0.222,0.062c0.005-0.002,0.501-0.17,1.027-0.188c0.005,0,0.012,0.002,0.014,0.009
			c0.001,0.005,0,0.012-0.003,0.017c-0.198,0.194-0.401,0.374-0.606,0.53c-0.417,0.321-1.03,0.695-1.621,0.695
			c-0.024,0-0.047,0-0.071-0.001c-0.006,0-0.011-0.005-0.013-0.014C9.782,18.896,9.744,18.558,9.842,18.126 M9.303,17.842
			c0.003-0.005,0.008-0.006,0.014-0.005c0.005,0.001,0.009,0.007,0.01,0.012c0.073,0.365,0.11,0.946-0.12,1.641
			c-0.028,0.083,0.003,0.174,0.072,0.229c0.07,0.052,0.167,0.055,0.24,0.005c0.004-0.004,0.453-0.309,1.024-0.356
			c0.005,0,0.01,0.003,0.014,0.009c0.004,0.005,0.002,0.011-0.001,0.015c-0.37,0.518-1.139,1.413-2.131,1.58H8.419
			c-0.005,0-0.011-0.004-0.014-0.012C8.261,20.521,8.06,19.334,9.303,17.842 M7.163,21.047c0.119-0.393,0.313-0.791,0.569-1.191
			c0.005-0.005,0.009-0.006,0.015-0.006c0.005,0,0.01,0.004,0.012,0.011c0.116,0.354,0.224,0.928,0.08,1.644
			c-0.019,0.09,0.024,0.178,0.103,0.22c0.08,0.044,0.177,0.03,0.242-0.034c0.004-0.004,0.423-0.407,1-0.487
			c0.005,0,0.011,0.002,0.014,0.008c0.003,0.004,0.004,0.008,0.001,0.013c-0.079,0.162-0.213,0.41-0.401,0.669
			c-0.44,0.604-0.964,0.997-1.56,1.171c0,0-0.001,0-0.003,0c-0.005,0-0.01-0.002-0.011-0.008c-0.054-0.114-0.181-0.429-0.208-0.862
			C6.992,21.823,7.042,21.439,7.163,21.047 M6.007,23.258c0.061-0.404,0.189-0.828,0.386-1.261c0.001-0.004,0.007-0.008,0.012-0.008
			c0.006,0,0.01,0.003,0.012,0.008c0.171,0.334,0.362,0.886,0.328,1.616c-0.003,0.082,0.041,0.158,0.115,0.195
			c0.074,0.036,0.162,0.023,0.224-0.032c0.018-0.014,0.455-0.387,0.961-0.604c0.004-0.004,0.011-0.003,0.014,0.001
			c0.003,0.005,0.006,0.009,0.005,0.014c-0.053,0.206-0.127,0.408-0.222,0.602c-0.31,0.632-0.801,1.12-1.461,1.449
			c-0.002,0.001-0.004,0.001-0.007,0.001s-0.008-0.001-0.01-0.005C6.276,25.1,6.12,24.818,6.033,24.414
			C5.955,24.054,5.947,23.664,6.007,23.258 M5.383,24.294c0.001-0.004,0.005-0.009,0.012-0.009c0.005-0.001,0.01,0,0.014,0.005
			c0.208,0.312,0.47,0.834,0.528,1.563c0.007,0.083,0.061,0.154,0.142,0.18c0.078,0.025,0.166,0.001,0.219-0.063
			c0.004-0.006,0.37-0.438,0.874-0.728c0.006-0.001,0.01-0.001,0.016,0c0.005,0.005,0.007,0.009,0.007,0.017
			c-0.026,0.216-0.073,0.432-0.141,0.643c-0.226,0.685-0.652,1.228-1.269,1.612c-0.004,0.002-0.005,0.002-0.008,0.002
			c-0.005,0-0.009,0-0.012-0.004c-0.082-0.098-0.29-0.365-0.435-0.773c-0.122-0.349-0.179-0.734-0.17-1.146
			C5.169,25.186,5.244,24.75,5.383,24.294 M4.675,26.697c0.001-0.005,0.005-0.009,0.01-0.011c0.005-0.002,0.011,0.001,0.014,0.005
			c0.248,0.284,0.572,0.775,0.719,1.487c0.015,0.078,0.077,0.141,0.16,0.158c0.08,0.016,0.162-0.018,0.208-0.085
			c0.014-0.018,0.333-0.473,0.758-0.807c0.005-0.004,0.01-0.004,0.015-0.001c0.005,0.001,0.008,0.006,0.008,0.012
			c-0.01,0.215-0.041,0.43-0.087,0.639c-0.16,0.7-0.502,1.285-1.014,1.741c-0.003,0.003-0.006,0.006-0.009,0.006
			s-0.006-0.003-0.011-0.006c-0.114-0.104-0.336-0.339-0.521-0.71c-0.165-0.33-0.269-0.706-0.311-1.116
			C4.574,27.606,4.592,27.166,4.675,26.697 M4.313,29.11c0-0.007,0.004-0.011,0.009-0.014c0.005-0.001,0.01,0,0.016,0.004
			c0.26,0.275,0.605,0.747,0.787,1.451c0.021,0.084,0.091,0.146,0.179,0.153c0.085,0.01,0.168-0.038,0.205-0.115
			c0.001-0.004,0.227-0.476,0.639-0.842c0.004-0.004,0.009-0.004,0.014-0.002c0.006,0.002,0.008,0.007,0.008,0.012
			c0,0.247-0.02,0.49-0.061,0.724c-0.119,0.737-0.407,1.319-0.853,1.729c-0.002,0.002-0.005,0.006-0.01,0.006
			c-0.003,0-0.006-0.004-0.008-0.006c-0.099-0.081-0.347-0.312-0.56-0.688c-0.18-0.321-0.303-0.69-0.365-1.1
			C4.254,30.02,4.254,29.579,4.313,29.11 M4.113,31.642c0-0.006,0.002-0.01,0.009-0.014c0.005-0.002,0.01-0.002,0.014,0.004
			c0.053,0.048,0.104,0.099,0.152,0.152c0.224,0.24,0.531,0.651,0.725,1.249c0.029,0.089,0.115,0.146,0.208,0.139
			c0.096-0.004,0.173-0.075,0.189-0.169l0,0c0-0.004,0.092-0.516,0.524-0.911c0.004-0.002,0.009-0.004,0.013-0.002
			c0.005,0,0.01,0.008,0.01,0.01c0.045,0.286,0.083,0.727,0.004,1.197c-0.096,0.562-0.333,1.03-0.705,1.39
			C5.252,34.688,5.25,34.69,5.246,34.69c-0.003,0-0.005-0.002-0.007-0.004C4.859,34.414,3.991,33.57,4.113,31.642 M4.014,34.097
			c0.005,0,0.011,0,0.016,0.002c0.057,0.044,0.114,0.089,0.169,0.137c0.248,0.215,0.597,0.592,0.851,1.165
			c0.032,0.075,0.106,0.125,0.187,0.125H5.24l0,0c0.082-0.004,0.155-0.052,0.187-0.131c0.002-0.004,0.224-0.54,0.584-0.967
			c0.004-0.004,0.01-0.008,0.015-0.004c0.005,0,0.008,0.004,0.01,0.01c0.112,0.519,0.186,1.543-0.581,2.581
			c-0.002,0.002-0.006,0.006-0.01,0.006c-0.003,0-0.005,0-0.006-0.004c-0.405-0.232-1.347-0.984-1.433-2.906
			C4.006,34.104,4.009,34.103,4.014,34.097 M4.142,36.655c-0.001-0.004,0-0.01,0.005-0.015c0.005-0.006,0.01-0.006,0.016-0.002
			c0.335,0.171,0.822,0.501,1.232,1.11c0.046,0.067,0.128,0.101,0.208,0.087c0.081-0.016,0.144-0.077,0.16-0.157v-0.002l0.014,0.004
			l-0.014-0.004c0.007-0.023,0.137-0.599,0.419-1.071C6.185,36.602,6.189,36.6,6.195,36.6c0.005,0,0.011,0.002,0.012,0.006
			c0.1,0.21,0.175,0.431,0.222,0.655c0.148,0.694,0.033,1.369-0.343,2.008c-0.001,0.006-0.007,0.013-0.011,0.013
			c-0.003,0-0.004-0.005-0.005-0.005c-0.122-0.041-0.437-0.176-0.768-0.466c-0.279-0.246-0.52-0.556-0.714-0.917
			C4.394,37.534,4.245,37.117,4.142,36.655 M4.72,39.028c-0.001-0.006,0-0.012,0.004-0.016c0.005-0.002,0.011-0.002,0.017,0
			c0.065,0.026,0.131,0.056,0.195,0.09c0.294,0.15,0.727,0.435,1.117,0.925c0.049,0.065,0.135,0.095,0.214,0.073
			c0.08-0.02,0.138-0.09,0.149-0.171c0.001-0.006,0.083-0.567,0.316-1.06c0.002-0.004,0.007-0.008,0.013-0.008
			c0.005,0,0.011,0.004,0.012,0.008c0.241,0.527,0.573,1.567,0.095,2.624c0,0.004-0.006,0.01-0.012,0.01
			c-0.002,0-0.003-0.004-0.004-0.004C6.385,41.375,5.282,40.879,4.72,39.028 M6.151,42.546c-0.258-0.315-0.484-0.697-0.674-1.134
			c-0.002-0.004,0-0.01,0.003-0.016c0.003-0.002,0.008-0.004,0.014-0.002c0.069,0.018,0.137,0.044,0.205,0.065
			c0.31,0.117,0.771,0.348,1.217,0.796c0.059,0.058,0.144,0.075,0.221,0.048c0.077-0.032,0.126-0.107,0.128-0.188
			c0-0.004,0.017-0.56,0.186-1.072c0.003-0.006,0.007-0.01,0.013-0.01c0.007,0,0.012,0.002,0.013,0.008
			c0.117,0.205,0.216,0.415,0.297,0.632c0.254,0.688,0.292,1.343,0.106,1.944c-0.002,0.008-0.008,0.01-0.013,0.01H7.864
			c-0.125-0.02-0.459-0.093-0.836-0.315C6.706,43.123,6.411,42.865,6.151,42.546 M6.499,43.671c-0.004-0.006-0.004-0.012,0-0.016
			c0.003-0.006,0.008-0.006,0.016-0.006c0.371,0.063,0.936,0.236,1.511,0.692c0.065,0.052,0.154,0.06,0.227,0.018
			c0.074-0.041,0.114-0.121,0.104-0.202c-0.002-0.021-0.058-0.526,0.052-1.062c0.003-0.006,0.007-0.008,0.014-0.01
			c0.004,0,0.011,0.002,0.014,0.004c0.136,0.198,0.257,0.404,0.36,0.611c0.227,0.46,0.471,1.159,0.346,1.883
			c0,0.006-0.007,0.013-0.013,0.013H9.13c-0.159-0.011-0.482-0.048-0.867-0.219c-0.34-0.148-0.665-0.373-0.962-0.663
			C7.008,44.434,6.738,44.08,6.499,43.671 M11.217,47.775c-0.001-0.002-0.206-0.496-0.251-1.038c0-0.006,0.001-0.01,0.008-0.012
			c0.003-0.006,0.01-0.002,0.015,0c0.478,0.398,1.272,1.234,1.221,2.338c0,0.006-0.005,0.012-0.011,0.014
			c-0.058,0.008-0.169,0.024-0.32,0.024c-0.134,0-0.299-0.01-0.487-0.05c-0.688-0.135-1.393-0.542-2.098-1.203
			c-0.002-0.004-0.005-0.01-0.002-0.014c0-0.006,0.005-0.008,0.012-0.008c0.374-0.052,0.964-0.052,1.65,0.218
			c0.076,0.032,0.164,0.015,0.222-0.043C11.233,47.94,11.25,47.853,11.217,47.775 M9.357,46.301
			c0.071,0.044,0.162,0.042,0.229-0.006c0.07-0.05,0.1-0.135,0.08-0.217c-0.001-0.008-0.126-0.512-0.067-1.054
			c0-0.006,0.004-0.01,0.01-0.012c0.006-0.004,0.012,0,0.016,0.004c0.392,0.473,1.038,1.411,0.978,2.405
			c-0.001,0.006-0.006,0.015-0.015,0.015c-0.026,0-0.061,0.002-0.097,0.002c-0.176,0-0.457-0.024-0.787-0.13
			c-0.356-0.114-0.701-0.303-1.026-0.563c-0.322-0.25-0.627-0.571-0.908-0.954c-0.005-0.002-0.005-0.01-0.003-0.017
			c0.004-0.004,0.007-0.008,0.015-0.006C8.156,45.793,8.737,45.904,9.357,46.301 M17.37,40.924
			c-0.065,0.046-0.127,0.088-0.186,0.133c-0.44,0.304-0.712,0.632-0.812,0.967c-0.058-0.012-0.11-0.025-0.162-0.041
			c-0.335-0.111-0.352-0.282-0.358-0.342c-0.009-0.175,0.083-0.329,0.336-0.575c0.298-0.286,0.547-0.427,0.764-0.427
			c0.077,0,0.151,0.018,0.22,0.052c0.107,0.055,0.176,0.114,0.193,0.17C17.374,40.881,17.375,40.9,17.37,40.924 M17.791,42.615
			c-0.132,0.02-0.495,0.06-0.675-0.062c-0.043-0.03-0.089-0.075-0.102-0.192c-0.031-0.286,0.339-0.592,0.562-0.746
			c0.349-0.246,0.588-0.386,0.782-0.386c0.098,0,0.185,0.038,0.27,0.111c0.07,0.06,0.106,0.117,0.105,0.163
			c-0.006,0.089-0.122,0.226-0.227,0.308C18.162,42.05,17.928,42.313,17.791,42.615 M19.53,42.673
			c-0.132,0.104-0.581,0.379-0.898,0.317c-0.053-0.012-0.129-0.034-0.207-0.115c0.148-0.308,0.474-0.514,0.77-0.685
			c0.384-0.227,0.551-0.098,0.556-0.089c0.113,0.106,0.107,0.17,0.105,0.194c-0.015,0.135-0.21,0.302-0.3,0.359
			C19.549,42.659,19.541,42.665,19.53,42.673 M15.874,40.426c-0.05,0.046-0.101,0.094-0.159,0.149
			c-0.201,0.192-0.416,0.429-0.506,0.744c-0.049-0.004-0.098-0.012-0.141-0.019c-0.221-0.035-0.342-0.104-0.366-0.16
			c-0.014-0.032-0.058-0.131,0.07-0.3c0.187-0.244,0.591-0.44,0.881-0.44c0.026,0,0.053,0.002,0.078,0.004
			c0.012,0.004,0.019,0.004,0.028,0.004C15.787,40.41,15.827,40.416,15.874,40.426 M24.673,40.851
			c-0.101,0.096-0.253,0.147-0.456,0.151c-0.286-0.384-1.026-1.29-1.97-1.751c-0.082-0.042-0.174-0.048-0.261-0.016
			c-0.085,0.027-0.155,0.089-0.195,0.173c-0.04,0.081-0.046,0.172-0.018,0.26c0.03,0.087,0.093,0.154,0.174,0.196
			c0.797,0.389,1.458,1.192,1.717,1.538c-0.027,0.058-0.062,0.111-0.101,0.157c-0.128,0.146-0.32,0.218-0.562,0.216
			c-0.086-0.188-0.24-0.406-0.456-0.659c-0.291-0.337-0.878-0.748-0.901-0.764c-0.075-0.054-0.166-0.073-0.257-0.06
			c-0.091,0.016-0.168,0.067-0.22,0.141c-0.053,0.078-0.074,0.167-0.058,0.252c0.015,0.094,0.066,0.171,0.14,0.223
			c0.151,0.107,0.584,0.433,0.778,0.659c0.228,0.264,0.32,0.423,0.354,0.5c-0.031,0.062-0.079,0.143-0.154,0.214
			c-0.123,0.119-0.272,0.167-0.455,0.146c-0.086-0.192-0.278-0.556-0.623-0.945c-0.125-0.141-0.342-0.152-0.482-0.029
			c-0.068,0.062-0.108,0.145-0.114,0.236c-0.006,0.091,0.024,0.179,0.084,0.248c0.238,0.266,0.387,0.514,0.471,0.683
			c-0.056,0.036-0.115,0.067-0.179,0.089c-0.171,0.07-0.356,0.094-0.55,0.07c0.085-0.134,0.136-0.272,0.152-0.411
			c0.02-0.19-0.017-0.477-0.304-0.756c-0.148-0.151-0.439-0.282-0.825-0.221c-0.03-0.213-0.141-0.401-0.332-0.565
			c-0.311-0.271-0.671-0.344-1.075-0.223l0,0c-0.062-0.154-0.201-0.365-0.519-0.521c-0.283-0.144-0.598-0.165-0.913-0.063
			c-0.281-0.236-0.644-0.284-0.749-0.292c-0.453-0.06-1.039,0.156-1.428,0.523c-1.951,1.042-4.459,2.174-5.479,2.624
			c-0.535-1.006-0.99-2.094-1.355-3.229c-0.101-0.31-0.195-0.629-0.281-0.948c2.867-0.329,5.172-0.665,6.854-1
			c1.765-0.352,2.902-0.713,3.483-1.1c0.672-0.477,1.131-0.707,1.77-0.653c0.152,0.016,0.291,0.03,0.417,0.048
			c-0.122,0.05-0.237,0.113-0.351,0.194c-0.27,0.188-0.433,0.325-0.581,0.444c-0.146,0.117-0.264,0.215-0.449,0.336
			c-0.128,0.081-0.304,0.168-0.473,0.25c-0.398,0.198-0.715,0.352-0.817,0.621c-0.107,0.292-0.064,0.548,0.136,0.832
			c0.306,0.431,0.803,0.4,1.202,0.377c0.445-0.024,0.992-0.187,1.389-0.421c0.144-0.082,0.269-0.163,0.379-0.236
			c0.171-0.115,0.32-0.212,0.424-0.234c0.006-0.002,0.014-0.002,0.02-0.004c0.346-0.095,0.736-0.056,1.196,0.121
			c0.413,0.161,0.82,0.409,1.197,0.655c0.894,0.581,1.557,1.365,1.752,1.611C24.81,40.633,24.771,40.76,24.673,40.851
			 M25.912,40.587c-0.294-0.209-0.498-0.419-0.593-0.53c-0.003-0.004-0.003-0.004-0.005-0.006l-0.012-0.01
			c-0.026-0.032-0.043-0.056-0.048-0.063c-0.307-0.367-0.95-1.068-1.808-1.626c-0.63-0.408-1.8-1.171-2.935-0.865
			c-0.227,0.05-0.424,0.183-0.649,0.33c-0.107,0.075-0.219,0.145-0.345,0.22c-0.354,0.203-0.801,0.312-1.086,0.328
			c-0.322,0.018-0.525,0.02-0.605-0.094c-0.074-0.105-0.071-0.139-0.06-0.175c0.072-0.065,0.341-0.196,0.483-0.266
			c0.187-0.096,0.383-0.187,0.545-0.294c0.214-0.141,0.358-0.256,0.508-0.379c0.137-0.111,0.292-0.238,0.542-0.415
			c0.341-0.238,0.714-0.246,1.278-0.256h0.009c0.087-0.002,0.175-0.006,0.268-0.008c0.067-0.002,0.139-0.002,0.209-0.006
			c0.604-0.03,1.149,0.166,1.973,0.464c0.239,0.086,0.511,0.183,0.818,0.288c0.048,0.014,1.158,0.365,2.667,0.725
			c1.311,0.312,3.247,0.706,5.064,0.827c-0.081,0.294-0.167,0.586-0.258,0.867c-0.378,1.182-0.855,2.303-1.416,3.339
			C29.549,42.611,27.357,41.656,25.912,40.587 M30.146,47.849c-0.874,0.822-1.624,1.107-2.097,1.203
			c-0.188,0.04-0.352,0.05-0.487,0.05c-0.142,0-0.25-0.01-0.32-0.024c-0.007-0.002-0.012-0.008-0.012-0.014
			c-0.03-0.625,0.209-1.234,0.708-1.816c0.155-0.176,0.331-0.347,0.526-0.51c0.004-0.002,0.009-0.002,0.015,0
			c0.005,0.004,0.007,0.008,0.007,0.014c-0.055,0.521-0.261,1.022-0.261,1.024c-0.032,0.077-0.015,0.165,0.042,0.227
			c0.058,0.058,0.144,0.075,0.219,0.043c0.684-0.27,1.275-0.266,1.652-0.218c0.005,0,0.01,0.004,0.013,0.008
			C30.153,47.843,30.151,47.847,30.146,47.849 M31.695,45.793c-0.28,0.381-0.585,0.704-0.907,0.952
			c-0.326,0.261-0.671,0.449-1.025,0.563c-0.332,0.105-0.611,0.13-0.789,0.13c-0.037,0-0.069-0.002-0.097-0.002
			c-0.006,0-0.013-0.009-0.013-0.015c-0.043-0.602,0.138-1.229,0.541-1.854c0.124-0.194,0.268-0.383,0.425-0.562
			c0.004-0.006,0.01-0.008,0.016-0.006c0.005,0.004,0.01,0.008,0.01,0.014c0.05,0.534-0.057,1.065-0.059,1.076
			c-0.016,0.077,0.018,0.158,0.084,0.206c0.069,0.046,0.157,0.048,0.226,0.004c0.616-0.391,1.197-0.504,1.577-0.532
			c0.003,0,0.01,0.002,0.012,0.008C31.699,45.783,31.699,45.789,31.695,45.793 M32.164,44.715c-0.296,0.29-0.621,0.515-0.962,0.663
			c-0.399,0.179-0.74,0.212-0.868,0.219l0,0c-0.008,0-0.013-0.007-0.014-0.013c-0.106-0.593,0.009-1.232,0.341-1.897
			c0.104-0.206,0.226-0.408,0.364-0.604c0.004-0.007,0.008-0.009,0.016-0.007c0.006,0,0.011,0.007,0.011,0.013
			c0.104,0.52,0.056,1.069,0.055,1.073c-0.007,0.081,0.034,0.159,0.106,0.2c0.072,0.04,0.162,0.032,0.225-0.02
			c0.571-0.454,1.138-0.627,1.512-0.692c0.004,0,0.01,0.004,0.013,0.008c0.003,0.002,0.003,0.01,0,0.016
			C32.726,44.082,32.457,44.434,32.164,44.715 M33.298,42.512c-0.26,0.319-0.557,0.582-0.875,0.771
			c-0.362,0.212-0.678,0.287-0.835,0.315c-0.001,0-0.001,0-0.002,0c-0.007,0-0.012-0.004-0.013-0.008
			c-0.18-0.611-0.141-1.269,0.113-1.957c0.076-0.206,0.17-0.413,0.281-0.609c0.004-0.008,0.008-0.008,0.014-0.008
			c0.007,0,0.012,0.004,0.013,0.01c0.164,0.514,0.19,1.056,0.19,1.06c0.003,0.086,0.058,0.157,0.134,0.187
			c0.08,0.03,0.165,0.008,0.223-0.056c0.453-0.492,0.908-0.718,1.209-0.823c0.072-0.023,0.146-0.044,0.22-0.062
			c0.005-0.002,0.01,0,0.014,0.006c0.003,0.002,0.003,0.01,0.001,0.012C33.793,41.798,33.562,42.19,33.298,42.512 M34.167,40.21
			c-0.229,0.343-0.497,0.627-0.796,0.85c-0.352,0.256-0.678,0.36-0.799,0.396c-0.002,0-0.004,0-0.006,0
			c-0.005,0-0.01-0.004-0.013-0.008c-0.291-0.703-0.205-1.459-0.083-1.965c0.055-0.23,0.128-0.461,0.22-0.685
			c0.002-0.004,0.008-0.01,0.013-0.01l0,0c0.006,0,0.011,0.006,0.013,0.01c0.216,0.502,0.293,1.069,0.299,1.094
			c0.008,0.083,0.067,0.148,0.146,0.168c0.079,0.024,0.164-0.002,0.215-0.065c0.46-0.565,0.976-0.854,1.328-0.996
			c0.005-0.002,0.011,0,0.016,0.006c0.003,0,0.005,0.008,0.003,0.012C34.576,39.468,34.391,39.868,34.167,40.21 M34.801,37.806
			c-0.182,0.37-0.412,0.686-0.683,0.938c-0.306,0.287-0.596,0.431-0.743,0.492c-0.001,0.002-0.003,0.002-0.005,0.002
			c-0.006,0-0.011-0.002-0.013-0.008c-0.313-0.56-0.426-1.225-0.337-1.976c0.028-0.231,0.076-0.464,0.141-0.694
			c0-0.006,0.005-0.008,0.011-0.01c0.006,0,0.012,0.002,0.015,0.008c0.28,0.479,0.43,1.063,0.431,1.072
			c0.018,0.079,0.083,0.137,0.165,0.152c0.083,0.012,0.162-0.023,0.207-0.095c0.386-0.618,0.863-0.963,1.195-1.147
			c0.004-0.004,0.011-0.004,0.015,0.002c0.004,0.002,0.006,0.008,0.004,0.012C35.118,37.021,34.981,37.438,34.801,37.806"/>
		<path fill="#FAC900" d="M24.11,13.557c0.448,0.005,0.898,0.104,1.338,0.295l0.065,0.012c0.238,0.042,0.719,0.117,1.243,0.147
			c0.041,0.006,0.085,0.006,0.128,0.008c-0.274-0.087-0.48-0.201-0.695-0.315c-0.133-0.075-0.269-0.148-0.425-0.219
			c-0.524-0.237-1.019-0.321-1.073-0.33c-0.069-0.01-0.12-0.069-0.12-0.141c0-0.068,0.051-0.126,0.12-0.137l2.426-0.363
			l-2.424-0.347c-0.058-0.009-0.105-0.053-0.117-0.11C24.564,12,24.588,11.939,24.64,11.91c0.015-0.01,0.396-0.25,0.949-0.372
			c0.235-0.053,0.707-0.166,1.205-0.338c0.04-0.013,0.082-0.03,0.122-0.044c-0.288,0.023-0.522,0-0.766-0.025
			c-0.148-0.017-0.299-0.034-0.475-0.038c-0.569-0.021-1.062,0.092-1.118,0.106c-0.067,0.018-0.136-0.02-0.163-0.084
			s-0.001-0.137,0.058-0.173l2.101-1.261l-2.372,0.604c-0.055,0.016-0.117-0.008-0.15-0.057c-0.033-0.047-0.032-0.111,0.002-0.159
			c0.01-0.016,0.276-0.387,0.734-0.708c0.198-0.138,0.591-0.427,0.982-0.773c0.033-0.029,0.064-0.058,0.095-0.087
			c-0.255,0.132-0.48,0.199-0.715,0.268c-0.147,0.042-0.292,0.086-0.455,0.148c-0.56,0.209-0.985,0.524-0.99,0.525
			c-0.057,0.042-0.136,0.037-0.184-0.014c-0.05-0.049-0.055-0.126-0.014-0.183l1.462-1.967l-1.962,1.466
			c-0.047,0.034-0.112,0.035-0.16,0.005c-0.051-0.033-0.075-0.091-0.06-0.147c0.003-0.02,0.105-0.465,0.407-0.935
			c0.129-0.208,0.382-0.62,0.61-1.094c0.02-0.039,0.036-0.077,0.056-0.117c-0.186,0.221-0.368,0.368-0.558,0.522
			c-0.12,0.098-0.238,0.193-0.364,0.312c-0.418,0.394-0.685,0.818-0.714,0.865c-0.034,0.06-0.107,0.085-0.173,0.059
			c-0.063-0.025-0.099-0.097-0.082-0.165l0.598-2.374l-1.254,2.103c-0.03,0.052-0.09,0.077-0.146,0.068
			c-0.058-0.013-0.103-0.056-0.113-0.115c-0.004-0.02-0.077-0.466,0.019-1.02c0.041-0.237,0.116-0.719,0.146-1.242
			c0.003-0.043,0.003-0.086,0.005-0.131c-0.088,0.277-0.199,0.485-0.315,0.697c-0.072,0.132-0.145,0.269-0.217,0.428
			c-0.244,0.542-0.322,1.051-0.326,1.073c-0.01,0.067-0.069,0.119-0.139,0.119c-0.068,0-0.128-0.052-0.138-0.119l-0.352-2.406
			l-0.339,2.405c-0.008,0.058-0.053,0.104-0.11,0.117c-0.057,0.012-0.117-0.014-0.147-0.063c-0.026-0.041-0.254-0.417-0.371-0.949
			c-0.052-0.237-0.166-0.71-0.336-1.205c-0.014-0.041-0.029-0.081-0.044-0.122c0.023,0.288-0.002,0.521-0.028,0.765
			c-0.016,0.149-0.032,0.304-0.038,0.478c-0.02,0.59,0.101,1.095,0.107,1.116c0.017,0.067-0.018,0.137-0.082,0.162
			c-0.065,0.027-0.14,0.002-0.176-0.057l-1.265-2.102l0.609,2.372c0.015,0.056-0.008,0.116-0.057,0.149
			c-0.048,0.032-0.113,0.031-0.16-0.002c-0.04-0.028-0.394-0.288-0.706-0.735c-0.138-0.197-0.424-0.59-0.774-0.983
			c-0.027-0.032-0.057-0.063-0.085-0.095c0.131,0.256,0.197,0.482,0.266,0.717c0.043,0.143,0.087,0.291,0.147,0.455
			c0.205,0.535,0.494,0.945,0.526,0.989c0.042,0.056,0.036,0.135-0.013,0.184C16.59,8.774,16.511,8.78,16.455,8.74l-1.971-1.461
			l1.471,1.961c0.033,0.048,0.035,0.112,0.005,0.16c-0.033,0.05-0.093,0.075-0.15,0.061c-0.02-0.005-0.459-0.107-0.936-0.407
			c-0.203-0.129-0.617-0.382-1.091-0.612c-0.037-0.019-0.078-0.038-0.116-0.055c0.22,0.185,0.368,0.368,0.522,0.56
			c0.094,0.116,0.192,0.236,0.311,0.363c0.41,0.438,0.861,0.71,0.865,0.714c0.062,0.035,0.085,0.108,0.057,0.172
			c-0.027,0.064-0.096,0.102-0.163,0.082l-2.381-0.595l2.109,1.251c0.051,0.03,0.077,0.088,0.065,0.146
			c-0.01,0.059-0.057,0.104-0.115,0.112c-0.017,0.004-0.464,0.079-1.018-0.019c-0.239-0.041-0.715-0.116-1.243-0.146
			c-0.042-0.003-0.085-0.006-0.129-0.006c0.275,0.088,0.482,0.199,0.697,0.316c0.125,0.067,0.266,0.144,0.426,0.217
			c0.545,0.244,1.068,0.325,1.072,0.325c0.068,0.012,0.121,0.07,0.119,0.139c0,0.07-0.05,0.131-0.119,0.14l-2.428,0.355l2.43,0.354
			c0.058,0.01,0.104,0.055,0.116,0.111c0.011,0.056-0.013,0.116-0.062,0.146c-0.018,0.011-0.402,0.252-0.949,0.375
			c-0.236,0.053-0.708,0.167-1.205,0.339c-0.04,0.016-0.08,0.029-0.119,0.044c0.287-0.023,0.521,0,0.764,0.024
			c0.035,0.007,0.374,0.035,0.474,0.039c0.122,0.004,0.248,0.002,0.378-0.007l0.028-0.021c0.473-0.327,1.057-0.586,1.736-0.774
			c0.086-0.021,0.18-0.003,0.249,0.053c0.057,0.047,0.092,0.115,0.101,0.187c0.124-0.071,0.255-0.137,0.391-0.196
			c0.514-0.223,1.127-0.364,1.824-0.424c0.086-0.006,0.167,0.024,0.226,0.088c0.041,0.045,0.065,0.102,0.072,0.161
			c0.193-0.076,0.401-0.136,0.62-0.177c0.549-0.11,1.18-0.118,1.873-0.027c0.092,0.013,0.17,0.068,0.214,0.151
			c0.01,0.024,0.019,0.049,0.022,0.074c0.188-0.028,0.386-0.041,0.593-0.041c0.559,0.006,1.179,0.123,1.837,0.35
			c0.092,0.032,0.158,0.108,0.179,0.202C24.107,13.551,24.108,13.555,24.11,13.557"/>
		<path fill="#1E120D" d="M20.577,10.49c2.359-0.376,2.619,0.307,2.619,0.307s0.065,0.152,0.254,0.104c0,0,0.161-0.017,0.081-0.207
			c0,0-0.259-0.771-1.514-0.905c0,0-0.645-0.087-1.355,0.038c-0.209,0.038-0.269,0.5-0.269,0.5
			C20.363,10.533,20.577,10.49,20.577,10.49"/>
		<path fill="#1E120D" d="M18.564,10.948c-0.29-0.13-0.946-0.104-0.946-0.104c-1.065,0.036-1.345,0.696-1.345,0.696
			c-0.094,0.223,0.094,0.241,0.094,0.241c0.221,0.058,0.294-0.124,0.294-0.124s0.062-0.188,0.501-0.296
			c-0.025,0.063-0.039,0.13-0.039,0.201c0,0.303,0.245,0.547,0.544,0.547c0.303,0,0.547-0.244,0.547-0.547
			c0-0.076-0.015-0.148-0.044-0.214c0.151,0.059,0.298,0.163,0.392,0.354c0.038,0.077,0.121,0.111,0.323,0.111
			c0.217,0,0.165-0.144,0.165-0.144C18.917,11.113,18.564,10.948,18.564,10.948"/>
		<path fill="#1E120D" d="M20.529,11.814c0.202,0,0.284-0.033,0.322-0.111c0.093-0.19,0.24-0.295,0.39-0.354
			c-0.028,0.065-0.042,0.138-0.042,0.214c0,0.303,0.242,0.547,0.544,0.547c0.302,0,0.547-0.244,0.547-0.547
			c0-0.071-0.015-0.139-0.039-0.201c0.438,0.108,0.499,0.296,0.499,0.296s0.075,0.18,0.297,0.124c0,0,0.186-0.019,0.092-0.241
			c0,0-0.279-0.66-1.346-0.696c0,0-0.657-0.026-0.946,0.104c0,0-0.353,0.165-0.484,0.723C20.363,11.671,20.309,11.814,20.529,11.814
			"/>
		<path fill="#1E120D" d="M15.964,10.901c0.19,0.048,0.252-0.106,0.252-0.106s0.261-0.681,2.621-0.305c0,0,0.212,0.043,0.184-0.163
			c0,0-0.06-0.462-0.269-0.5c-0.71-0.125-1.355-0.038-1.355-0.038c-1.254,0.135-1.513,0.906-1.513,0.906
			C15.802,10.885,15.964,10.901,15.964,10.901"/>
		<path fill="#61A227" d="M30.139,47.827c-0.377-0.048-0.969-0.052-1.652,0.218c-0.074,0.03-0.161,0.015-0.219-0.043
			c-0.059-0.062-0.074-0.149-0.042-0.227c0-0.002,0.207-0.504,0.261-1.024c0-0.006-0.002-0.01-0.007-0.014
			c-0.005-0.002-0.01-0.002-0.015,0c-0.195,0.163-0.371,0.334-0.526,0.51c-0.499,0.582-0.738,1.191-0.708,1.816
			c0,0.006,0.005,0.012,0.012,0.014c0.07,0.015,0.179,0.024,0.32,0.024c0.135,0,0.299-0.01,0.487-0.05
			c0.473-0.096,1.223-0.381,2.097-1.199c0.005-0.006,0.007-0.01,0.005-0.018C30.148,47.831,30.144,47.827,30.139,47.827"/>
		<path fill="#61A227" d="M10.991,46.726c-0.006-0.002-0.013-0.006-0.019,0c-0.003,0.002-0.006,0.006-0.006,0.012
			c0.045,0.542,0.25,1.036,0.251,1.038c0.032,0.077,0.016,0.165-0.042,0.227c-0.058,0.056-0.146,0.073-0.222,0.043
			c-0.687-0.27-1.277-0.27-1.65-0.218c-0.006,0-0.012,0.002-0.012,0.008c-0.002,0.004,0,0.01,0.002,0.014
			c0.706,0.661,1.413,1.068,2.099,1.203c0.188,0.04,0.354,0.05,0.487,0.05c0.151,0,0.262-0.017,0.32-0.024
			c0.006-0.002,0.011-0.008,0.011-0.014C12.261,47.96,11.467,47.124,10.991,46.726"/>
		<path fill="#61A227" d="M31.684,45.769c-0.38,0.028-0.961,0.142-1.577,0.532c-0.069,0.044-0.157,0.042-0.224-0.004
			c-0.069-0.048-0.103-0.129-0.086-0.206c0.002-0.011,0.109-0.542,0.059-1.076c0-0.006-0.005-0.01-0.01-0.014
			c-0.006-0.002-0.012,0-0.016,0.006c-0.157,0.179-0.301,0.367-0.425,0.562c-0.403,0.629-0.584,1.252-0.541,1.854
			c0,0.006,0.007,0.015,0.013,0.015c0.028,0,0.061,0.002,0.097,0.002c0.178,0,0.457-0.024,0.789-0.134
			c0.354-0.11,0.7-0.299,1.025-0.56c0.322-0.248,0.627-0.571,0.908-0.952c0.003-0.004,0.003-0.01,0-0.017
			C31.694,45.771,31.688,45.769,31.684,45.769"/>
		<path fill="#61A227" d="M32.951,43.649c-0.375,0.065-0.941,0.238-1.512,0.692c-0.065,0.052-0.153,0.06-0.227,0.02
			c-0.07-0.041-0.112-0.119-0.105-0.2c0.001-0.004,0.049-0.554-0.055-1.073c-0.002-0.006-0.005-0.013-0.012-0.013
			c-0.006-0.002-0.01,0-0.014,0.007c-0.138,0.196-0.259,0.398-0.364,0.604c-0.333,0.665-0.448,1.305-0.341,1.897
			c0,0.006,0.006,0.015,0.014,0.015l0,0c0.128-0.009,0.468-0.042,0.868-0.221c0.341-0.148,0.665-0.371,0.961-0.663
			c0.293-0.281,0.562-0.633,0.8-1.042c0.003-0.006,0.003-0.014,0-0.016C32.96,43.653,32.955,43.649,32.951,43.649"/>
		<path fill="#61A227" d="M33.97,41.331c-0.074,0.018-0.148,0.038-0.22,0.062c-0.302,0.105-0.756,0.331-1.209,0.823
			c-0.058,0.063-0.143,0.086-0.223,0.056c-0.076-0.029-0.131-0.101-0.134-0.187c0-0.004-0.026-0.546-0.19-1.06
			c0-0.006-0.005-0.01-0.013-0.01c-0.006,0-0.01,0-0.014,0.004c-0.111,0.2-0.205,0.407-0.281,0.615
			c-0.254,0.687-0.292,1.344-0.113,1.955c0.001,0.004,0.008,0.008,0.013,0.008c0,0,0.001,0,0.002,0
			c0.157-0.028,0.473-0.104,0.835-0.317c0.319-0.187,0.616-0.447,0.875-0.769c0.265-0.321,0.496-0.714,0.687-1.163
			c0.002-0.002,0.002-0.01-0.001-0.012C33.979,41.331,33.975,41.329,33.97,41.331"/>
		<path fill="#61A227" d="M34.703,38.999c-0.352,0.143-0.868,0.431-1.328,0.996c-0.051,0.063-0.136,0.09-0.215,0.065
			c-0.079-0.02-0.138-0.085-0.147-0.168c-0.004-0.024-0.082-0.592-0.298-1.094c-0.002-0.004-0.007-0.01-0.013-0.01
			c-0.005,0-0.011,0.006-0.013,0.01c-0.091,0.224-0.165,0.454-0.22,0.685c-0.122,0.506-0.208,1.258,0.083,1.965
			c0.003,0.004,0.008,0.008,0.013,0.008c0.001,0,0.004,0,0.006,0c0.121-0.036,0.447-0.141,0.799-0.396
			c0.3-0.223,0.568-0.507,0.795-0.85c0.226-0.342,0.412-0.742,0.557-1.193c0.002-0.004,0-0.012-0.005-0.012
			C34.714,38.999,34.708,38.997,34.703,38.999"/>
		<path fill="#61A227" d="M35.185,36.54c-0.332,0.185-0.809,0.529-1.195,1.147c-0.043,0.071-0.124,0.106-0.207,0.095
			c-0.082-0.016-0.146-0.073-0.165-0.152c-0.001-0.009-0.151-0.594-0.431-1.072c-0.002-0.006-0.008-0.008-0.015-0.008
			c-0.006,0.002-0.01,0.004-0.011,0.01c-0.065,0.23-0.113,0.463-0.141,0.694c-0.089,0.751,0.024,1.416,0.335,1.976
			c0.003,0.006,0.008,0.008,0.014,0.008c0.001,0,0.003,0,0.005-0.002c0.147-0.062,0.439-0.205,0.743-0.492
			c0.271-0.252,0.501-0.567,0.683-0.938c0.18-0.367,0.317-0.785,0.402-1.252c0.002-0.004,0-0.01-0.004-0.012
			C35.195,36.536,35.188,36.536,35.185,36.54"/>
		<path fill="#61A227" d="M34.344,35.337c-0.036,0.073-0.114,0.121-0.197,0.117c-0.085-0.006-0.155-0.062-0.182-0.141
			c-0.002-0.004-0.189-0.554-0.529-0.971c-0.003-0.004-0.01-0.006-0.015-0.006c-0.005,0.002-0.009,0.008-0.01,0.014
			c-0.046,0.232-0.071,0.471-0.075,0.705c-0.013,0.734,0.172,1.367,0.552,1.883c0.004,0.004,0.008,0.006,0.013,0.006
			c0.003,0,0.004,0,0.007-0.002c0.112-0.062,0.403-0.233,0.684-0.567c0.24-0.281,0.433-0.621,0.572-1.008
			c0.14-0.384,0.226-0.816,0.259-1.286c0.001-0.008-0.001-0.012-0.007-0.017c-0.003-0.004-0.01-0.004-0.015,0.005
			C35.092,34.283,34.659,34.685,34.344,35.337"/>
		<path fill="#61A227" d="M34.258,33.103c-0.085,0.008-0.16-0.042-0.197-0.115c-0.001-0.002-0.24-0.48-0.603-0.875
			c-0.006-0.006-0.012-0.006-0.017-0.006c-0.005,0.004-0.008,0.008-0.008,0.014c-0.023,0.604,0.04,1.729,0.711,2.486
			c0.002,0.002,0.007,0.004,0.011,0.004c0.001,0,0.004,0,0.008-0.002c0.104-0.071,0.376-0.273,0.625-0.631
			c0.21-0.304,0.367-0.657,0.468-1.056c0.101-0.397,0.144-0.834,0.13-1.311c0-0.006-0.002-0.01-0.008-0.014
			c-0.004-0.002-0.01,0-0.014,0.004c-0.286,0.244-0.679,0.683-0.927,1.368C34.411,33.047,34.339,33.099,34.258,33.103"/>
		<path fill="#61A227" d="M34.144,30.703c-0.082,0.012-0.162-0.024-0.207-0.092c-0.002-0.006-0.28-0.446-0.667-0.798
			c-0.005-0.004-0.012-0.005-0.016-0.003c-0.006,0.003-0.009,0.008-0.009,0.016c0.062,0.658,0.261,1.843,0.923,2.393
			c0.003,0.002,0.006,0.006,0.01,0.006c0.001,0,0.005-0.004,0.009-0.006c0.098-0.081,0.353-0.312,0.568-0.696
			c0.18-0.323,0.303-0.69,0.364-1.1c0.062-0.403,0.062-0.843,0.002-1.313c0-0.007-0.004-0.011-0.01-0.014
			c-0.006-0.001-0.011,0-0.014,0.004c-0.259,0.275-0.609,0.747-0.788,1.451C34.29,30.631,34.225,30.69,34.144,30.703"/>
		<path fill="#61A227" d="M33.827,28.368c-0.082,0.018-0.165-0.016-0.21-0.085c-0.002-0.004-0.315-0.448-0.729-0.783
			c-0.003-0.004-0.01-0.004-0.016-0.001c-0.005,0.002-0.007,0.009-0.007,0.015c0.025,0.238,0.065,0.472,0.12,0.696
			c0.125,0.499,0.39,1.194,0.947,1.664c0.003,0.002,0.005,0.003,0.008,0.003c0.003,0,0.007-0.001,0.011-0.004
			c0.094-0.086,0.331-0.325,0.526-0.715c0.164-0.332,0.27-0.707,0.312-1.116c0.042-0.404,0.022-0.845-0.06-1.312
			c0-0.006-0.005-0.01-0.01-0.012c-0.005,0-0.011,0-0.016,0.004c-0.246,0.286-0.569,0.776-0.716,1.486
			C33.97,28.291,33.907,28.353,33.827,28.368"/>
		<path fill="#61A227" d="M33.306,26.064c-0.079,0.028-0.164,0.004-0.22-0.056c-0.002-0.002-0.378-0.408-0.841-0.684
			c-0.004-0.002-0.01-0.002-0.015,0.002c-0.005,0.002-0.007,0.009-0.005,0.013c0.052,0.231,0.12,0.455,0.204,0.668
			c0.273,0.694,0.671,1.21,1.19,1.532c0.002,0.003,0.004,0.003,0.007,0.003c0.003,0,0.007-0.003,0.01-0.004
			c0.082-0.098,0.285-0.369,0.424-0.779c0.118-0.351,0.169-0.737,0.155-1.148c-0.015-0.407-0.095-0.84-0.241-1.292
			c-0.001-0.006-0.006-0.008-0.012-0.01c-0.005,0-0.009,0.002-0.015,0.006c-0.204,0.315-0.458,0.845-0.506,1.568
			C33.437,25.967,33.384,26.037,33.306,26.064"/>
		<path fill="#61A227" d="M32.285,23.775c-0.005-0.003-0.422-0.368-0.907-0.594c-0.005-0.003-0.013-0.001-0.016,0.001
			c-0.005,0.004-0.007,0.011-0.005,0.016c0.075,0.226,0.167,0.44,0.273,0.643c0.34,0.662,0.794,1.133,1.342,1.404
			c0.002,0.002,0.004,0.002,0.006,0.002c0.005,0,0.01-0.002,0.012-0.006c0.072-0.105,0.246-0.396,0.339-0.82
			c0.081-0.358,0.093-0.748,0.037-1.153c-0.058-0.406-0.182-0.829-0.375-1.264C32.99,22,32.985,21.996,32.98,21.996
			c-0.007-0.003-0.01,0.002-0.014,0.006c-0.17,0.336-0.37,0.888-0.341,1.612c0.003,0.084-0.042,0.158-0.117,0.195
			C32.434,23.843,32.345,23.831,32.285,23.775"/>
		<path fill="#61A227" d="M30.247,21.163c-0.003,0.004-0.005,0.008-0.003,0.015c0.095,0.222,0.208,0.435,0.336,0.632
			c0.403,0.615,0.921,1.038,1.54,1.253c0.002,0,0.003,0,0.004,0c0.005,0,0.011-0.002,0.013-0.006
			c0.059-0.113,0.198-0.42,0.241-0.852c0.039-0.366,0.004-0.753-0.101-1.152c-0.104-0.394-0.278-0.802-0.52-1.212
			c-0.003-0.006-0.007-0.008-0.013-0.008c-0.007,0-0.011,0.004-0.013,0.009c-0.13,0.351-0.261,0.923-0.149,1.637
			c0.013,0.085-0.026,0.168-0.099,0.211c-0.072,0.042-0.166,0.034-0.232-0.017c-0.003-0.004-0.46-0.364-0.99-0.514
			C30.255,21.156,30.25,21.159,30.247,21.163"/>
		<path fill="#61A227" d="M28.895,19.371c-0.003,0.004-0.003,0.012,0,0.015c0.142,0.211,0.301,0.409,0.47,0.589
			c0.512,0.546,1.078,0.877,1.681,0.991c0.002,0,0.002,0,0.002,0c0.007,0,0.013-0.005,0.015-0.012
			c0.048-0.147,0.125-0.459,0.1-0.874c-0.022-0.369-0.118-0.746-0.287-1.123c-0.163-0.367-0.396-0.734-0.693-1.095
			c-0.004-0.004-0.009-0.005-0.015-0.004c-0.005,0-0.009,0.004-0.01,0.012c-0.062,0.386-0.095,0.983,0.103,1.623
			c0.027,0.083-0.004,0.174-0.073,0.226c-0.072,0.052-0.167,0.054-0.238,0.003c-0.006-0.003-0.463-0.316-1.041-0.358
			C28.901,19.363,28.896,19.365,28.895,19.371"/>
		<path fill="#61A227" d="M28.64,17.914c-0.056,0.063-0.148,0.085-0.227,0.054c-0.005-0.003-0.484-0.186-0.999-0.186
			c-0.025,0-0.052,0-0.077,0.002c-0.005,0-0.012,0.002-0.012,0.008c-0.004,0.006-0.002,0.011,0.001,0.016
			c0.189,0.196,0.387,0.375,0.592,0.532c0.411,0.313,1.04,0.688,1.721,0.688c0.012,0,0.025,0,0.036,0
			c0.007,0,0.014-0.007,0.014-0.012c0.017-0.128,0.043-0.471-0.059-0.901c-0.083-0.364-0.239-0.723-0.462-1.068
			c-0.222-0.337-0.507-0.664-0.854-0.972c-0.006-0.004-0.012-0.004-0.017-0.003c-0.004,0.003-0.007,0.008-0.009,0.013
			c-0.01,0.375,0.046,0.956,0.381,1.598C28.709,17.759,28.696,17.851,28.64,17.914"/>
		<path fill="#61A227" d="M10.49,47.438c0.036,0,0.07-0.002,0.097-0.002c0.008,0,0.015-0.009,0.015-0.015
			c0.06-0.992-0.586-1.933-0.978-2.405c-0.003-0.004-0.009-0.008-0.016-0.004c-0.005,0.002-0.009,0.006-0.01,0.012
			c-0.059,0.542,0.066,1.046,0.067,1.054c0.02,0.082-0.009,0.167-0.079,0.217c-0.068,0.048-0.157,0.05-0.23,0.006
			c-0.62-0.396-1.201-0.508-1.576-0.532c-0.007-0.002-0.011,0-0.013,0.006c-0.004,0.007-0.004,0.013,0,0.017
			c0.281,0.383,0.586,0.704,0.908,0.954c0.326,0.261,0.67,0.449,1.026,0.56C10.033,47.414,10.314,47.438,10.49,47.438"/>
		<path fill="#61A227" d="M9.13,45.597L9.13,45.597c0.007,0,0.013-0.007,0.014-0.013c0.125-0.724-0.119-1.423-0.346-1.883
			c-0.102-0.207-0.224-0.413-0.36-0.611c-0.003-0.002-0.01-0.004-0.014-0.004c-0.006,0.002-0.011,0.004-0.014,0.01
			c-0.11,0.535-0.054,1.04-0.052,1.062c0.008,0.083-0.03,0.161-0.104,0.202c-0.073,0.042-0.162,0.034-0.226-0.018
			c-0.578-0.456-1.142-0.629-1.513-0.692c-0.007,0-0.012,0-0.016,0.006c-0.004,0.004-0.004,0.01,0,0.016
			c0.239,0.409,0.509,0.761,0.801,1.044c0.298,0.29,0.622,0.515,0.962,0.663C8.647,45.549,8.971,45.586,9.13,45.597"/>
		<path fill="#61A227" d="M7.864,43.627c0.001,0,0.002,0,0.002,0c0.006,0,0.012-0.002,0.014-0.01
			c0.186-0.602,0.15-1.256-0.106-1.944c-0.081-0.217-0.18-0.427-0.297-0.632c-0.001-0.006-0.006-0.008-0.013-0.008
			c-0.006,0-0.01,0.004-0.013,0.01c-0.169,0.511-0.186,1.068-0.186,1.072c-0.002,0.081-0.052,0.156-0.128,0.188
			c-0.077,0.027-0.162,0.01-0.221-0.048c-0.445-0.448-0.907-0.679-1.217-0.796c-0.068-0.021-0.137-0.048-0.205-0.065
			c-0.005-0.002-0.01,0-0.013,0.002c-0.004,0.006-0.005,0.012-0.003,0.016c0.19,0.437,0.416,0.818,0.674,1.134
			c0.26,0.319,0.555,0.577,0.877,0.766C7.405,43.534,7.739,43.607,7.864,43.627"/>
		<path fill="#61A227" d="M6.836,41.5c0.001,0,0.002,0.004,0.004,0.004c0.005,0,0.011-0.006,0.012-0.01
			c0.478-1.057,0.146-2.097-0.095-2.624c-0.001-0.004-0.007-0.008-0.012-0.008c-0.006,0-0.011,0.004-0.013,0.008
			c-0.233,0.492-0.315,1.054-0.316,1.06c-0.011,0.081-0.07,0.149-0.149,0.171s-0.165-0.008-0.214-0.073
			c-0.39-0.494-0.823-0.774-1.117-0.925c-0.063-0.034-0.13-0.063-0.195-0.09c-0.005-0.002-0.011-0.002-0.017,0
			c-0.004,0.004-0.005,0.01-0.004,0.016C5.282,40.879,6.385,41.375,6.836,41.5"/>
		<path fill="#61A227" d="M5.302,38.811c0.331,0.29,0.646,0.425,0.768,0.466c0.001,0,0.002,0.005,0.005,0.005
			c0.004,0,0.01-0.007,0.011-0.011c0.376-0.641,0.491-1.315,0.343-2.01c-0.047-0.225-0.123-0.445-0.222-0.655
			c0-0.004-0.007-0.006-0.012-0.006c-0.005-0.002-0.01,0.002-0.012,0.006c-0.282,0.473-0.412,1.048-0.419,1.071l0.017,0.004
			l-0.017-0.004c-0.017,0.082-0.08,0.144-0.16,0.159c-0.08,0.014-0.162-0.02-0.208-0.087c-0.41-0.609-0.897-0.939-1.232-1.11
			c-0.005-0.004-0.011-0.004-0.016,0.002c-0.004,0.005-0.006,0.011-0.005,0.015c0.104,0.462,0.252,0.879,0.446,1.238
			C4.782,38.255,5.023,38.564,5.302,38.811"/>
		<path fill="#61A227" d="M5.438,37.017c0.001,0,0.004,0.004,0.006,0.004c0.002,0,0.008-0.004,0.01-0.006
			c0.767-1.038,0.693-2.063,0.581-2.581c-0.001-0.006-0.005-0.01-0.01-0.01c-0.005-0.004-0.011,0-0.015,0.004
			c-0.36,0.427-0.583,0.963-0.584,0.967c-0.032,0.077-0.105,0.127-0.187,0.131H5.236c-0.081,0-0.154-0.052-0.187-0.125
			c-0.254-0.573-0.604-0.95-0.851-1.165c-0.055-0.048-0.112-0.093-0.169-0.137c-0.005-0.002-0.011-0.002-0.016-0.002
			c-0.005,0.006-0.008,0.008-0.008,0.014C4.091,36.032,5.034,36.784,5.438,37.017"/>
		<path fill="#61A227" d="M5.239,34.687c0.002,0.002,0.005,0.004,0.007,0.004c0.003,0,0.006-0.002,0.011-0.004
			c0.372-0.359,0.609-0.828,0.705-1.39c0.079-0.471,0.041-0.909-0.004-1.197c0-0.006-0.004-0.01-0.01-0.01
			c-0.003-0.002-0.009-0.002-0.013,0.002c-0.432,0.396-0.524,0.907-0.524,0.911c-0.016,0.094-0.092,0.165-0.189,0.169
			c-0.092,0.008-0.179-0.05-0.208-0.139c-0.194-0.598-0.501-1.009-0.724-1.249c-0.05-0.054-0.101-0.104-0.154-0.152
			c-0.004-0.006-0.009-0.006-0.014-0.004c-0.007,0.004-0.009,0.008-0.009,0.014C3.991,33.57,4.859,34.414,5.239,34.687"/>
		<path fill="#61A227" d="M4.679,31.522c0.212,0.377,0.46,0.609,0.56,0.688c0.002,0.002,0.005,0.006,0.009,0.006
			c0.003,0,0.007-0.004,0.009-0.006c0.446-0.41,0.734-0.992,0.853-1.729c0.041-0.233,0.061-0.477,0.061-0.724
			c0-0.005-0.002-0.01-0.008-0.012c-0.005-0.002-0.01-0.002-0.014,0.002c-0.412,0.366-0.638,0.838-0.639,0.842
			c-0.037,0.077-0.12,0.125-0.205,0.115c-0.087-0.008-0.157-0.069-0.179-0.153c-0.18-0.704-0.527-1.176-0.787-1.451
			c-0.005-0.004-0.01-0.005-0.016-0.004C4.317,29.1,4.313,29.104,4.313,29.11c-0.059,0.469-0.059,0.909,0.002,1.313
			C4.376,30.832,4.499,31.199,4.679,31.522"/>
		<path fill="#61A227" d="M4.927,29.126c0.185,0.371,0.407,0.606,0.521,0.71c0.004,0.003,0.008,0.006,0.011,0.006
			c0.002,0,0.006-0.003,0.009-0.006c0.512-0.456,0.854-1.041,1.014-1.741c0.047-0.209,0.077-0.424,0.085-0.639
			c0.002-0.006-0.001-0.011-0.006-0.012c-0.005-0.003-0.012-0.003-0.015,0.001c-0.425,0.334-0.744,0.789-0.758,0.807
			c-0.047,0.069-0.129,0.103-0.209,0.085c-0.083-0.016-0.145-0.08-0.16-0.158c-0.147-0.712-0.473-1.203-0.719-1.487
			c-0.003-0.005-0.009-0.007-0.014-0.005c-0.005,0.002-0.009,0.006-0.01,0.014c-0.083,0.466-0.101,0.906-0.059,1.312
			C4.658,28.42,4.762,28.796,4.927,29.126"/>
		<path fill="#61A227" d="M5.766,27.512c0.002,0.004,0.006,0.005,0.011,0.005c0.003,0,0.005-0.001,0.007-0.003
			c0.618-0.386,1.044-0.928,1.27-1.612c0.068-0.211,0.115-0.427,0.14-0.643c0.001-0.007-0.001-0.012-0.006-0.016
			c-0.006-0.002-0.01-0.002-0.016-0.001c-0.504,0.29-0.87,0.723-0.874,0.728c-0.053,0.063-0.14,0.089-0.219,0.063
			s-0.134-0.097-0.142-0.18c-0.058-0.729-0.32-1.252-0.528-1.563c-0.004-0.005-0.009-0.006-0.014-0.005
			c-0.006,0-0.01,0.005-0.012,0.009c-0.14,0.455-0.214,0.892-0.223,1.3c-0.009,0.41,0.048,0.796,0.17,1.145
			C5.475,27.146,5.681,27.414,5.766,27.512"/>
		<path fill="#61A227" d="M6.364,25.233c0.002,0.004,0.006,0.005,0.01,0.005c0.003,0,0.005,0,0.007-0.001
			c0.66-0.329,1.152-0.817,1.461-1.449c0.095-0.193,0.169-0.396,0.222-0.602c0.001-0.005-0.002-0.009-0.005-0.014
			c-0.003-0.004-0.009-0.005-0.014-0.001c-0.506,0.218-0.943,0.591-0.961,0.604c-0.062,0.056-0.15,0.068-0.224,0.032
			c-0.074-0.037-0.118-0.113-0.115-0.195c0.034-0.73-0.157-1.282-0.328-1.616c0-0.005-0.006-0.008-0.012-0.008
			c-0.005,0-0.01,0.004-0.012,0.008c-0.196,0.433-0.325,0.856-0.385,1.261c-0.062,0.406-0.053,0.795,0.024,1.155
			C6.12,24.818,6.276,25.1,6.364,25.233"/>
		<path fill="#61A227" d="M7.222,23.055c0.001,0.006,0.006,0.008,0.011,0.008c0.002,0,0.002,0,0.003,0
			c0.596-0.173,1.12-0.566,1.56-1.171c0.188-0.259,0.323-0.507,0.401-0.669C9.2,21.218,9.2,21.214,9.196,21.21
			c-0.001-0.006-0.007-0.008-0.014-0.008c-0.576,0.08-0.995,0.483-0.999,0.487c-0.064,0.064-0.162,0.078-0.242,0.034
			c-0.08-0.042-0.121-0.13-0.103-0.22c0.144-0.716,0.036-1.29-0.08-1.644c-0.002-0.007-0.006-0.011-0.012-0.011
			c-0.006,0-0.01,0.001-0.015,0.006c-0.257,0.4-0.451,0.799-0.569,1.191c-0.122,0.393-0.171,0.779-0.149,1.146
			C7.042,22.626,7.168,22.941,7.222,23.055"/>
		<path fill="#61A227" d="M8.419,20.97c0.001,0,0.001,0,0.003,0c0.992-0.167,1.762-1.063,2.131-1.58
			c0.003-0.004,0.004-0.01,0.001-0.015c-0.003-0.006-0.008-0.009-0.014-0.009c-0.571,0.048-1.02,0.353-1.024,0.356
			c-0.073,0.05-0.169,0.048-0.24-0.005c-0.069-0.055-0.099-0.146-0.072-0.229c0.23-0.694,0.193-1.275,0.12-1.641
			c-0.001-0.005-0.005-0.011-0.01-0.012c-0.005-0.001-0.01,0-0.014,0.005c-1.243,1.494-1.042,2.679-0.897,3.116
			C8.407,20.966,8.415,20.97,8.419,20.97"/>
		<path fill="#61A227" d="M9.814,19.034c0.024,0,0.048,0.001,0.071,0.001c0.591,0,1.204-0.374,1.621-0.695
			c0.205-0.156,0.408-0.336,0.606-0.53c0.004-0.005,0.005-0.012,0.003-0.018c-0.002-0.006-0.009-0.008-0.014-0.008
			c-0.526,0.018-1.022,0.186-1.028,0.188c-0.08,0.024-0.166,0.002-0.221-0.062c-0.055-0.064-0.065-0.154-0.026-0.229
			c0.337-0.649,0.393-1.229,0.38-1.602c0-0.005-0.003-0.01-0.009-0.013c-0.004-0.002-0.01,0-0.013,0.003
			c-0.361,0.315-0.658,0.649-0.882,0.992c-0.225,0.343-0.379,0.701-0.46,1.063c-0.098,0.432-0.06,0.77-0.041,0.895
			C9.804,19.029,9.809,19.034,9.814,19.034"/>
		<path fill="#61A227" d="M13.936,16.407c-0.53-0.041-1.053,0.063-1.058,0.063c-0.078,0.018-0.163-0.019-0.209-0.085
			c-0.047-0.07-0.047-0.158-0.003-0.227c0.398-0.614,0.51-1.188,0.534-1.559c0-0.005-0.001-0.011-0.007-0.013
			c-0.005-0.005-0.01-0.003-0.015,0.002c-1.576,1.132-1.687,2.326-1.661,2.788c0.001,0.005,0.006,0.011,0.013,0.011
			c0.034,0.003,0.068,0.003,0.103,0.003c0.959,0,1.855-0.595,2.311-0.959c0.004-0.004,0.006-0.012,0.004-0.016
			C13.946,16.411,13.942,16.407,13.936,16.407"/>
		<path fill="#61A227" d="M15.953,15.438c-0.166-0.048-0.351-0.087-0.551-0.114c-0.298-0.039-0.522-0.037-0.523-0.037h-0.002
			c-0.084,0-0.162-0.054-0.193-0.134c-0.03-0.08-0.007-0.172,0.059-0.228c0.549-0.471,0.806-0.901,0.924-1.178
			c0.004-0.006,0.002-0.012-0.001-0.016c-0.003-0.005-0.01-0.006-0.014-0.005c-1.834,0.622-2.235,1.693-2.322,2.125
			c0,0.008,0.002,0.014,0.009,0.017c0.186,0.053,0.429,0.095,0.728,0.095c0.342,0,0.756-0.056,1.237-0.222
			c0.218-0.076,0.439-0.17,0.653-0.277c0.004-0.001,0.007-0.008,0.007-0.013C15.962,15.446,15.959,15.44,15.953,15.438"/>
		<path fill="#61A227" d="M18.148,14.845c-0.48-0.241-1.015-0.341-1.021-0.344c-0.086-0.016-0.153-0.085-0.166-0.174
			c-0.012-0.087,0.033-0.173,0.113-0.21c0.601-0.298,0.906-0.601,1.054-0.805c0.005-0.007,0.005-0.013,0.003-0.018
			c-0.004-0.005-0.01-0.007-0.015-0.007c-0.938,0.131-1.684,0.449-2.158,0.919c-0.243,0.243-0.368,0.478-0.432,0.631
			c-0.003,0.007,0,0.015,0.008,0.017c0.407,0.189,0.837,0.25,1.226,0.25c0.261,0,0.503-0.025,0.707-0.063
			c0.226-0.039,0.454-0.096,0.679-0.171c0.004-0.001,0.009-0.006,0.009-0.011C18.155,14.853,18.152,14.847,18.148,14.845"/>
		<path fill="#61A227" d="M19.579,14.225c-0.083-0.031-0.137-0.111-0.133-0.199c0.003-0.088,0.061-0.162,0.145-0.188
			c0.598-0.184,0.965-0.41,1.167-0.567c0.005-0.005,0.009-0.012,0.005-0.017c-0.002-0.006-0.007-0.01-0.013-0.01
			c-0.92-0.062-1.702,0.092-2.257,0.442c-0.293,0.186-0.466,0.388-0.561,0.524c-0.004,0.007-0.002,0.015,0.002,0.019
			c0.627,0.474,1.435,0.586,2.049,0.586c0.194,0,0.367-0.011,0.512-0.024c0.005-0.002,0.01-0.004,0.012-0.011
			c0.001-0.005,0-0.011-0.005-0.015C20.092,14.417,19.585,14.228,19.579,14.225"/>
		<path fill="#61A227" d="M21.985,14.387c-0.071-0.048-0.105-0.135-0.084-0.218c0.021-0.082,0.089-0.143,0.174-0.152
			c0.605-0.074,1.01-0.221,1.245-0.331c0.004-0.001,0.007-0.007,0.007-0.013s-0.005-0.011-0.01-0.014
			c-0.881-0.239-1.669-0.243-2.28-0.013c-0.324,0.124-0.536,0.286-0.658,0.402c-0.005,0.006-0.005,0.013,0,0.021
			c0.766,0.914,1.838,1.081,2.408,1.098l0,0c0.007,0,0.012-0.003,0.014-0.007c0.002-0.005,0.002-0.012-0.002-0.017
			C22.459,14.714,21.989,14.391,21.985,14.387"/>
		<path fill="#61A227" d="M27.967,17.385c0.009,0,0.015-0.006,0.015-0.014c0.004-0.194-0.015-0.584-0.177-1
			c-0.275-0.705-0.835-1.202-1.664-1.478c-0.005,0-0.012,0-0.015,0.005c-0.004,0.004-0.006,0.01-0.004,0.014
			c0.115,0.33,0.32,0.81,0.652,1.227c0.055,0.067,0.06,0.163,0.015,0.238c-0.047,0.072-0.134,0.108-0.221,0.09
			c-0.004-0.003-0.513-0.121-1.046-0.018c-0.006,0.001-0.011,0.005-0.011,0.012c-0.001,0.008,0,0.012,0.005,0.016
			c0.521,0.348,1.502,0.912,2.346,0.912C27.896,17.389,27.932,17.388,27.967,17.385"/>
		<path fill="#61A227" d="M26.064,15.896c0-0.004,0-0.008-0.003-0.012c-0.458-0.483-1.043-0.708-1.741-0.665
			c-0.247,0.017-0.497,0.063-0.745,0.143c-0.005,0-0.009,0.004-0.009,0.011c-0.001,0.005,0,0.01,0.003,0.015
			c0.554,0.428,1.135,0.646,1.728,0.646c0.032,0,0.066-0.001,0.1-0.001c0.282-0.014,0.513-0.074,0.658-0.125
			C26.059,15.905,26.063,15.9,26.064,15.896"/>
		<path fill="#61A227" d="M22.694,14.419c-0.002,0.005,0.001,0.01,0.006,0.013c0.35,0.248,0.778,0.372,1.28,0.372
			c0.209,0,0.433-0.023,0.669-0.067c0.371-0.067,0.7-0.182,0.91-0.265c0.004-0.003,0.008-0.006,0.008-0.013
			c0-0.005-0.002-0.011-0.007-0.013c-0.335-0.186-0.678-0.31-1.018-0.368c-0.365-0.062-0.731-0.052-1.088,0.033
			c-0.333,0.078-0.593,0.205-0.753,0.297C22.695,14.41,22.694,14.415,22.694,14.419"/>
		<path fill="#E24500" d="M15.842,27.801c0.113,0.139,0.3,0.204,0.573,0.204h2.658c-1.595-0.989-2.182-0.81-3.296-0.305
			C15.795,27.737,15.817,27.773,15.842,27.801"/>
		<path fill="#E24500" d="M22.335,26.584c-0.25-0.067-0.487-0.13-0.696-0.213c-0.837-0.335-1.524-0.876-1.554-0.897
			c-0.168-0.135-0.197-0.38-0.063-0.548c0.135-0.17,0.378-0.197,0.547-0.064c0.006,0.005,0.628,0.492,1.359,0.786
			c0.165,0.065,0.378,0.122,0.604,0.181c0.33,0.087,0.734,0.194,1.075,0.369c-0.069-0.438-0.138-0.813-0.214-1.172
			c-1.073-0.239-1.955-0.96-1.992-0.993c-0.079-0.064-0.13-0.157-0.139-0.262c-0.011-0.104,0.021-0.206,0.087-0.286
			c0.137-0.166,0.382-0.188,0.548-0.054c0.006,0.006,0.573,0.468,1.287,0.725c-0.284-1.059-0.667-2.05-1.17-3.03
			c-0.359-0.701-0.891-1.172-1.576-1.397c-0.499-0.163-0.897-0.131-0.903-0.131c-0.012,0-0.023,0.002-0.035,0.002
			c-0.014,0-1.292,0.021-2.097,0.968c-0.006,0.008-0.013,0.015-0.018,0.021c-0.149,0.152-0.548,0.623-0.609,0.977
			c-0.034,0.197,0.018,0.353,0.135,0.42c0.055,0.03,0.262,0.113,0.626-0.142c0.091-0.075,0.15-0.118,0.165-0.128
			c0.171-0.118,0.405-0.082,0.531,0.082c0.126,0.164,0.102,0.399-0.055,0.535c-0.052,0.043-0.102,0.085-0.154,0.12
			c-0.161,0.138-0.489,0.44-0.85,0.927c-0.48,0.648-1.122,1.767-1.447,3.4c-0.007,0.034-0.012,0.066-0.017,0.098
			c1.106-0.479,2.001-0.677,3.972,0.595c0.77,0.496,1.661,0.533,1.833,0.534h0.87c0.01,0,0.02,0.001,0.028,0.001
			c0.224,0.016,0.875-0.018,1.169-0.339c0.052-0.056,0.09-0.12,0.117-0.191C23.681,27.016,23.262,26.828,22.335,26.584"/>
		<path fill="#F6C181" d="M18.504,41.812c0.105-0.082,0.221-0.219,0.226-0.308c0.003-0.046-0.033-0.104-0.104-0.163
			c-0.084-0.073-0.172-0.111-0.269-0.111c-0.196,0-0.434,0.14-0.783,0.386c-0.223,0.154-0.592,0.46-0.564,0.744
			c0.016,0.119,0.061,0.164,0.103,0.194c0.181,0.121,0.544,0.081,0.676,0.062C17.928,42.313,18.162,42.05,18.504,41.812"/>
		<path fill="#F6C181" d="M19.855,42.294c0.002-0.022,0.008-0.086-0.105-0.192c-0.005-0.009-0.172-0.138-0.556,0.089
			c-0.296,0.169-0.621,0.377-0.77,0.685c0.078,0.081,0.154,0.104,0.207,0.115c0.317,0.062,0.767-0.214,0.898-0.317
			c0.011-0.008,0.02-0.014,0.025-0.018C19.646,42.598,19.84,42.431,19.855,42.294"/>
		<path fill="#F6C181" d="M15.732,40.404c-0.025-0.002-0.052-0.004-0.079-0.004c-0.29,0-0.694,0.196-0.881,0.44
			c-0.128,0.169-0.085,0.268-0.07,0.3c0.023,0.056,0.146,0.125,0.365,0.16c0.044,0.007,0.093,0.015,0.142,0.019
			c0.09-0.315,0.306-0.552,0.507-0.744c0.057-0.056,0.107-0.104,0.159-0.149c-0.048-0.01-0.089-0.016-0.115-0.018
			C15.75,40.408,15.744,40.408,15.732,40.404"/>
		<path fill="#F6C181" d="M15.853,41.641c0.007,0.06,0.022,0.23,0.358,0.344c0.052,0.014,0.104,0.027,0.162,0.039
			c0.099-0.335,0.372-0.663,0.81-0.971c0.06-0.041,0.122-0.083,0.188-0.129c0.003-0.023,0.002-0.043-0.005-0.063
			c-0.017-0.058-0.085-0.115-0.193-0.17c-0.069-0.034-0.143-0.052-0.22-0.052c-0.217,0-0.466,0.141-0.764,0.427
			C15.936,41.312,15.844,41.466,15.853,41.641"/>
		<path fill="#F6C181" d="M24.218,41.002c0.202-0.004,0.354-0.056,0.456-0.151c0.098-0.091,0.137-0.218,0.154-0.313
			c-0.196-0.246-0.859-1.03-1.752-1.611c-0.376-0.246-0.784-0.494-1.197-0.655c-0.46-0.177-0.85-0.216-1.196-0.121
			c-0.006,0.002-0.014,0.002-0.02,0.004c-0.104,0.022-0.251,0.119-0.424,0.234c-0.111,0.073-0.235,0.154-0.379,0.236
			c-0.397,0.234-0.944,0.396-1.389,0.421c-0.399,0.023-0.896,0.054-1.202-0.377c-0.2-0.284-0.243-0.54-0.136-0.832
			c0.102-0.27,0.418-0.423,0.817-0.621c0.17-0.082,0.344-0.169,0.473-0.25c0.186-0.121,0.303-0.219,0.449-0.336
			c0.148-0.123,0.311-0.256,0.581-0.444c0.113-0.081,0.229-0.145,0.351-0.194c-0.128-0.018-0.265-0.032-0.417-0.048
			c-0.639-0.054-1.098,0.177-1.77,0.653c-0.582,0.387-1.719,0.748-3.483,1.1c-1.683,0.335-3.988,0.673-6.855,1
			c0.086,0.319,0.18,0.639,0.281,0.948c0.365,1.136,0.82,2.224,1.355,3.229c1.019-0.45,3.527-1.582,5.479-2.624
			c0.389-0.367,0.975-0.583,1.428-0.523c0.105,0.008,0.469,0.056,0.749,0.292c0.314-0.102,0.63-0.08,0.914,0.063
			c0.315,0.156,0.456,0.367,0.519,0.521l0,0c0.401-0.121,0.763-0.05,1.074,0.223c0.191,0.164,0.302,0.353,0.332,0.565
			c0.385-0.062,0.676,0.069,0.823,0.221c0.289,0.279,0.325,0.565,0.306,0.756c-0.016,0.139-0.066,0.277-0.152,0.411
			c0.194,0.023,0.379,0,0.55-0.07c0.063-0.021,0.123-0.053,0.179-0.089c-0.084-0.169-0.233-0.417-0.468-0.683
			c-0.063-0.069-0.094-0.157-0.087-0.248c0.006-0.092,0.046-0.175,0.114-0.236c0.14-0.123,0.357-0.111,0.482,0.029
			c0.345,0.39,0.539,0.753,0.623,0.943c0.183,0.023,0.332-0.024,0.455-0.144c0.075-0.071,0.123-0.152,0.154-0.214
			c-0.035-0.077-0.126-0.236-0.354-0.5c-0.194-0.229-0.627-0.552-0.778-0.659c-0.074-0.052-0.125-0.129-0.14-0.223
			c-0.017-0.085,0.005-0.174,0.058-0.252c0.052-0.073,0.131-0.125,0.22-0.141c0.091-0.012,0.182,0.006,0.255,0.06
			c0.025,0.016,0.612,0.427,0.903,0.764c0.216,0.253,0.37,0.471,0.456,0.659c0.242,0.002,0.433-0.069,0.562-0.216
			c0.039-0.046,0.074-0.1,0.101-0.157c-0.259-0.346-0.92-1.149-1.717-1.538c-0.082-0.042-0.144-0.109-0.174-0.196
			c-0.029-0.088-0.022-0.179,0.018-0.26c0.041-0.084,0.11-0.146,0.195-0.173c0.087-0.032,0.179-0.026,0.261,0.016
			C23.192,39.712,23.932,40.616,24.218,41.002"/>
		<path fill="#F6C181" d="M19.862,37.816c0.226-0.147,0.422-0.28,0.649-0.33c1.133-0.306,2.305,0.457,2.935,0.865
			c0.857,0.558,1.501,1.259,1.808,1.626c0.006,0.008,0.022,0.031,0.048,0.063l0.012,0.01c0.001,0.002,0.002,0.002,0.005,0.006
			c0.095,0.111,0.299,0.321,0.593,0.53c1.446,1.069,3.638,2.024,4.545,2.396c0.561-1.036,1.037-2.157,1.416-3.339
			c0.09-0.281,0.177-0.573,0.258-0.867c-1.818-0.121-3.753-0.516-5.064-0.827c-1.509-0.359-2.619-0.709-2.667-0.725
			c-0.306-0.104-0.579-0.202-0.818-0.288c-0.824-0.298-1.369-0.494-1.971-0.464c-0.072,0-0.144,0.004-0.211,0.006
			c-0.093,0.002-0.18,0.006-0.268,0.008h-0.009c-0.564,0.01-0.938,0.018-1.279,0.256c-0.25,0.177-0.405,0.304-0.541,0.415
			c-0.151,0.123-0.292,0.238-0.509,0.379c-0.162,0.107-0.358,0.198-0.545,0.294c-0.143,0.069-0.412,0.2-0.484,0.266
			c-0.011,0.036-0.014,0.069,0.06,0.175c0.081,0.113,0.282,0.111,0.605,0.094c0.286-0.017,0.732-0.125,1.086-0.328
			C19.643,37.961,19.755,37.888,19.862,37.816"/>
	</g>
</g>
</svg>
