<?xml version="1.0" encoding="utf-8"?>
<!-- Generator: Adobe Illustrator 16.0.0, SVG Export Plug-In . SVG Version: 6.00 Build 0)  -->
<!DOCTYPE svg PUBLIC "-//W3C//DTD SVG 1.1//EN" "http://www.w3.org/Graphics/SVG/1.1/DTD/svg11.dtd">
<svg version="1.1" id="Capa_1" xmlns="http://www.w3.org/2000/svg" xmlns:xlink="http://www.w3.org/1999/xlink" x="0px" y="0px"
	 width="24px" height="24px" viewBox="0 0 24 24" enable-background="new 0 0 24 24" xml:space="preserve">
<circle fill="#FFFFFF" stroke="#FFFFFF" stroke-miterlimit="10" cx="12.001" cy="10.25" r="9"/>
<g id="Capa_1_1_" display="none">
	<circle display="inline" fill="#9A7D22" cx="12" cy="10.4" r="10"/>
</g>
<g id="Capa_3">
	<path fill="#EBC32E" d="M11.998,0.001L11.998,0.001C6.338-0.084,1.682,4.435,1.597,10.094c0,0.044,0,0.089,0,0.133
		c0,3.126,1.311,5.527,3.563,7.753c2.972,2.929,5.813,5.599,5.813,5.599c0.311,0.3,0.737,0.45,1.167,0.412v-0.412l0,0V24
		c0.368-0.079,0.715-0.232,1.021-0.455c0,0,2.741-2.74,5.696-5.652c2.254-2.221,3.547-4.533,3.547-7.677
		C22.377,4.547,17.76-0.027,12.091,0C12.06,0,12.029,0,11.998,0.001z M11.998,19c-4.946,0.003-8.957-4.004-8.959-8.949
		c-0.003-4.945,4.003-8.956,8.948-8.959c4.945-0.002,8.957,4.003,8.958,8.949c0,0.003,0,0.007,0,0.011
		C20.941,14.995,16.936,19,11.992,19H11.998z"/>
</g>
<g>
	
		<line fill="none" stroke="#EBC32E" stroke-width="0.85" stroke-linecap="round" stroke-linejoin="round" stroke-miterlimit="10" x1="9.431" y1="3.85" x2="14.572" y2="3.85"/>
	
		<line fill="none" stroke="#EBC32E" stroke-width="0.85" stroke-linecap="round" stroke-linejoin="round" stroke-miterlimit="10" x1="5.574" y1="14.35" x2="18.43" y2="14.35"/>
	
		<line fill="none" stroke="#EBC32E" stroke-width="0.85" stroke-linecap="round" stroke-linejoin="round" stroke-miterlimit="10" x1="11.866" y1="3.957" x2="7.883" y2="14.243"/>
	
		<line fill="none" stroke="#EBC32E" stroke-width="0.85" stroke-linecap="round" stroke-linejoin="round" stroke-miterlimit="10" x1="11.965" y1="3.914" x2="16.1" y2="14.201"/>
</g>
</svg>
