<?xml version="1.0" encoding="utf-8"?>
<!-- Generator: Adobe Illustrator 16.0.0, SVG Export Plug-In . SVG Version: 6.00 Build 0)  -->
<!DOCTYPE svg PUBLIC "-//W3C//DTD SVG 1.1//EN" "http://www.w3.org/Graphics/SVG/1.1/DTD/svg11.dtd">
<svg version="1.1" id="Capa_1" xmlns="http://www.w3.org/2000/svg" xmlns:xlink="http://www.w3.org/1999/xlink" x="0px" y="0px"
	 width="24px" height="24px" viewBox="0 0 24 24" enable-background="new 0 0 24 24" xml:space="preserve">
<circle fill="#FFFFFF" stroke="#FFFFFF" stroke-miterlimit="10" cx="12.001" cy="10.25" r="9"/>
<g id="Capa_1_1_" display="none">
	<circle display="inline" fill="#9A7D22" cx="12" cy="10.4" r="10"/>
</g>
<g id="Capa_3">
	<path fill="#F39F7E" d="M11.997,0.001L11.997,0.001c-5.66-0.085-10.315,4.434-10.4,10.093c0,0.044,0,0.089,0,0.133
		c0,3.126,1.311,5.527,3.563,7.753c2.972,2.929,5.813,5.599,5.813,5.599c0.311,0.3,0.736,0.45,1.167,0.412v-0.412l0,0V24
		c0.367-0.079,0.715-0.232,1.021-0.455c0,0,2.741-2.74,5.696-5.652c2.254-2.221,3.547-4.533,3.547-7.677
		C22.376,4.547,17.759-0.027,12.09,0C12.06,0,12.028,0,11.997,0.001z M11.997,19c-4.946,0.003-8.957-4.004-8.959-8.949
		c-0.003-4.945,4.003-8.956,8.948-8.959c4.944-0.002,8.956,4.003,8.958,8.949c0,0.003,0,0.007,0,0.011
		C20.939,14.995,16.936,19,11.991,19H11.997z"/>
</g>
<g id="Puesto_de_control">
	<g>
		<path fill="#F39F7E" d="M12.939,9.232c-0.293-0.083-0.599,0.085-0.685,0.378l-0.49,1.704l-0.018-0.098
			c-0.085-0.468-0.329-0.863-0.663-1.14l-0.813-4.521C10.22,5.271,9.95,5.083,9.667,5.135l-0.063,0.01
			C9.321,5.196,9.134,5.467,9.185,5.75l0.701,3.899C9.805,9.65,9.723,9.659,9.641,9.672L8.885,5.475
			C8.836,5.191,8.565,5.002,8.28,5.053L8.22,5.065C7.936,5.116,7.749,5.387,7.799,5.67l0.754,4.194L8.312,9.908L7.643,6.184
			c-0.05-0.283-0.323-0.472-0.606-0.42l-0.062,0.01C6.693,5.826,6.504,6.096,6.555,6.38l0.676,3.757
			c-0.093,0.036-0.182,0.079-0.266,0.128L6.418,7.222C6.369,6.944,6.102,6.759,5.822,6.808c-0.28,0.049-0.464,0.317-0.414,0.596
			l0.714,3.97c-0.077,0.271-0.096,0.564-0.042,0.861l0.374,2.076c0.186,1.029,1.147,1.72,2.148,1.539l2.041-0.367
			c0.504-0.091,0.923-0.383,1.191-0.785c0.083-0.068,0.15-0.164,0.184-0.278l1.3-4.507C13.402,9.62,13.233,9.315,12.939,9.232"/>
		<path fill="#F39F7E" d="M10.905,6.63l0.015,0.005c0.908,0.519,2.05,1.049,3.316,1.517c1.243,0.461,2.523,0.832,3.447,0.996
			c0.098-0.008,0.153,0.006,0.298-0.019l0.26-0.699l0.148,0.055l0.711-1.197c0,0-0.861-0.432-1.614-0.91
			c-0.181-0.116-0.358-0.235-0.511-0.349c-0.201-0.15-0.39-0.317-0.563-0.481c-0.52-0.498-0.887-0.989-0.887-0.989
			S14.98,4.675,14.04,4.71c-0.187,0.006-0.387,0.01-0.604,0.009c-0.228-0.001-0.45-0.014-0.664-0.031
			c-1.021-0.09-1.834-0.334-1.834-0.334l-0.103,1.335l0.266,0.098L10.839,6.5l0.003,0.001C10.829,6.516,10.903,6.635,10.905,6.63z"
			/>
	</g>
</g>
</svg>
