<?xml version="1.0" encoding="utf-8"?>
<!-- Generator: Adobe Illustrator 16.0.0, SVG Export Plug-In . SVG Version: 6.00 Build 0)  -->
<!DOCTYPE svg PUBLIC "-//W3C//DTD SVG 1.1//EN" "http://www.w3.org/Graphics/SVG/1.1/DTD/svg11.dtd">
<svg version="1.1" xmlns="http://www.w3.org/2000/svg" xmlns:xlink="http://www.w3.org/1999/xlink" x="0px" y="0px" width="24px"
	 height="24px" viewBox="0 0 24 24" enable-background="new 0 0 24 24" xml:space="preserve">
<g id="Capa_1">
	<path fill="#EBC32E" d="M18.14,7.999c-0.061,3.363-2.835,6.043-6.202,5.983c-3.366-0.063-6.043-2.839-5.982-6.203
		c0.059-3.367,2.834-6.042,6.201-5.985C15.521,1.857,18.2,4.635,18.14,7.999"/>
	<path fill="#EBC32E" d="M12.141,0.051C7.813-0.029,4.24,3.418,4.164,7.748c-0.043,2.41,1.004,4.581,2.689,6.049l-0.015,0.004
		c2.028,1.824,3.904,3.497,4.161,7.057c-1.264,0.166-2.203,0.746-2.216,1.465c-0.013,0.867,1.318,1.598,2.976,1.628
		c1.658,0.028,3.015-0.653,3.031-1.519c0.015-0.742-0.961-1.379-2.278-1.565c0.381-3.462,2.237-5.069,4.28-6.774
		c1.815-1.406,3.002-3.589,3.045-6.062C19.915,3.701,16.468,0.128,12.141,0.051 M11.929,14.42c-3.606-0.066-6.479-3.044-6.413-6.648
		c0.065-3.606,3.043-6.477,6.646-6.413c3.605,0.066,6.479,3.042,6.414,6.647C18.51,11.61,15.536,14.484,11.929,14.42"/>
</g>
<g id="Capa_2">
	<polygon fill-rule="evenodd" clip-rule="evenodd" fill="#FFFFFF" points="8.667,12.14 10.333,12.14 10.333,8.464 13.667,8.464 
		13.667,12.14 15.333,12.14 15.333,3.636 13.667,3.636 13.667,7.125 10.333,7.125 10.333,3.636 8.667,3.636 8.667,12.14 	"/>
</g>
</svg>
