<?xml version="1.0" encoding="utf-8"?>
<!-- Generator: Adobe Illustrator 16.0.0, SVG Export Plug-In . SVG Version: 6.00 Build 0)  -->
<!DOCTYPE svg PUBLIC "-//W3C//DTD SVG 1.1//EN" "http://www.w3.org/Graphics/SVG/1.1/DTD/svg11.dtd">
<svg version="1.1" xmlns="http://www.w3.org/2000/svg" xmlns:xlink="http://www.w3.org/1999/xlink" x="0px" y="0px" width="24px"
	 height="24px" viewBox="0 0 24 24" enable-background="new 0 0 24 24" xml:space="preserve">
<g id="Capa_1">
	<g id="Capa_1_1_">
		<path fill="#20547E" d="M12.141,0.051C7.813-0.029,4.24,3.418,4.164,7.748c-0.043,2.41,1.004,4.581,2.689,6.049l-0.015,0.004
			c2.028,1.824,3.904,3.497,4.161,7.057c-1.264,0.166-2.203,0.746-2.216,1.465c-0.013,0.867,1.318,1.599,2.976,1.629
			c1.658,0.027,3.015-0.653,3.031-1.52c0.015-0.742-0.961-1.379-2.278-1.564c0.381-3.463,2.237-5.069,4.28-6.774
			c1.815-1.405,3.002-3.589,3.045-6.062C19.915,3.701,16.468,0.128,12.141,0.051"/>
	</g>
</g>
<g id="Institucion_penitenciaria" display="none">
	
		<image display="inline" overflow="visible" width="900" height="520" xlink:href="6478F4A5.jpg"  transform="matrix(0.0333 0 0 0.0333 -2 1.3335)">
	</image>
</g>
<g id="Instalacion_militar" display="none">
	
		<image display="inline" overflow="visible" width="320" height="157" xlink:href="6478F4A7.jpg"  transform="matrix(0.0938 0 0 0.0938 -2 3.1406)">
	</image>
</g>
<g id="Capa_4">
	<path fill="#FFFFFF" d="M15.278,5.617c1.124,0.788,2.109-0.034,2.109-0.034c0.912-0.886,0.471-2.072,0.471-2.072l0.202-0.226
		c0.007-0.424-0.424-0.501-0.424-0.501l-0.241,0.143c0,0-0.646-0.189-0.628,0.414c0,0-0.878,0.214-1.368,1.031
		c0,0-0.64-0.375-0.763,0.489l-8.576,7.093c0,0,1.25-0.168,1.529-0.341C7.867,11.441,15.278,5.617,15.278,5.617z"/>
	<path fill="#20547E" d="M15.99,5.104c1.193,0.325,1.2-0.824,1.2-0.824L15.99,5.104z"/>
	<path fill="#FFFFFF" d="M8.843,5.617C7.719,6.405,6.733,5.583,6.733,5.583C5.821,4.697,6.263,3.511,6.263,3.511L6.061,3.286
		C6.054,2.862,6.484,2.784,6.484,2.784l0.241,0.143c0,0,0.646-0.189,0.628,0.414c0,0,0.878,0.214,1.368,1.031
		c0,0,0.64-0.375,0.763,0.489l8.575,7.093c0,0-1.25-0.168-1.528-0.341C16.254,11.441,8.843,5.617,8.843,5.617z"/>
	<path fill="#20547E" d="M8.131,5.104c-1.193,0.325-1.2-0.824-1.2-0.824L8.131,5.104z"/>
</g>
</svg>
