<svg xmlns="http://www.w3.org/2000/svg" xml:space="preserve" width="15.776" height="15.461" fill="#105C97" viewBox="161.155 -12.188 15.776 15.461"><path d="m176.53-.05-7.15 3.26h-.02c-.15.07-.31.07-.48.05-.05-.01-.12-.03-.17-.05h-.02l-7.15-3.26c-.51-.23-.51-1 0-1.23l1.98-.9 5.17 2.35h.02c.05.02.12.04.17.05.17.04.33.03.48-.05h.02l.53-.24h.01a7.04 7.04 0 0 0 6.25-1.37l.36.16c.52.23.52 1 0 1.23"/><path d="m167.05-1.58-5.51-2.5c-.52-.24-.52-1.01 0-1.23l3.09-1.41c.04 2.05.97 3.89 2.42 5.14m4.54-10.608c-2.95 0-5.34 2.39-5.34 5.34 0 2.94 2.39 5.33 5.34 5.33s5.33-2.39 5.33-5.33a5.33 5.33 0 0 0-5.33-5.34m3.56 6.09h-2.81v2.81h-1.5v-2.81h-2.81v-1.5h2.81v-2.82h1.5v2.82h2.81z"/></svg>