<?xml version="1.0" encoding="utf-8"?>
<!-- Generator: Adobe Illustrator 17.0.0, SVG Export Plug-In . SVG Version: 6.00 Build 0)  -->
<!DOCTYPE svg PUBLIC "-//W3C//DTD SVG 1.1//EN" "http://www.w3.org/Graphics/SVG/1.1/DTD/svg11.dtd">
<svg version="1.1" id="Layer_1" xmlns="http://www.w3.org/2000/svg" xmlns:xlink="http://www.w3.org/1999/xlink" x="0px" y="0px"
	 width="15.776px" height="15.461px" viewBox="161.155 -12.188 15.776 15.461"
	 enable-background="new 161.155 -12.188 15.776 15.461" xml:space="preserve">
<path d="M169.674-8.907"/>
<path d="M176.53-0.05l-7.15,3.26c-0.01,0-0.01,0-0.02,0c-0.15,0.07-0.31,0.07-0.48,0.05c-0.05-0.01-0.12-0.03-0.17-0.05
	c-0.01,0-0.01,0-0.02,0l-7.15-3.26c-0.51-0.23-0.51-1,0-1.23l1.98-0.9l5.17,2.35c0.01,0,0.01,0,0.02,0
	c0.05,0.02,0.12,0.04,0.17,0.05c0.17,0.04,0.33,0.03,0.48-0.05c0.01,0,0.01,0,0.02,0l0.53-0.24h0.01c0.57,0.15,1.16,0.23,1.77,0.23
	c1.7,0,3.26-0.6,4.48-1.6l0.36,0.16C177.05-1.05,177.05-0.28,176.53-0.05z"/>
<path d="M167.05-1.58l-5.51-2.5c-0.52-0.24-0.52-1.01,0-1.23l3.09-1.41C164.67-4.67,165.6-2.83,167.05-1.58z"/>
<path d="M171.59-12.188c-2.95,0-5.34,2.39-5.34,5.34c0,2.94,2.39,5.33,5.34,5.33c2.95,0,5.33-2.39,5.33-5.33
	C176.92-9.798,174.54-12.188,171.59-12.188z M175.15-6.098h-2.81v2.81h-1.5v-2.81h-2.81v-1.5h2.81v-2.82h1.5v2.82h2.81V-6.098z"/>
</svg>
