<?xml version="1.0" encoding="utf-8"?>
<!-- Generator: Adobe Illustrator 16.0.0, SVG Export Plug-In . SVG Version: 6.00 Build 0)  -->
<!DOCTYPE svg PUBLIC "-//W3C//DTD SVG 1.1//EN" "http://www.w3.org/Graphics/SVG/1.1/DTD/svg11.dtd">
<svg version="1.1" id="Capa_1" xmlns="http://www.w3.org/2000/svg" xmlns:xlink="http://www.w3.org/1999/xlink" x="0px" y="0px"
	 width="24px" height="24px" viewBox="0 0 24 24" enable-background="new 0 0 24 24" xml:space="preserve">
<circle fill="#FFFFFF" stroke="#FFFFFF" stroke-miterlimit="10" cx="12.001" cy="10.25" r="9"/>
<g id="Capa_1_1_" display="none">
	<circle display="inline" fill="#9A7D22" cx="12" cy="10.4" r="10"/>
</g>
<g id="Capa_3">
	<path fill="#20547E" d="M11.997,0.001L11.997,0.001c-5.66-0.085-10.315,4.434-10.4,10.093c0,0.044,0,0.089,0,0.133
		c0,3.126,1.311,5.527,3.563,7.753c2.972,2.929,5.813,5.599,5.813,5.599c0.311,0.3,0.736,0.45,1.167,0.412v-0.412l0,0V24
		c0.367-0.079,0.715-0.232,1.021-0.455c0,0,2.741-2.74,5.696-5.652c2.254-2.221,3.547-4.533,3.547-7.677
		C22.376,4.547,17.759-0.027,12.09,0C12.06,0,12.028,0,11.997,0.001z M11.997,19c-4.946,0.003-8.957-4.004-8.959-8.949
		c-0.003-4.945,4.003-8.956,8.948-8.959c4.944-0.002,8.956,4.003,8.958,8.949c0,0.003,0,0.007,0,0.011
		C20.939,14.995,16.936,19,11.991,19H11.997z"/>
</g>
<path fill="#20547E" d="M15.585,8.307c1.219,0.854,2.284-0.037,2.284-0.037c0.988-0.959,0.511-2.244,0.511-2.244l0.221-0.245
	c0.006-0.459-0.461-0.542-0.461-0.542l-0.261,0.155c0,0-0.7-0.205-0.68,0.449c0,0-0.952,0.231-1.482,1.117
	c0,0-0.694-0.406-0.826,0.53l-9.29,7.684c0,0,1.354-0.182,1.656-0.369C7.559,14.616,15.585,8.307,15.585,8.307z"/>
<path fill="#FFFFFF" d="M16.357,7.751c1.293,0.352,1.299-0.893,1.299-0.893L16.357,7.751z"/>
<path fill="#20547E" d="M8.615,8.307C7.397,9.161,6.33,8.27,6.33,8.27C5.342,7.311,5.821,6.026,5.821,6.026L5.602,5.782
	C5.595,5.323,6.06,5.238,6.06,5.238l0.261,0.155c0,0,0.7-0.205,0.68,0.449c0,0,0.951,0.231,1.482,1.117c0,0,0.693-0.406,0.827,0.53
	l9.289,7.684c0,0-1.354-0.182-1.654-0.369C16.644,14.616,8.615,8.307,8.615,8.307z"/>
<path fill="#FFFFFF" d="M7.844,7.751c-1.292,0.352-1.3-0.893-1.3-0.893L7.844,7.751z"/>
</svg>
