<?xml version="1.0" encoding="utf-8"?>
<!-- Generator: Adobe Illustrator 16.0.0, SVG Export Plug-In . SVG Version: 6.00 Build 0)  -->
<!DOCTYPE svg PUBLIC "-//W3C//DTD SVG 1.1//EN" "http://www.w3.org/Graphics/SVG/1.1/DTD/svg11.dtd">
<svg version="1.1" id="Capa_1" xmlns="http://www.w3.org/2000/svg" xmlns:xlink="http://www.w3.org/1999/xlink" x="0px" y="0px"
	 width="24px" height="24px" viewBox="0 0 24 24" enable-background="new 0 0 24 24" xml:space="preserve">
<circle fill="#FFFFFF" stroke="#FFFFFF" stroke-miterlimit="10" cx="12.001" cy="10.25" r="9"/>
<path fill="#20547E" stroke="#FFFFFF" stroke-width="0.75" stroke-linecap="round" stroke-linejoin="round" stroke-miterlimit="10" d="
	M12,17.762c0.318-0.729,2.211-1.255,2.211-1.255c2.091-0.709,3.098-1.893,3.098-1.893c2.125-2.108,0.762-4.602,0.762-4.602
	c-1.204-2.425,0.371-4.957,0.371-4.957l-2.07-2.017c0,0-1.645,1.61-4.37,0.389l0,0C9.274,4.649,7.629,3.039,7.629,3.039L5.558,5.056
	c0,0,1.576,2.532,0.373,4.957c0,0-1.363,2.494,0.761,4.602c0,0,1.01,1.184,3.098,1.893C9.788,16.507,11.682,17.033,12,17.762
	L12,17.762z"/>
<path fill="#FFFFFF" d="M9.666,9.176C9.727,9.396,9.77,9.63,9.754,9.859c-0.016,0.226-0.121,0.336-0.218,0.533
	c-0.181,0.357-0.168,1.039-0.129,1.432c0.037,0.379,0.171,0.732,0.396,1.041c0.326,0.451,0.806,0.807,1.311,1.029
	c0.09,0.039,0.244,0.061,0.321,0.115c0,0-0.17-0.123-0.33-0.771c-0.161-0.651-0.481-2.314,0.027-2.975C11.643,9.602,12,9.49,12,9.49
	s-0.178,1.056,0.115,1.575c0.292,0.518,0.378,0.462,0.378,0.462s-0.019-0.378,0.084-0.652l0.142-0.246c0,0,0.143,0.378,0.389,0.821
	c0.246,0.442,0.557,1.274,0.209,1.831c-0.352,0.56-0.275,0.728-0.275,0.728c0.596-0.312,1.152-1.159,1.152-1.159
	c1.002-1.154-0.026-3.343-0.207-3.853c-0.18-0.508-0.149-0.773-0.149-0.773l-0.353,0.254c-0.389,0.341-0.377,0.095-0.377,0.095
	c-0.351-0.386-0.392-2.509-0.392-2.509c-0.626,0.333-1.133,0.755-1.545,1.201c0,0-0.419,1.051-0.44,1.462
	C10.704,9.238,9.618,8.14,9.499,8.02C9.425,8.331,9.58,8.866,9.666,9.176z"/>
<g id="Capa_3">
	<path fill="#20547E" d="M11.998,0.001L11.998,0.001C6.338-0.084,1.682,4.435,1.597,10.094c0,0.044,0,0.089,0,0.133
		c0,3.126,1.311,5.527,3.563,7.753c2.972,2.929,5.813,5.599,5.813,5.599c0.311,0.3,0.737,0.45,1.167,0.412v-0.412l0,0V24
		c0.368-0.079,0.715-0.232,1.021-0.455c0,0,2.741-2.74,5.696-5.652c2.254-2.221,3.547-4.533,3.547-7.677
		C22.377,4.547,17.76-0.027,12.091,0C12.06,0,12.029,0,11.998,0.001z M11.998,19c-4.946,0.003-8.957-4.004-8.959-8.949
		c-0.003-4.945,4.003-8.956,8.948-8.959c4.945-0.002,8.957,4.003,8.958,8.949c0,0.003,0,0.007,0,0.011
		C20.941,14.995,16.936,19,11.992,19H11.998z"/>
</g>
</svg>
