<?xml version="1.0" encoding="utf-8"?>
<!-- Generator: Adobe Illustrator 16.0.0, SVG Export Plug-In . SVG Version: 6.00 Build 0)  -->
<!DOCTYPE svg PUBLIC "-//W3C//DTD SVG 1.1//EN" "http://www.w3.org/Graphics/SVG/1.1/DTD/svg11.dtd">
<svg version="1.1" id="Capa_1" xmlns="http://www.w3.org/2000/svg" xmlns:xlink="http://www.w3.org/1999/xlink" x="0px" y="0px"
	 width="24px" height="24px" viewBox="0 0 24 24" enable-background="new 0 0 24 24" xml:space="preserve">
<circle fill="#FFFFFF" stroke="#FFFFFF" stroke-miterlimit="10" cx="12.001" cy="10.25" r="9"/>
<g id="Capa_1_1_" display="none">
	<circle display="inline" fill="#9A7D22" cx="12" cy="10.4" r="10"/>
</g>
<g id="Capa_3">
	<path fill="#B5343A" d="M11.997,0.001L11.997,0.001c-5.66-0.085-10.315,4.434-10.4,10.093c0,0.044,0,0.089,0,0.133
		c0,3.126,1.311,5.527,3.563,7.753c2.972,2.929,5.813,5.599,5.813,5.599c0.311,0.3,0.736,0.45,1.167,0.412v-0.412l0,0V24
		c0.367-0.079,0.715-0.232,1.021-0.455c0,0,2.741-2.74,5.696-5.652c2.254-2.221,3.547-4.533,3.547-7.677
		C22.376,4.547,17.759-0.027,12.09,0C12.06,0,12.028,0,11.997,0.001z M11.997,19c-4.946,0.003-8.957-4.004-8.959-8.949
		c-0.003-4.945,4.003-8.956,8.948-8.959c4.944-0.002,8.956,4.003,8.958,8.949c0,0.003,0,0.007,0,0.011
		C20.939,14.995,16.936,19,11.991,19H11.997z"/>
</g>
<polygon fill="#B5343A" stroke="#B5343A" stroke-width="0.25" stroke-linecap="round" stroke-linejoin="round" stroke-miterlimit="10" points="
	6.8,6.712 12.001,2.551 17.201,6.712 "/>
<rect x="6.8" y="7.187" fill="#B5343A" stroke="#B5343A" stroke-width="0.25" stroke-linecap="round" stroke-linejoin="round" stroke-miterlimit="10" width="10.401" height="6.76"/>
<line fill="none" stroke="#B5343A" stroke-width="0.5" stroke-linecap="round" stroke-linejoin="round" stroke-miterlimit="10" x1="5.501" y1="14.604" x2="18.501" y2="14.604"/>
<path fill="#FFFFFF" d="M16,7.347c-0.467,0-0.848,0.295-0.848,0.658v5.782h1.695V8.005C16.848,7.642,16.469,7.347,16,7.347z"/>
<path fill="#FFFFFF" d="M12,7.347c-0.468,0-0.849,0.295-0.849,0.658v5.782h1.696V8.005C12.848,7.642,12.468,7.347,12,7.347z"/>
<path fill="#FFFFFF" d="M8,7.347c-0.467,0-0.848,0.295-0.848,0.658v5.782h1.695V8.005C8.848,7.642,8.469,7.347,8,7.347z"/>
<g>
	<path fill="#FFFFFF" stroke="#B5343A" stroke-width="0.1" stroke-miterlimit="10" d="M14.206,14.325
		c0.146,0.134,0.346,0.05,0.48-0.094l0.34-0.363l-0.65-0.626l-0.344,0.364c-0.134,0.144-0.219,0.333-0.074,0.469l0.034,0.031
		c-0.266,0.208-0.645,0.199-0.902-0.02c0,0-0.83,0.366-0.742,1.179c0.018,0.384-0.105,0.763-0.348,1.06l0.938-1.016
		c-0.091-0.1-0.084-0.256,0.016-0.35c0.007-0.004,0.011-0.01,0.016-0.014c0.146-0.096,0.342-0.056,0.436,0.088
		c0.064,0.1,0.07,0.225,0.012,0.329c-0.094,0.103-0.246,0.128-0.363,0.052l-0.969,1c0.301-0.219,0.654-0.355,1.025-0.402
		c0.817,0.038,1.141-0.81,1.141-0.81c-0.235-0.243-0.267-0.619-0.075-0.9L14.206,14.325z"/>
	<path fill="#FFFFFF" stroke="#B5343A" stroke-width="0.1" stroke-miterlimit="10" d="M19.968,7.95
		c-0.237-0.223-1.729,0.981-3.375,2.734c-0.48,0.511-1.361,1.482-2.066,2.291l0.771,0.726c0.766-0.757,1.667-1.684,2.145-2.195
		C19.086,9.743,20.207,8.176,19.968,7.95z"/>
</g>
</svg>
