<?xml version="1.0" encoding="utf-8"?>
<!-- Generator: Adobe Illustrator 16.0.0, SVG Export Plug-In . SVG Version: 6.00 Build 0)  -->
<!DOCTYPE svg PUBLIC "-//W3C//DTD SVG 1.1//EN" "http://www.w3.org/Graphics/SVG/1.1/DTD/svg11.dtd">
<svg version="1.1" xmlns="http://www.w3.org/2000/svg" xmlns:xlink="http://www.w3.org/1999/xlink" x="0px" y="0px" width="24px"
	 height="24px" viewBox="0 0 24 24" enable-background="new 0 0 24 24" xml:space="preserve">
<g id="Capa_1">
	<path fill="#E0BC36" d="M12.141,0.051C7.813-0.029,4.24,3.418,4.164,7.748c-0.043,2.41,1.004,4.581,2.689,6.049l-0.015,0.004
		c2.028,1.824,3.904,3.497,4.161,7.057c-1.264,0.165-2.203,0.745-2.216,1.464c-0.013,0.868,1.318,1.598,2.976,1.628
		c1.658,0.028,3.014-0.653,3.031-1.519c0.014-0.741-0.961-1.378-2.279-1.565c0.381-3.462,2.238-5.069,4.281-6.774
		c1.816-1.406,3.002-3.589,3.045-6.062C19.915,3.701,16.468,0.128,12.141,0.051"/>
</g>
<g id="Capa_2">
	<path fill="#FFFFFF" d="M11.961,1.797c1.201,0.236,0.996,4.056,0.996,4.056l4.808,4.703l-0.06,0.769l-4.679-2.253l-0.005,2.519
		l1.343,1.895l-0.03,1.287l-2.312-1.545l-0.015-0.004l-2.292,1.569L9.67,13.506l1.321-1.909l-0.034-2.519l-4.654,2.305l-0.069-0.768
		l4.756-4.756c0,0-0.249-3.816,0.948-4.064L11.961,1.797z"/>
</g>
</svg>
