<?xml version="1.0" encoding="utf-8"?>
<!-- Generator: Adobe Illustrator 16.0.0, SVG Export Plug-In . SVG Version: 6.00 Build 0)  -->
<!DOCTYPE svg PUBLIC "-//W3C//DTD SVG 1.1//EN" "http://www.w3.org/Graphics/SVG/1.1/DTD/svg11.dtd">
<svg version="1.1" id="Capa_1" xmlns="http://www.w3.org/2000/svg" xmlns:xlink="http://www.w3.org/1999/xlink" x="0px" y="0px"
	 width="24px" height="24px" viewBox="0 0 24 24" enable-background="new 0 0 24 24" xml:space="preserve">
<path fill="#B5343A" d="M12.141,0.051C7.813-0.029,4.24,3.418,4.164,7.748c-0.043,2.41,1.004,4.581,2.689,6.049l-0.015,0.004
	c2.028,1.824,3.904,3.497,4.161,7.057c-1.264,0.166-2.203,0.746-2.216,1.466c-0.013,0.866,1.318,1.598,2.976,1.628
	c1.658,0.027,3.015-0.653,3.031-1.52c0.015-0.742-0.961-1.379-2.278-1.564c0.381-3.462,2.237-5.069,4.28-6.774
	c1.815-1.405,3.002-3.589,3.045-6.062C19.915,3.701,16.468,0.128,12.141,0.051"/>
<g>
	<path fill="#FFFFFF" d="M8.593,9.474c0,0,0.165-0.204,0.423-0.367c0.257-0.165,0.426-0.48,0.388-0.614
		C9.366,8.359,9.048,7.714,9.048,7.714s-0.243-0.33-0.068-0.421c0.178-0.091,0.041-0.238,0.041-0.238s0.058,0.01,0.007-0.242
		C8.977,6.559,8.88,6.553,8.88,6.553S8.814,6.156,8.903,6.236c0.089,0.079,0.132-0.054,0.082-0.138
		C8.937,6.015,9.052,6.115,9.062,5.977c0.01-0.139-0.198-0.553,0.029-0.512c0.229,0.041,0.313,0,0.217-0.152
		c-0.097-0.15,0.35-0.206,0.35-0.206s0.02-0.211,0.201-0.328c0.182-0.115,0.222-0.119,0.39-0.29c0.167-0.171,0.396-0.3,0.435-0.248
		c0.037,0.053,0.167,0.137,0.073,0.163c-0.095,0.026-0.3-0.009-0.34,0.075c-0.039,0.085-0.016,0.155-0.069,0.258
		c-0.055,0.103-0.11,0.036-0.229,0.129C9.998,4.959,9.918,5.121,9.918,5.121S9.724,5.279,9.733,5.366
		c0.009,0.087-0.114,0.149-0.019,0.212s0.022-0.019,0.149-0.04s0.201-0.004,0.17,0.087c-0.03,0.091-0.159,0.178-0.264,0.173
		C9.665,5.794,9.48,5.813,9.48,5.885C9.479,5.958,9.515,5.978,9.442,6.066c-0.071,0.088-0.124,0.127-0.14,0.281
		C9.286,6.502,9.28,6.608,9.287,6.672c0.007,0.064-0.023,0.236,0.106,0.247C9.524,6.93,9.492,6.853,9.572,6.78
		c0.082-0.073,0.211,0.003,0.145,0.062C9.65,6.9,9.782,7.008,9.782,7.008s0.219,0.47,0.284,0.56c0.066,0.09,0.101,0.183,0.083,0.25
		c-0.018,0.066,0.05-0.061,0.102,0.126c0.053,0.188,0.057,0.155,0.063,0.292s0.04,0.384,0.044,0.423
		c0.004,0.04,0.048,0.076,0.063,0.219c0.015,0.145-0.003,0.284-0.013,0.357c-0.007,0.074-0.028,0.263-0.081,0.299
		c-0.053,0.037-0.211,0.063-0.21,0.151s-0.022,0.252-0.022,0.252s-0.301,0.217-0.451,0.403c-0.15,0.185-0.192,0.318-0.192,0.318
		l-0.394,0.099L8.593,9.474z"/>
	<path fill="#FFFFFF" d="M8.384,8.776c0,0-0.125-0.108-0.067-0.259c0.057-0.152,0.018-0.212,0.15-0.258
		C8.6,8.213,8.872,8.201,8.766,8.107C8.659,8.012,8.464,8.073,8.437,7.972C8.411,7.869,8.461,7.735,8.396,7.58
		s-0.05-0.367,0.027-0.375C8.502,7.197,8.47,7.193,8.659,7.391c0.19,0.198,0.146,0.323,0.314,0.541
		c0.168,0.217,0.21,0.382,0.196,0.497C9.159,8.543,8.996,8.761,8.996,8.761S8.812,8.934,8.738,8.933
		c-0.072,0-0.218-0.155-0.218-0.155L8.384,8.776z"/>
	<path fill="#FFFFFF" d="M9.722,12.49c0,0,0.187,0.092,0.295,0.042c0.107-0.052,0.396,0.168,0.475,0.217s0.45,0.221,0.438,0.245
		c-0.014,0.025-0.119,0.238,0.021,0.192c0.14-0.047,0.195-0.215,0.232-0.243c0.037-0.027,0.246-0.206,0.472-0.24
		c0.227-0.032,0.412,0.044,0.479-0.003c0.068-0.048,0.145-0.096,0.218-0.159c0.074-0.064,0.098-0.156,0.276-0.143
		s0.315,0.016,0.385-0.023c0.068-0.041,0.37-0.007,0.42-0.157c0.049-0.15-0.028-0.191,0.065-0.225
		c0.093-0.034,0.393-0.098,0.291-0.152c-0.104-0.055-0.476-0.08-0.476-0.08s-0.264-0.118-0.232-0.371
		c0.028-0.253,0.252-0.205,0.286-0.345s0.58-0.327,0.58-0.327l0.44-0.118l0.323-0.066l0.032-0.003l-3.454,5.704L9.722,12.49z"/>
	<path fill="#FFFFFF" d="M11.661,11.577c0,0-0.036-0.432,0.187-0.544c0.222-0.111,0.262-0.205,0.325-0.09
		c0.064,0.114,0.206,0.317,0.113,0.344c-0.095,0.025-0.137,0.014-0.063,0.143c0.074,0.13,0.077,0.316,0.077,0.316
		s-0.077,0.193-0.107,0.212c-0.029,0.02-0.265,0.173-0.289,0.175c-0.023,0.002-0.307,0.032-0.307,0.032s-0.434,0.223-0.34-0.045
		c0.093-0.268,0.246-0.276,0.303-0.314S11.661,11.577,11.661,11.577z"/>
	<path fill="none" stroke="#FFFFFF" stroke-width="0.25" stroke-miterlimit="10" d="M9.931,11.554c0,0-0.048,0.16-0.055,0.249
		s-0.305,0.023-0.036-0.352C10.107,11.076,9.931,11.554,9.931,11.554z"/>
	<path fill="none" stroke="#FFFFFF" stroke-width="0.25" stroke-miterlimit="10" d="M10.463,12.082c0,0,0.192-0.084,0.191-0.174
		c-0.002-0.088,0.107-0.288,0.119-0.166c0.013,0.121,0.047,0.448-0.004,0.501c-0.051,0.054-0.21-0.083-0.264-0.054
		c-0.054,0.03-0.312-0.047-0.211-0.163C10.396,11.91,10.463,12.082,10.463,12.082z"/>
	<path fill="none" stroke="#FFFFFF" stroke-width="0.25" stroke-miterlimit="10" d="M14.742,10.531l3.259-6.694
		C12.143,1.685,6.565,3.485,6.565,3.485l2.027,5.988l1.129,3.016"/>
</g>
</svg>
