<svg height='300px' width='300px'  fill="#4f4f4f" xmlns="http://www.w3.org/2000/svg" viewBox="0 0 32 32" x="0px" y="0px"><title>File Text_3</title><g data-name="File Text"><path d="M27.99,7.944a1.494,1.494,0,0,0-.067-.316.985.985,0,0,0-.164-.279l-6-7a1.009,1.009,0,0,0-.306-.231c-.03-.015-.059-.026-.091-.039A.978.978,0,0,0,21.046.01C21.03.009,21.016,0,21,0H5A1,1,0,0,0,4,1V31a1,1,0,0,0,1,1H27a1,1,0,0,0,1-1V8C28,7.981,27.991,7.963,27.99,7.944ZM22,3.7,24.826,7H22ZM6,30V2H20V8a1,1,0,0,0,1,1h5V30Z"></path><rect x="9" y="13" width="9" height="2"></rect><rect x="9" y="17" width="14" height="2"></rect><rect x="9" y="21" width="14" height="2"></rect><rect x="9" y="25" width="14" height="2"></rect></g></svg>