<?xml version="1.0" encoding="utf-8"?>
<!-- Generator: Adobe Illustrator 16.0.0, SVG Export Plug-In . SVG Version: 6.00 Build 0)  -->
<!DOCTYPE svg PUBLIC "-//W3C//DTD SVG 1.1//EN" "http://www.w3.org/Graphics/SVG/1.1/DTD/svg11.dtd">
<svg version="1.1" id="Layer_1" xmlns="http://www.w3.org/2000/svg" xmlns:xlink="http://www.w3.org/1999/xlink" x="0px" y="0px"
	 width="595.279px" height="841.89px" viewBox="0 0 595.279 841.89" enable-background="new 0 0 595.279 841.89"
	 xml:space="preserve">
<title>reclamo consulta</title>
<path fill="#FFFFFF" d="M483.68,283.155v-1.062l-79.276-84.821l-0.708-0.826H159.496c-27.364,0-49.548,22.183-49.548,49.548l0,0
	v349.901c0,27.363,22.184,49.547,49.548,49.547l0,0h276.287c27.318-0.064,49.43-22.229,49.43-49.547L483.68,283.155z
	 M446.165,277.729h-33.268v-36.453L446.165,277.729z M462.799,596.25c0,15.246-12.359,27.605-27.605,27.605l0,0H159.496
	c-15.246,0-27.605-12.359-27.605-27.605l0,0V245.995c0-15.246,12.359-27.605,27.605-27.605l0,0h228.745v71.608
	c0.38,6.721,6.011,11.935,12.741,11.797c4.482,0,35.391,0,61.935,0L462.799,596.25z"/>
<path fill="#FFFFFF" d="M294.927,495.738c-6.063-0.209-11.961,1.998-16.398,6.135c-8.487,8.555-8.487,22.354,0,30.908
	c9.576,8.072,23.574,8.072,33.149,0c8.487-8.555,8.487-22.354,0-30.908C307.155,497.646,301.111,495.433,294.927,495.738z"/>
<path fill="#FFFFFF" d="M298.23,328.928c-17.086-1.063-33.942,4.373-47.188,15.218c-11.739,10.831-18.124,26.275-17.459,42.234
	h40.936c-0.171-6.531,2.197-12.875,6.606-17.696c4.427-4.416,10.505-6.771,16.752-6.488c14.707,0,22.061,7.865,22.061,23.594
	c-0.009,5.327-1.479,10.549-4.247,15.1c-4.771,6.937-10.488,13.171-16.988,18.521c-7.598,6.406-13.613,14.48-17.577,23.594
	c-3.585,10.1-5.227,20.787-4.837,31.498h36.099v-8.611c1.058-9,5.231-17.348,11.797-23.594l11.798-10.854
	c7.489-6.797,13.824-14.765,18.757-23.594c3.534-7.025,5.353-14.787,5.309-22.65c0.928-15.435-5.138-30.467-16.516-40.936
	C330.782,333.841,314.688,328.392,298.23,328.928z"/>
</svg>
