<?xml version="1.0" encoding="utf-8"?>
<!-- Generator: Adobe Illustrator 16.0.0, SVG Export Plug-In . SVG Version: 6.00 Build 0)  -->
<!DOCTYPE svg PUBLIC "-//W3C//DTD SVG 1.1//EN" "http://www.w3.org/Graphics/SVG/1.1/DTD/svg11.dtd">
<svg version="1.1" id="Capa_1" xmlns="http://www.w3.org/2000/svg" xmlns:xlink="http://www.w3.org/1999/xlink" x="0px" y="0px"
	 width="24px" height="24px" viewBox="0 0 24 24" enable-background="new 0 0 24 24" xml:space="preserve">
<circle fill="#FFFFFF" stroke="#FFFFFF" stroke-miterlimit="10" cx="12.001" cy="10.25" r="9"/>
<g id="Capa_1_1_" display="none">
	<circle display="inline" fill="#9A7D22" cx="12" cy="10.4" r="10"/>
</g>
<g id="Capa_3">
	<path fill="#20547E" d="M11.997,0.001L11.997,0.001c-5.66-0.085-10.315,4.434-10.4,10.093c0,0.044,0,0.089,0,0.133
		c0,3.126,1.311,5.527,3.563,7.753c2.972,2.929,5.813,5.599,5.813,5.599c0.311,0.3,0.736,0.45,1.167,0.412v-0.412l0,0V24
		c0.367-0.079,0.715-0.232,1.021-0.455c0,0,2.741-2.74,5.696-5.652c2.254-2.221,3.547-4.533,3.547-7.677
		C22.376,4.547,17.759-0.027,12.09,0C12.06,0,12.028,0,11.997,0.001z M11.997,19c-4.946,0.003-8.957-4.004-8.959-8.949
		c-0.003-4.945,4.003-8.956,8.948-8.959c4.944-0.002,8.956,4.003,8.958,8.949c0,0.003,0,0.007,0,0.011
		C20.939,14.995,16.936,19,11.991,19H11.997z"/>
</g>
<path fill="#20547E" d="M12.025,4.688c1.681,0.127,6.882,4.012,7.592,4.452c0.708,0.439,0.268,1.035,0,1.276
	c-0.269,0.241-0.853,1.417-0.853,1.417c-2.985-1.065-5.715-1.093-6.719-1.057h-0.09c-1.005-0.034-3.733-0.008-6.721,1.057
	c0,0-0.581-1.176-0.851-1.417c-0.268-0.241-0.709-0.836,0-1.276c0.708-0.439,5.91-4.324,7.592-4.452H12.025z"/>
<path fill="#20547E" d="M12.042,11.521c0,0,4.075,0.086,6.526,0.724c0,0,0.511,1.167-0.836,1.598c-1.347,0.43-3.104,0.84-5.614,0.87
	h-0.22c-2.511-0.029-4.27-0.44-5.616-0.87c-1.347-0.431-0.836-1.598-0.836-1.598c2.454-0.637,6.528-0.724,6.528-0.724H12.042z"/>
<path fill="#FFFFFF" d="M12.001,10.436c0.094-0.213,0.652-0.37,0.652-0.37c0.617-0.21,0.914-0.56,0.914-0.56
	c0.629-0.623,0.226-1.359,0.226-1.359c-0.355-0.716,0.112-1.464,0.112-1.464l-0.613-0.596c0,0-0.485,0.475-1.291,0.115l0,0
	c-0.805,0.361-1.292-0.115-1.292-0.115l-0.612,0.595c0,0,0.465,0.749,0.109,1.465c0,0-0.401,0.736,0.225,1.358
	c0,0,0.298,0.35,0.916,0.56C11.347,10.065,11.906,10.222,12.001,10.436L12.001,10.436z"/>
</svg>
