<?xml version="1.0" encoding="utf-8"?>
<!-- Generator: Adobe Illustrator 16.0.0, SVG Export Plug-In . SVG Version: 6.00 Build 0)  -->
<!DOCTYPE svg PUBLIC "-//W3C//DTD SVG 1.1//EN" "http://www.w3.org/Graphics/SVG/1.1/DTD/svg11.dtd">
<svg version="1.1" xmlns="http://www.w3.org/2000/svg" xmlns:xlink="http://www.w3.org/1999/xlink" x="0px" y="0px" width="24px"
	 height="24px" viewBox="0 0 24 24" enable-background="new 0 0 24 24" xml:space="preserve">
<g id="Capa_1">
	<path fill="#20547E" d="M12.141,0.051C7.813-0.029,4.24,3.418,4.164,7.748c-0.043,2.41,1.004,4.581,2.689,6.049l-0.015,0.004
		c2.028,1.824,3.904,3.497,4.161,7.057c-1.264,0.166-2.203,0.746-2.216,1.465c-0.013,0.867,1.318,1.598,2.976,1.628
		c1.658,0.028,3.015-0.653,3.031-1.519c0.015-0.742-0.961-1.379-2.278-1.565c0.381-3.462,2.237-5.069,4.28-6.774
		c1.815-1.406,3.002-3.589,3.045-6.062C19.915,3.701,16.468,0.128,12.141,0.051"/>
</g>
<g id="Capa_2">
	<path fill="#FFFFFF" d="M12.022,3.261c1.489,0.113,6.097,3.554,6.725,3.943c0.628,0.39,0.238,0.917,0,1.13
		c-0.238,0.214-0.754,1.256-0.754,1.256c-2.646-0.944-5.063-0.968-5.953-0.937h-0.079C11.07,8.623,8.654,8.646,6.007,9.59
		c0,0-0.515-1.042-0.754-1.256c-0.238-0.213-0.628-0.74,0-1.13c0.628-0.389,5.235-3.83,6.725-3.943H12.022z"/>
	<path fill="#FFFFFF" d="M12.037,9.314c0,0,3.609,0.076,5.782,0.641c0,0,0.452,1.033-0.741,1.415
		c-1.193,0.381-2.75,0.745-4.973,0.771H11.91c-2.224-0.025-3.781-0.39-4.974-0.771c-1.193-0.382-0.741-1.415-0.741-1.415
		c2.173-0.564,5.783-0.641,5.783-0.641H12.037z"/>
	<path fill="#20547E" d="M12.001,8.352c0.083-0.189,0.577-0.327,0.577-0.327c0.547-0.186,0.811-0.496,0.811-0.496
		c0.556-0.552,0.2-1.204,0.2-1.204c-0.315-0.634,0.098-1.297,0.098-1.297L13.144,4.5c0,0-0.43,0.421-1.143,0.102l0,0
		C11.288,4.922,10.857,4.5,10.857,4.5l-0.542,0.527c0,0,0.412,0.663,0.097,1.297c0,0-0.356,0.652,0.199,1.204
		c0,0,0.264,0.31,0.811,0.496C11.422,8.024,11.917,8.162,12.001,8.352L12.001,8.352z"/>
</g>
</svg>
